<?xml version="1.0" encoding="UTF-8"?>
<!-- Generated by graphviz version 2.28.0 (20110901.0847)
 -->
<!-- Title: g Pages: 1 -->
<!DOCTYPE svg
  PUBLIC "-//W3C//DTD SVG 1.1//EN" "http://www.w3.org/Graphics/SVG/1.1/DTD/svg11.dtd">
<svg xmlns="http://www.w3.org/2000/svg"
     xmlns:xlink="http://www.w3.org/1999/xlink"
     width="206pt"
     height="98pt"
     viewBox="0.00 0.00 206.00 98.00"
     preserveAspectRatio="xMidYMid meet"
     zoomAndPan="magnify"
     version="1.1"
     contentScriptType="text/ecmascript"
     contentStyleType="text/css">
   <g id="graph1"
      class="graph"
      transform="scale(1 1) rotate(0) translate(4 94)">
      <title>g</title>
      <polygon fill="white" stroke="white" points="-4,5 -4,-94 203,-94 203,5 -4,5"/>
      <!-- d7e8850 -->
      <g id="node2" class="node">
         <title>d7e8850</title>
         <polygon fill="none"
                  stroke="black"
                  points="54,-63 0,-63 0,-27 54,-27 54,-63"/>
         <text text-anchor="middle"
               x="27"
               y="-40.4"
               font-family="Times,serif"
               font-size="14.00">A</text>
      </g>
      <!-- d7e8851 -->
      <g id="node4" class="node">
         <title>d7e8851</title>
         <polygon fill="none"
                  stroke="black"
                  points="126,-90 72,-90 72,-54 126,-54 126,-90"/>
         <text text-anchor="middle"
               x="99"
               y="-67.4"
               font-family="Times,serif"
               font-size="14.00">B</text>
      </g>
      <!-- d7e8850&#45;&gt;d7e8851 -->
      <g id="edge11" class="edge">
         <title>d7e8850-&gt;d7e8851</title>
         <path fill="none"
               stroke="black"
               d="M54.0654,-55.0538C56.7621,-56.094 59.5346,-57.1634 62.3129,-58.235"/>
         <polygon fill="black"
                  stroke="black"
                  points="61.0898,-61.5145 71.6794,-61.8478 63.6089,-54.9835 61.0898,-61.5145"/>
      </g>
      <!-- d7e8853 -->
      <g id="node9" class="node">
         <title>d7e8853</title>
         <polygon fill="none"
                  stroke="black"
                  points="126,-36 72,-36 72,-0 126,-0 126,-36"/>
         <text text-anchor="middle"
               x="99"
               y="-13.4"
               font-family="Times,serif"
               font-size="14.00">C</text>
      </g>
      <!-- d7e8850&#45;&gt;d7e8853 -->
      <g id="edge13" class="edge">
         <title>d7e8850-&gt;d7e8853</title>
         <path fill="none"
               stroke="black"
               d="M54.0654,-34.9462C56.7621,-33.906 59.5346,-32.8366 62.3129,-31.765"/>
         <polygon fill="black"
                  stroke="black"
                  points="63.6089,-35.0165 71.6794,-28.1522 61.0898,-28.4855 63.6089,-35.0165"/>
      </g>
      <!-- d7e8852 -->
      <g id="node6" class="node">
         <title>d7e8852</title>
         <polygon fill="none"
                  stroke="black"
                  points="198,-90 144,-90 144,-54 198,-54 198,-90"/>
         <text text-anchor="middle"
               x="171"
               y="-67.4"
               font-family="Times,serif"
               font-size="14.00">D</text>
      </g>
      <!-- d7e8851&#45;&gt;d7e8852 -->
      <g id="edge5" class="edge">
         <title>d7e8851-&gt;d7e8852</title>
         <path fill="none"
               stroke="black"
               d="M126.065,-72C128.492,-72 130.981,-72 133.48,-72"/>
         <polygon fill="black"
                  stroke="black"
                  points="133.679,-75.5001 143.679,-72 133.679,-68.5001 133.679,-75.5001"/>
      </g>
      <!-- d7e8854 -->
      <g id="node11" class="node">
         <title>d7e8854</title>
         <polygon fill="none"
                  stroke="black"
                  points="198,-36 144,-36 144,-0 198,-0 198,-36"/>
         <text text-anchor="middle"
               x="171"
               y="-13.4"
               font-family="Times,serif"
               font-size="14.00">E</text>
      </g>
      <!-- d7e8853&#45;&gt;d7e8854 -->
      <g id="edge9" class="edge">
         <title>d7e8853-&gt;d7e8854</title>
         <path fill="none"
               stroke="black"
               d="M126.065,-18C128.492,-18 130.981,-18 133.48,-18"/>
         <polygon fill="black"
                  stroke="black"
                  points="133.679,-21.5001 143.679,-18 133.679,-14.5001 133.679,-21.5001"/>
      </g>
   </g>
</svg>
