<?xml version="1.0" encoding="UTF-8" standalone="no"?>
<!DOCTYPE svg PUBLIC "-//W3C//DTD SVG 1.1//EN"
 "http://www.w3.org/Graphics/SVG/1.1/DTD/svg11.dtd">
<!-- Generated by graphviz version 2.24.0 (20090616.2323)
 -->
<!-- Title: g Pages: 1 -->
<svg width="172pt" height="260pt"
 viewBox="0.00 0.00 172.00 260.00" xmlns="http://www.w3.org/2000/svg" xmlns:xlink="http://www.w3.org/1999/xlink">
<g id="graph1" class="graph" transform="scale(1 1) rotate(0) translate(4 256)">
<title>g</title>
<polygon fill="white" stroke="white" points="-4,5 -4,-256 169,-256 169,5 -4,5"/>
<!-- d7e33069 -->
<g id="node2" class="node"><title>d7e33069</title>
<ellipse fill="none" stroke="black" cx="80" cy="-234" rx="47.8011" ry="18"/>
<text text-anchor="middle" x="80" y="-229.4" font-family="Times New Roman,serif" font-size="14.00">xsl:stream</text>
</g>
<!-- d7e33070 -->
<g id="node4" class="node"><title>d7e33070</title>
<ellipse fill="none" stroke="black" cx="80" cy="-180" rx="61.8872" ry="18"/>
<text text-anchor="middle" x="80" y="-175.4" font-family="Times New Roman,serif" font-size="14.00">child::account</text>
</g>
<!-- d7e33069&#45;&gt;d7e33070 -->
<g id="edge16" class="edge"><title>d7e33069&#45;&gt;d7e33070</title>
<path fill="none" stroke="red" d="M80,-215.718C80,-213.343 80,-210.867 80,-208.375"/>
<polygon fill="red" stroke="red" points="83.5001,-208.263 80,-198.263 76.5001,-208.263 83.5001,-208.263"/>
</g>
<!-- d7e33071 -->
<g id="node6" class="node"><title>d7e33071</title>
<ellipse fill="none" stroke="black" cx="80" cy="-126" rx="73.7902" ry="18"/>
<text text-anchor="middle" x="80" y="-121.4" font-family="Times New Roman,serif" font-size="14.00">child::transaction</text>
</g>
<!-- d7e33070&#45;&gt;d7e33071 -->
<g id="edge14" class="edge"><title>d7e33070&#45;&gt;d7e33071</title>
<path fill="none" stroke="red" d="M80,-161.718C80,-159.343 80,-156.867 80,-154.375"/>
<polygon fill="red" stroke="red" points="83.5001,-154.263 80,-144.263 76.5001,-154.263 83.5001,-154.263"/>
</g>
<!-- d7e33072 -->
<g id="node8" class="node"><title>d7e33072</title>
<ellipse fill="none" stroke="black" cx="80" cy="-72" rx="27" ry="18"/>
<text text-anchor="middle" x="80" y="-67.4" font-family="Times New Roman,serif" font-size="14.00">path</text>
</g>
<!-- d7e33071&#45;&gt;d7e33072 -->
<g id="edge12" class="edge"><title>d7e33071&#45;&gt;d7e33072</title>
<path fill="none" stroke="red" d="M80,-107.718C80,-105.343 80,-102.867 80,-100.375"/>
<polygon fill="red" stroke="red" points="83.5001,-100.263 80,-90.2631 76.5001,-100.263 83.5001,-100.263"/>
</g>
<!-- d7e33073 -->
<g id="node10" class="node"><title>d7e33073</title>
<ellipse fill="none" stroke="black" cx="35" cy="-18" rx="34.8827" ry="18"/>
<text text-anchor="middle" x="35" y="-13.4" font-family="Times New Roman,serif" font-size="14.00">@date</text>
</g>
<!-- d7e33072&#45;&gt;d7e33073 -->
<g id="edge8" class="edge"><title>d7e33072&#45;&gt;d7e33073</title>
<path fill="none" stroke="red" d="M66.7419,-56.0903C63.242,-51.8903 59.3809,-47.2571 55.5925,-42.711"/>
<polygon fill="red" stroke="red" points="58.0361,-40.1761 48.9455,-34.7346 52.6586,-44.6575 58.0361,-40.1761"/>
</g>
<!-- d7e33074 -->
<g id="node12" class="node"><title>d7e33074</title>
<ellipse fill="none" stroke="black" cx="126" cy="-18" rx="38.2368" ry="18"/>
<text text-anchor="middle" x="126" y="-13.4" font-family="Times New Roman,serif" font-size="14.00">@value</text>
</g>
<!-- d7e33072&#45;&gt;d7e33074 -->
<g id="edge10" class="edge"><title>d7e33072&#45;&gt;d7e33074</title>
<path fill="none" stroke="red" d="M93.5527,-56.0903C97.2199,-51.7853 101.275,-47.0251 105.24,-42.3702"/>
<polygon fill="red" stroke="red" points="107.924,-44.6167 111.745,-34.7346 102.596,-40.0774 107.924,-44.6167"/>
</g>
</g>
</svg>
