<?xml version="1.0" encoding="UTF-8" standalone="no"?>
<!DOCTYPE svg PUBLIC "-//W3C//DTD SVG 1.1//EN"
 "http://www.w3.org/Graphics/SVG/1.1/DTD/svg11.dtd">
<!-- Generated by graphviz version 2.24.0 (20090616.2323)
 -->
<!-- Title: g Pages: 1 -->
<svg width="922pt" height="476pt"
 viewBox="0.00 0.00 922.00 476.00" xmlns="http://www.w3.org/2000/svg" xmlns:xlink="http://www.w3.org/1999/xlink">
<g id="graph1" class="graph" transform="scale(1 1) rotate(0) translate(4 472)">
<title>g</title>
<polygon fill="white" stroke="white" points="-4,5 -4,-472 919,-472 919,5 -4,5"/>
<!-- d7e33207 -->
<g id="node2" class="node"><title>d7e33207</title>
<ellipse fill="none" stroke="black" cx="334" cy="-450" rx="47.8011" ry="18"/>
<text text-anchor="middle" x="334" y="-445.4" font-family="Times New Roman,serif" font-size="14.00">xsl:stream</text>
</g>
<!-- d7e33208 -->
<g id="node4" class="node"><title>d7e33208</title>
<ellipse fill="none" stroke="black" cx="334" cy="-396" rx="53.838" ry="18"/>
<text text-anchor="middle" x="334" y="-391.4" font-family="Times New Roman,serif" font-size="14.00">xsl:for&#45;each</text>
</g>
<!-- d7e33207&#45;&gt;d7e33208 -->
<g id="edge85" class="edge"><title>d7e33207&#45;&gt;d7e33208</title>
<path fill="none" stroke="black" d="M334,-431.718C334,-429.343 334,-426.867 334,-424.375"/>
<polygon fill="black" stroke="black" points="337.5,-424.263 334,-414.263 330.5,-424.263 337.5,-424.263"/>
</g>
<!-- d7e33209 -->
<g id="node6" class="node"><title>d7e33209</title>
<ellipse fill="none" stroke="black" cx="263" cy="-342" rx="27" ry="18"/>
<text text-anchor="middle" x="263" y="-337.4" font-family="Times New Roman,serif" font-size="14.00">path</text>
</g>
<!-- d7e33208&#45;&gt;d7e33209 -->
<g id="edge81" class="edge"><title>d7e33208&#45;&gt;d7e33209</title>
<path fill="none" stroke="black" d="M312.312,-379.505C305.16,-374.065 297.122,-367.952 289.644,-362.264"/>
<polygon fill="black" stroke="black" points="291.288,-359.117 281.209,-355.849 287.05,-364.689 291.288,-359.117"/>
</g>
<!-- d7e33212 -->
<g id="node14" class="node"><title>d7e33212</title>
<ellipse fill="none" stroke="black" cx="406" cy="-342" rx="45.1145" ry="18"/>
<text text-anchor="middle" x="406" y="-337.4" font-family="Times New Roman,serif" font-size="14.00">sequence</text>
</g>
<!-- d7e33208&#45;&gt;d7e33212 -->
<g id="edge83" class="edge"><title>d7e33208&#45;&gt;d7e33212</title>
<path fill="none" stroke="black" d="M355.994,-379.505C362.391,-374.707 369.487,-369.385 376.276,-364.293"/>
<polygon fill="black" stroke="black" points="378.735,-366.824 384.635,-358.024 374.535,-361.224 378.735,-366.824"/>
</g>
<!-- d7e33210 -->
<g id="node8" class="node"><title>d7e33210</title>
<ellipse fill="none" stroke="black" cx="109" cy="-288" rx="61.8872" ry="18"/>
<text text-anchor="middle" x="109" y="-283.4" font-family="Times New Roman,serif" font-size="14.00">child::account</text>
</g>
<!-- d7e33209&#45;&gt;d7e33210 -->
<g id="edge7" class="edge"><title>d7e33209&#45;&gt;d7e33210</title>
<path fill="none" stroke="black" d="M238.938,-333.563C217.465,-326.033 185.347,-314.771 158.417,-305.328"/>
<polygon fill="black" stroke="black" points="159.354,-301.948 148.759,-301.941 157.037,-308.553 159.354,-301.948"/>
</g>
<!-- d7e33211 -->
<g id="node10" class="node"><title>d7e33211</title>
<ellipse fill="none" stroke="black" cx="263" cy="-288" rx="73.7902" ry="18"/>
<text text-anchor="middle" x="263" y="-283.4" font-family="Times New Roman,serif" font-size="14.00">child::transaction</text>
</g>
<!-- d7e33209&#45;&gt;d7e33211 -->
<g id="edge9" class="edge"><title>d7e33209&#45;&gt;d7e33211</title>
<path fill="none" stroke="black" d="M263,-323.718C263,-321.343 263,-318.867 263,-316.375"/>
<polygon fill="black" stroke="black" points="266.5,-316.263 263,-306.263 259.5,-316.263 266.5,-316.263"/>
</g>
<!-- d7e33213 -->
<g id="node16" class="node"><title>d7e33213</title>
<ellipse fill="none" stroke="black" cx="406" cy="-288" rx="50.9823" ry="18"/>
<text text-anchor="middle" x="406" y="-283.4" font-family="Times New Roman,serif" font-size="14.00">$branch :=</text>
</g>
<!-- d7e33212&#45;&gt;d7e33213 -->
<g id="edge77" class="edge"><title>d7e33212&#45;&gt;d7e33213</title>
<path fill="none" stroke="black" d="M406,-323.718C406,-321.343 406,-318.867 406,-316.375"/>
<polygon fill="black" stroke="black" points="409.5,-316.263 406,-306.263 402.5,-316.263 409.5,-316.263"/>
</g>
<!-- d7e33224 -->
<g id="node48" class="node"><title>d7e33224</title>
<ellipse fill="none" stroke="black" cx="534" cy="-288" rx="53.1641" ry="18"/>
<text text-anchor="middle" x="534" y="-283.4" font-family="Times New Roman,serif" font-size="14.00">xsl:copy&#45;of</text>
</g>
<!-- d7e33212&#45;&gt;d7e33224 -->
<g id="edge79" class="edge"><title>d7e33212&#45;&gt;d7e33224</title>
<path fill="none" stroke="black" d="M436.985,-328.928C453.216,-322.081 473.349,-313.587 491.06,-306.115"/>
<polygon fill="black" stroke="black" points="492.757,-309.198 500.61,-302.087 490.036,-302.749 492.757,-309.198"/>
</g>
<!-- d7e33214 -->
<g id="node18" class="node"><title>d7e33214</title>
<ellipse fill="none" stroke="black" cx="394" cy="-234" rx="27.0036" ry="18"/>
<text text-anchor="middle" x="394" y="-229.4" font-family="Times New Roman,serif" font-size="14.00">filter</text>
</g>
<!-- d7e33213&#45;&gt;d7e33214 -->
<g id="edge41" class="edge"><title>d7e33213&#45;&gt;d7e33214</title>
<path fill="none" stroke="black" d="M402.004,-270.019C401.423,-267.405 400.814,-264.664 400.202,-261.91"/>
<polygon fill="black" stroke="black" points="403.605,-261.089 398.019,-252.087 396.772,-262.608 403.605,-261.089"/>
</g>
<!-- d7e33215 -->
<g id="node20" class="node"><title>d7e33215</title>
<ellipse fill="none" stroke="black" cx="195" cy="-180" rx="27" ry="18"/>
<text text-anchor="middle" x="195" y="-175.4" font-family="Times New Roman,serif" font-size="14.00">path</text>
</g>
<!-- d7e33214&#45;&gt;d7e33215 -->
<g id="edge37" class="edge"><title>d7e33214&#45;&gt;d7e33215</title>
<path fill="none" stroke="black" d="M368.797,-227.161C333.679,-217.632 269.876,-200.318 230.115,-189.529"/>
<polygon fill="black" stroke="black" points="230.88,-186.11 220.312,-186.869 229.047,-192.865 230.88,-186.11"/>
</g>
<!-- d7e33219 -->
<g id="node31" class="node"><title>d7e33219</title>
<ellipse fill="none" stroke="black" cx="394" cy="-180" rx="27" ry="18"/>
<text text-anchor="middle" x="394" y="-175.4" font-family="Times New Roman,serif" font-size="14.00">=</text>
</g>
<!-- d7e33214&#45;&gt;d7e33219 -->
<g id="edge39" class="edge"><title>d7e33214&#45;&gt;d7e33219</title>
<path fill="none" stroke="black" d="M394,-215.718C394,-213.343 394,-210.867 394,-208.375"/>
<polygon fill="black" stroke="black" points="397.5,-208.263 394,-198.263 390.5,-208.263 397.5,-208.263"/>
</g>
<!-- d7e33216 -->
<g id="node22" class="node"><title>d7e33216</title>
<ellipse fill="none" stroke="black" cx="64" cy="-126" rx="31.0281" ry="18"/>
<text text-anchor="middle" x="64" y="-121.4" font-family="Times New Roman,serif" font-size="14.00">doc()</text>
</g>
<!-- d7e33215&#45;&gt;d7e33216 -->
<g id="edge20" class="edge"><title>d7e33215&#45;&gt;d7e33216</title>
<path fill="none" stroke="black" d="M171.31,-170.973C152.873,-163.864 126.693,-153.589 104,-144 101.948,-143.133 99.8431,-142.229 97.7236,-141.308"/>
<polygon fill="black" stroke="black" points="99.0222,-138.056 88.4602,-137.222 96.197,-144.46 99.0222,-138.056"/>
</g>
<!-- d7e33218 -->
<g id="node27" class="node"><title>d7e33218</title>
<ellipse fill="none" stroke="black" cx="195" cy="-126" rx="82.0108" ry="18"/>
<text text-anchor="middle" x="195" y="-121.4" font-family="Times New Roman,serif" font-size="14.00">descendant::branch</text>
</g>
<!-- d7e33215&#45;&gt;d7e33218 -->
<g id="edge22" class="edge"><title>d7e33215&#45;&gt;d7e33218</title>
<path fill="none" stroke="black" d="M195,-161.718C195,-159.343 195,-156.867 195,-154.375"/>
<polygon fill="black" stroke="black" points="198.5,-154.263 195,-144.263 191.5,-154.263 198.5,-154.263"/>
</g>
<!-- d7e33217 -->
<g id="node24" class="node"><title>d7e33217</title>
<ellipse fill="none" stroke="black" cx="64" cy="-72" rx="63.8995" ry="18"/>
<text text-anchor="middle" x="64" y="-67.4" font-family="Times New Roman,serif" font-size="14.00">&#39;branches.xml&#39;</text>
</g>
<!-- d7e33216&#45;&gt;d7e33217 -->
<g id="edge17" class="edge"><title>d7e33216&#45;&gt;d7e33217</title>
<path fill="none" stroke="black" d="M64,-107.718C64,-105.343 64,-102.867 64,-100.375"/>
<polygon fill="black" stroke="black" points="67.5001,-100.263 64,-90.2631 60.5001,-100.263 67.5001,-100.263"/>
</g>
<!-- d7e33220 -->
<g id="node33" class="node"><title>d7e33220</title>
<ellipse fill="none" stroke="black" cx="346" cy="-126" rx="51.1517" ry="18"/>
<text text-anchor="middle" x="346" y="-121.4" font-family="Times New Roman,serif" font-size="14.00">child::code</text>
</g>
<!-- d7e33219&#45;&gt;d7e33220 -->
<g id="edge33" class="edge"><title>d7e33219&#45;&gt;d7e33220</title>
<path fill="none" stroke="black" d="M380.116,-164.381C376.356,-160.151 372.19,-155.464 368.098,-150.861"/>
<polygon fill="black" stroke="black" points="370.627,-148.437 361.367,-143.288 365.395,-153.087 370.627,-148.437"/>
</g>
<!-- d7e33221 -->
<g id="node35" class="node"><title>d7e33221</title>
<ellipse fill="none" stroke="black" cx="442" cy="-126" rx="27" ry="18"/>
<text text-anchor="middle" x="442" y="-121.4" font-family="Times New Roman,serif" font-size="14.00">path</text>
</g>
<!-- d7e33219&#45;&gt;d7e33221 -->
<g id="edge35" class="edge"><title>d7e33219&#45;&gt;d7e33221</title>
<path fill="none" stroke="black" d="M407.884,-164.381C412.026,-159.72 416.661,-154.506 421.147,-149.459"/>
<polygon fill="black" stroke="black" points="423.954,-151.57 427.981,-141.771 418.722,-146.92 423.954,-151.57"/>
</g>
<!-- d7e33222 -->
<g id="node37" class="node"><title>d7e33222</title>
<ellipse fill="none" stroke="black" cx="323" cy="-72" rx="42.9325" ry="18"/>
<text text-anchor="middle" x="323" y="-67.4" font-family="Times New Roman,serif" font-size="14.00">current()</text>
</g>
<!-- d7e33221&#45;&gt;d7e33222 -->
<g id="edge29" class="edge"><title>d7e33221&#45;&gt;d7e33222</title>
<path fill="none" stroke="black" d="M420.391,-114.957C415.671,-112.612 410.686,-110.186 406,-108 392.006,-101.472 376.519,-94.6492 362.75,-88.72"/>
<polygon fill="black" stroke="black" points="364.102,-85.4915 353.532,-84.7726 361.347,-91.9264 364.102,-85.4915"/>
</g>
<!-- d7e33223 -->
<g id="node39" class="node"><title>d7e33223</title>
<ellipse fill="none" stroke="black" cx="442" cy="-72" rx="57.8626" ry="18"/>
<text text-anchor="middle" x="442" y="-67.4" font-family="Times New Roman,serif" font-size="14.00">child::branch</text>
</g>
<!-- d7e33221&#45;&gt;d7e33223 -->
<g id="edge31" class="edge"><title>d7e33221&#45;&gt;d7e33223</title>
<path fill="none" stroke="black" d="M442,-107.718C442,-105.343 442,-102.867 442,-100.375"/>
<polygon fill="black" stroke="black" points="445.5,-100.263 442,-90.2631 438.5,-100.263 445.5,-100.263"/>
</g>
<!-- d7e33225 -->
<g id="node50" class="node"><title>d7e33225</title>
<ellipse fill="none" stroke="black" cx="558" cy="-234" rx="27.0036" ry="18"/>
<text text-anchor="middle" x="558" y="-229.4" font-family="Times New Roman,serif" font-size="14.00">filter</text>
</g>
<!-- d7e33224&#45;&gt;d7e33225 -->
<g id="edge75" class="edge"><title>d7e33224&#45;&gt;d7e33225</title>
<path fill="none" stroke="black" d="M541.992,-270.019C543.328,-267.012 544.739,-263.837 546.148,-260.668"/>
<polygon fill="black" stroke="black" points="549.424,-261.913 550.288,-251.353 543.028,-259.07 549.424,-261.913"/>
</g>
<!-- d7e33226 -->
<g id="node52" class="node"><title>d7e33226</title>
<ellipse fill="none" stroke="black" cx="558" cy="-180" rx="27" ry="18"/>
<text text-anchor="middle" x="558" y="-175.4" font-family="Times New Roman,serif" font-size="14.00">.</text>
</g>
<!-- d7e33225&#45;&gt;d7e33226 -->
<g id="edge71" class="edge"><title>d7e33225&#45;&gt;d7e33226</title>
<path fill="none" stroke="black" d="M558,-215.718C558,-213.343 558,-210.867 558,-208.375"/>
<polygon fill="black" stroke="black" points="561.5,-208.263 558,-198.263 554.5,-208.263 561.5,-208.263"/>
</g>
<!-- d7e33227 -->
<g id="node54" class="node"><title>d7e33227</title>
<ellipse fill="none" stroke="black" cx="637" cy="-180" rx="27" ry="18"/>
<text text-anchor="middle" x="637" y="-175.4" font-family="Times New Roman,serif" font-size="14.00">and</text>
</g>
<!-- d7e33225&#45;&gt;d7e33227 -->
<g id="edge73" class="edge"><title>d7e33225&#45;&gt;d7e33227</title>
<path fill="none" stroke="black" d="M577.124,-220.928C586.924,-214.229 599.03,-205.954 609.786,-198.602"/>
<polygon fill="black" stroke="black" points="611.772,-201.484 618.052,-192.952 607.822,-195.705 611.772,-201.484"/>
</g>
<!-- d7e33228 -->
<g id="node56" class="node"><title>d7e33228</title>
<ellipse fill="none" stroke="black" cx="637" cy="-126" rx="27" ry="18"/>
<text text-anchor="middle" x="637" y="-121.4" font-family="Times New Roman,serif" font-size="14.00">gt</text>
</g>
<!-- d7e33227&#45;&gt;d7e33228 -->
<g id="edge67" class="edge"><title>d7e33227&#45;&gt;d7e33228</title>
<path fill="none" stroke="black" d="M637,-161.718C637,-159.343 637,-156.867 637,-154.375"/>
<polygon fill="black" stroke="black" points="640.5,-154.263 637,-144.263 633.5,-154.263 640.5,-154.263"/>
</g>
<!-- d7e33231 -->
<g id="node64" class="node"><title>d7e33231</title>
<ellipse fill="none" stroke="black" cx="781" cy="-126" rx="27" ry="18"/>
<text text-anchor="middle" x="781" y="-121.4" font-family="Times New Roman,serif" font-size="14.00">eq</text>
</g>
<!-- d7e33227&#45;&gt;d7e33231 -->
<g id="edge69" class="edge"><title>d7e33227&#45;&gt;d7e33231</title>
<path fill="none" stroke="black" d="M660.779,-171.083C684.437,-162.211 720.951,-148.518 747.532,-138.55"/>
<polygon fill="black" stroke="black" points="749.052,-141.719 757.186,-134.93 746.594,-135.164 749.052,-141.719"/>
</g>
<!-- d7e33229 -->
<g id="node58" class="node"><title>d7e33229</title>
<ellipse fill="none" stroke="black" cx="578" cy="-72" rx="59.8749" ry="18"/>
<text text-anchor="middle" x="578" y="-67.4" font-family="Times New Roman,serif" font-size="14.00">child::amount</text>
</g>
<!-- d7e33228&#45;&gt;d7e33229 -->
<g id="edge50" class="edge"><title>d7e33228&#45;&gt;d7e33229</title>
<path fill="none" stroke="black" d="M620.878,-111.244C615.811,-106.607 610.077,-101.358 604.488,-96.2431"/>
<polygon fill="black" stroke="black" points="606.773,-93.5902 597.033,-89.4204 602.047,-98.7539 606.773,-93.5902"/>
</g>
<!-- d7e33230 -->
<g id="node60" class="node"><title>d7e33230</title>
<ellipse fill="none" stroke="black" cx="696" cy="-72" rx="40.2492" ry="18"/>
<text text-anchor="middle" x="696" y="-67.4" font-family="Times New Roman,serif" font-size="14.00">1000.00</text>
</g>
<!-- d7e33228&#45;&gt;d7e33230 -->
<g id="edge52" class="edge"><title>d7e33228&#45;&gt;d7e33230</title>
<path fill="none" stroke="black" d="M653.122,-111.244C658.592,-106.238 664.84,-100.52 670.843,-95.0254"/>
<polygon fill="black" stroke="black" points="673.224,-97.5902 678.238,-88.2567 668.498,-92.4264 673.224,-97.5902"/>
</g>
<!-- d7e33232 -->
<g id="node66" class="node"><title>d7e33232</title>
<ellipse fill="none" stroke="black" cx="781" cy="-72" rx="27" ry="18"/>
<text text-anchor="middle" x="781" y="-67.4" font-family="Times New Roman,serif" font-size="14.00">path</text>
</g>
<!-- d7e33231&#45;&gt;d7e33232 -->
<g id="edge63" class="edge"><title>d7e33231&#45;&gt;d7e33232</title>
<path fill="none" stroke="black" d="M781,-107.718C781,-105.343 781,-102.867 781,-100.375"/>
<polygon fill="black" stroke="black" points="784.5,-100.263 781,-90.2631 777.5,-100.263 784.5,-100.263"/>
</g>
<!-- d7e33235 -->
<g id="node74" class="node"><title>d7e33235</title>
<ellipse fill="none" stroke="black" cx="870" cy="-72" rx="43.7767" ry="18"/>
<text text-anchor="middle" x="870" y="-67.4" font-family="Times New Roman,serif" font-size="14.00">&#39;Skipton&#39;</text>
</g>
<!-- d7e33231&#45;&gt;d7e33235 -->
<g id="edge65" class="edge"><title>d7e33231&#45;&gt;d7e33235</title>
<path fill="none" stroke="black" d="M801.195,-113.747C811.576,-107.448 824.502,-99.6053 836.339,-92.4236"/>
<polygon fill="black" stroke="black" points="838.384,-95.2766 845.118,-87.097 834.753,-89.292 838.384,-95.2766"/>
</g>
<!-- d7e33233 -->
<g id="node68" class="node"><title>d7e33233</title>
<ellipse fill="none" stroke="black" cx="725" cy="-18" rx="40.92" ry="18"/>
<text text-anchor="middle" x="725" y="-13.4" font-family="Times New Roman,serif" font-size="14.00">$branch</text>
</g>
<!-- d7e33232&#45;&gt;d7e33233 -->
<g id="edge58" class="edge"><title>d7e33232&#45;&gt;d7e33233</title>
<path fill="none" stroke="black" d="M765.401,-56.958C760.417,-52.1521 754.776,-46.7127 749.324,-41.4557"/>
<polygon fill="black" stroke="black" points="751.715,-38.8987 742.087,-34.4768 746.856,-43.9377 751.715,-38.8987"/>
</g>
<!-- d7e33234 -->
<g id="node70" class="node"><title>d7e33234</title>
<ellipse fill="none" stroke="black" cx="836" cy="-18" rx="51.8257" ry="18"/>
<text text-anchor="middle" x="836" y="-13.4" font-family="Times New Roman,serif" font-size="14.00">child::name</text>
</g>
<!-- d7e33232&#45;&gt;d7e33234 -->
<g id="edge60" class="edge"><title>d7e33232&#45;&gt;d7e33234</title>
<path fill="none" stroke="black" d="M796.321,-56.958C800.933,-52.429 806.119,-47.3375 811.183,-42.3663"/>
<polygon fill="black" stroke="black" points="813.749,-44.7518 818.432,-35.2483 808.845,-39.7568 813.749,-44.7518"/>
</g>
</g>
</svg>
