<?xml version="1.0" encoding="UTF-8" standalone="no"?>
<!DOCTYPE svg PUBLIC "-//W3C//DTD SVG 1.1//EN"
 "http://www.w3.org/Graphics/SVG/1.1/DTD/svg11.dtd">
<!-- Generated by graphviz version 2.24.0 (20090616.2323)
 -->
<!-- Title: g Pages: 1 -->
<svg width="672pt" height="368pt"
 viewBox="0.00 0.00 672.00 368.00" xmlns="http://www.w3.org/2000/svg" xmlns:xlink="http://www.w3.org/1999/xlink">
<g id="graph1" class="graph" transform="scale(1 1) rotate(0) translate(4 364)">
<title>g</title>
<polygon fill="white" stroke="white" points="-4,5 -4,-364 669,-364 669,5 -4,5"/>
<!-- T -->
<g id="node2" class="node"><title>T</title>
<ellipse fill="none" stroke="black" cx="57" cy="-342" rx="53.838" ry="18"/>
<text text-anchor="middle" x="57" y="-337.4" font-family="Times New Roman,serif" font-size="14.00">xsl:template</text>
</g>
<!-- d7e32590 -->
<g id="node4" class="node"><title>d7e32590</title>
<ellipse fill="none" stroke="black" cx="57" cy="-288" rx="34.2118" ry="18"/>
<text text-anchor="middle" x="57" y="-283.4" font-family="Times New Roman,serif" font-size="14.00">&lt;out&gt;</text>
</g>
<!-- T&#45;&gt;d7e32590 -->
<g id="edge13" class="edge"><title>T&#45;&gt;d7e32590</title>
<path fill="none" stroke="black" d="M57,-323.718C57,-321.343 57,-318.867 57,-316.375"/>
<polygon fill="black" stroke="black" points="60.5001,-316.263 57,-306.263 53.5001,-316.263 60.5001,-316.263"/>
</g>
<!-- dot -->
<g id="node10" class="node"><title>dot</title>
<ellipse fill="none" stroke="black" cx="57" cy="-126" rx="27" ry="18"/>
<text text-anchor="middle" x="57" y="-121.4" font-family="Times New Roman,serif" font-size="14.00">.</text>
</g>
<!-- T&#45;&gt;dot -->
<g id="edge68" class="edge"><title>T&#45;&gt;dot</title>
<path fill="none" stroke="red" d="M81.0492,-325.671C87.9092,-320.082 94.8977,-313.362 100,-306 127.955,-265.664 121.186,-247.043 123,-198 123.591,-182.011 131.167,-175.758 123,-162 116.06,-150.31 103.842,-142.173 91.7899,-136.633"/>
<polygon fill="red" stroke="red" points="92.8438,-133.283 82.2635,-132.729 90.1891,-139.76 92.8438,-133.283"/>
</g>
<!-- d7e32591 -->
<g id="node6" class="node"><title>d7e32591</title>
<ellipse fill="none" stroke="black" cx="57" cy="-234" rx="53.1641" ry="18"/>
<text text-anchor="middle" x="57" y="-229.4" font-family="Times New Roman,serif" font-size="14.00">xsl:value&#45;of</text>
</g>
<!-- d7e32590&#45;&gt;d7e32591 -->
<g id="edge11" class="edge"><title>d7e32590&#45;&gt;d7e32591</title>
<path fill="none" stroke="black" d="M57,-269.718C57,-267.343 57,-264.867 57,-262.375"/>
<polygon fill="black" stroke="black" points="60.5001,-262.263 57,-252.263 53.5001,-262.263 60.5001,-262.263"/>
</g>
<!-- FC1 -->
<g id="node8" class="node"><title>FC1</title>
<ellipse fill="none" stroke="black" cx="57" cy="-180" rx="57.1889" ry="18"/>
<text text-anchor="middle" x="57" y="-175.4" font-family="Times New Roman,serif" font-size="14.00">f:div&#45;depth()</text>
</g>
<!-- d7e32591&#45;&gt;FC1 -->
<g id="edge9" class="edge"><title>d7e32591&#45;&gt;FC1</title>
<path fill="none" stroke="black" d="M57,-215.718C57,-213.343 57,-210.867 57,-208.375"/>
<polygon fill="black" stroke="black" points="60.5001,-208.263 57,-198.263 53.5001,-208.263 60.5001,-208.263"/>
</g>
<!-- FC1&#45;&gt;dot -->
<g id="edge7" class="edge"><title>FC1&#45;&gt;dot</title>
<path fill="none" stroke="black" d="M57,-161.718C57,-159.343 57,-156.867 57,-154.375"/>
<polygon fill="black" stroke="black" points="60.5001,-154.263 57,-144.263 53.5001,-154.263 60.5001,-154.263"/>
</g>
<!-- par -->
<g id="node18" class="node"><title>par</title>
<ellipse fill="none" stroke="black" cx="354" cy="-288" rx="61.8872" ry="18"/>
<text text-anchor="middle" x="354" y="-283.4" font-family="Times New Roman,serif" font-size="14.00">xsl:param this</text>
</g>
<!-- dot&#45;&gt;par -->
<g id="edge70" class="edge"><title>dot&#45;&gt;par</title>
<path fill="none" stroke="red" d="M82.915,-131.879C103.825,-137.426 133.38,-147.136 156,-162 201.981,-192.215 194.419,-222.719 241,-252 256.811,-261.939 275.603,-269.354 293.28,-274.786"/>
<polygon fill="red" stroke="red" points="292.38,-278.17 302.959,-277.604 294.336,-271.449 292.38,-278.17"/>
</g>
<!-- F -->
<g id="node16" class="node"><title>F</title>
<ellipse fill="none" stroke="black" cx="407" cy="-342" rx="96.7701" ry="18"/>
<text text-anchor="middle" x="407" y="-337.4" font-family="Times New Roman,serif" font-size="14.00">xsl:function f:div&#45;depth</text>
</g>
<!-- F&#45;&gt;FC1 -->
<g id="edge64" class="edge"><title>F&#45;&gt;FC1</title>
<path fill="none" stroke="red" d="M347.711,-327.724C326.897,-321.947 303.582,-314.595 283,-306 263.67,-297.928 152.534,-234.731 93.633,-201.021"/>
<polygon fill="red" stroke="red" points="95.0675,-197.81 84.6503,-195.877 91.5889,-203.884 95.0675,-197.81"/>
</g>
<!-- F&#45;&gt;par -->
<g id="edge60" class="edge"><title>F&#45;&gt;par</title>
<path fill="none" stroke="black" d="M389.352,-324.019C385.755,-320.354 381.913,-316.439 378.135,-312.59"/>
<polygon fill="black" stroke="black" points="380.534,-310.038 371.032,-305.353 375.538,-314.941 380.534,-310.038"/>
</g>
<!-- d7e32596 -->
<g id="node20" class="node"><title>d7e32596</title>
<ellipse fill="none" stroke="black" cx="461" cy="-288" rx="27" ry="18"/>
<text text-anchor="middle" x="461" y="-283.4" font-family="Times New Roman,serif" font-size="14.00">if</text>
</g>
<!-- F&#45;&gt;d7e32596 -->
<g id="edge62" class="edge"><title>F&#45;&gt;d7e32596</title>
<path fill="none" stroke="black" d="M424.981,-324.019C429.305,-319.695 433.978,-315.022 438.48,-310.52"/>
<polygon fill="black" stroke="black" points="441.207,-312.743 445.803,-303.197 436.257,-307.793 441.207,-312.743"/>
</g>
<!-- FC2 -->
<g id="node42" class="node"><title>FC2</title>
<ellipse fill="none" stroke="black" cx="568" cy="-126" rx="71.949" ry="18"/>
<text text-anchor="middle" x="568" y="-121.4" font-family="Times New Roman,serif" font-size="14.00">f:nesting&#45;depth()</text>
</g>
<!-- F&#45;&gt;FC2 -->
<g id="edge66" class="edge"><title>F&#45;&gt;FC2</title>
<path fill="none" stroke="red" d="M465.871,-327.575C503.62,-314.763 549.144,-291.712 569,-252 584.373,-221.254 580.497,-180.778 575.21,-154.102"/>
<polygon fill="red" stroke="red" points="578.616,-153.292 573.072,-144.264 571.775,-154.779 578.616,-153.292"/>
</g>
<!-- vr1 -->
<g id="node28" class="node"><title>vr1</title>
<ellipse fill="none" stroke="black" cx="289" cy="-72" rx="28.1745" ry="18"/>
<text text-anchor="middle" x="289" y="-67.4" font-family="Times New Roman,serif" font-size="14.00">$this</text>
</g>
<!-- par&#45;&gt;vr1 -->
<g id="edge78" class="edge"><title>par&#45;&gt;vr1</title>
<path fill="none" stroke="red" d="M314.542,-273.949C302.285,-268.359 289.301,-261.064 279,-252 257.529,-233.107 252.111,-225.426 244,-198 232.656,-159.642 226.672,-144.052 244,-108 247.397,-100.933 252.932,-94.8183 258.977,-89.736"/>
<polygon fill="red" stroke="red" points="261.469,-92.2428 267.384,-83.4527 257.278,-86.6358 261.469,-92.2428"/>
</g>
<!-- vr2 -->
<g id="node46" class="node"><title>vr2</title>
<ellipse fill="none" stroke="black" cx="520" cy="-18" rx="28.1745" ry="18"/>
<text text-anchor="middle" x="520" y="-13.4" font-family="Times New Roman,serif" font-size="14.00">$this</text>
</g>
<!-- par&#45;&gt;vr2 -->
<g id="edge80" class="edge"><title>par&#45;&gt;vr2</title>
<path fill="none" stroke="red" d="M331.398,-270.871C325.584,-265.431 319.881,-258.992 316,-252 284.867,-195.906 279.358,-166.361 306,-108 310.966,-97.1212 317.214,-98.113 326,-90 343.092,-74.2172 343.501,-65.0019 364,-54 401.126,-34.0737 448.985,-25.123 481.848,-21.1365"/>
<polygon fill="red" stroke="red" points="482.407,-24.5959 491.958,-20.009 481.631,-17.639 482.407,-24.5959"/>
</g>
<!-- d7e32597 -->
<g id="node22" class="node"><title>d7e32597</title>
<ellipse fill="none" stroke="black" cx="387" cy="-234" rx="27" ry="18"/>
<text text-anchor="middle" x="387" y="-229.4" font-family="Times New Roman,serif" font-size="14.00">test</text>
</g>
<!-- d7e32596&#45;&gt;d7e32597 -->
<g id="edge54" class="edge"><title>d7e32596&#45;&gt;d7e32597</title>
<path fill="none" stroke="black" d="M442.708,-274.652C433.902,-268.226 423.179,-260.401 413.5,-253.338"/>
<polygon fill="black" stroke="black" points="415.479,-250.449 405.338,-247.382 411.353,-256.104 415.479,-250.449"/>
</g>
<!-- d7e32602 -->
<g id="node36" class="node"><title>d7e32602</title>
<ellipse fill="none" stroke="black" cx="461" cy="-234" rx="27" ry="18"/>
<text text-anchor="middle" x="461" y="-229.4" font-family="Times New Roman,serif" font-size="14.00">then</text>
</g>
<!-- d7e32596&#45;&gt;d7e32602 -->
<g id="edge56" class="edge"><title>d7e32596&#45;&gt;d7e32602</title>
<path fill="none" stroke="black" d="M461,-269.718C461,-267.343 461,-264.867 461,-262.375"/>
<polygon fill="black" stroke="black" points="464.5,-262.263 461,-252.263 457.5,-262.263 464.5,-262.263"/>
</g>
<!-- d7e32609 -->
<g id="node56" class="node"><title>d7e32609</title>
<ellipse fill="none" stroke="black" cx="533" cy="-234" rx="27" ry="18"/>
<text text-anchor="middle" x="533" y="-229.4" font-family="Times New Roman,serif" font-size="14.00">else</text>
</g>
<!-- d7e32596&#45;&gt;d7e32609 -->
<g id="edge58" class="edge"><title>d7e32596&#45;&gt;d7e32609</title>
<path fill="none" stroke="black" d="M479.169,-274.374C487.461,-268.154 497.443,-260.668 506.547,-253.84"/>
<polygon fill="black" stroke="black" points="508.687,-256.61 514.587,-247.81 504.487,-251.01 508.687,-256.61"/>
</g>
<!-- d7e32598 -->
<g id="node24" class="node"><title>d7e32598</title>
<ellipse fill="none" stroke="black" cx="370" cy="-180" rx="45.7889" ry="18"/>
<text text-anchor="middle" x="370" y="-175.4" font-family="Times New Roman,serif" font-size="14.00">boolean()</text>
</g>
<!-- d7e32597&#45;&gt;d7e32598 -->
<g id="edge29" class="edge"><title>d7e32597&#45;&gt;d7e32598</title>
<path fill="none" stroke="black" d="M381.434,-216.318C380.562,-213.55 379.644,-210.633 378.722,-207.704"/>
<polygon fill="black" stroke="black" points="381.979,-206.394 375.637,-197.906 375.302,-208.496 381.979,-206.394"/>
</g>
<!-- path1 -->
<g id="node26" class="node"><title>path1</title>
<ellipse fill="none" stroke="black" cx="370" cy="-126" rx="27" ry="18"/>
<text text-anchor="middle" x="370" y="-121.4" font-family="Times New Roman,serif" font-size="14.00">path</text>
</g>
<!-- d7e32598&#45;&gt;path1 -->
<g id="edge27" class="edge"><title>d7e32598&#45;&gt;path1</title>
<path fill="none" stroke="black" d="M370,-161.718C370,-159.343 370,-156.867 370,-154.375"/>
<polygon fill="black" stroke="black" points="373.5,-154.263 370,-144.263 366.5,-154.263 373.5,-154.263"/>
</g>
<!-- path1&#45;&gt;vr1 -->
<g id="edge23" class="edge"><title>path1&#45;&gt;vr1</title>
<path fill="none" stroke="black" d="M350.804,-113.203C340.763,-106.509 328.28,-98.1869 317.167,-90.778"/>
<polygon fill="black" stroke="black" points="318.883,-87.7154 308.621,-85.0805 315,-93.5397 318.883,-87.7154"/>
</g>
<!-- parent1 -->
<g id="node30" class="node"><title>parent1</title>
<ellipse fill="none" stroke="black" cx="422" cy="-72" rx="49.1393" ry="18"/>
<text text-anchor="middle" x="422" y="-67.4" font-family="Times New Roman,serif" font-size="14.00">parent::div</text>
</g>
<!-- path1&#45;&gt;parent1 -->
<g id="edge25" class="edge"><title>path1&#45;&gt;parent1</title>
<path fill="none" stroke="black" d="M379.867,-109.21C383.689,-104.821 388.19,-100.011 392.822,-95.348"/>
<polygon fill="black" stroke="black" points="395.412,-97.7114 400.129,-88.2247 390.525,-92.6992 395.412,-97.7114"/>
</g>
<!-- vr1&#45;&gt;parent1 -->
<g id="edge82" class="edge"><title>vr1&#45;&gt;parent1</title>
<path fill="none" stroke="red" d="M317.055,-72C332.299,-72 347.544,-72 362.789,-72"/>
<polygon fill="red" stroke="red" points="362.807,-75.5001 372.807,-72 362.807,-68.5001 362.807,-75.5001"/>
</g>
<!-- parent1&#45;&gt;path1 -->
<g id="edge74" class="edge"><title>parent1&#45;&gt;path1</title>
<path fill="none" stroke="red" d="M411.177,-89.8804C406.774,-94.8713 401.574,-100.333 396.35,-105.464"/>
<polygon fill="red" stroke="red" points="393.618,-103.231 388.77,-112.652 398.435,-108.311 393.618,-103.231"/>
</g>
<!-- d7e32603 -->
<g id="node38" class="node"><title>d7e32603</title>
<ellipse fill="none" stroke="black" cx="461" cy="-180" rx="27" ry="18"/>
<text text-anchor="middle" x="461" y="-175.4" font-family="Times New Roman,serif" font-size="14.00">plus</text>
</g>
<!-- d7e32602&#45;&gt;d7e32603 -->
<g id="edge48" class="edge"><title>d7e32602&#45;&gt;d7e32603</title>
<path fill="none" stroke="black" d="M461,-215.718C461,-213.343 461,-210.867 461,-208.375"/>
<polygon fill="black" stroke="black" points="464.5,-208.263 461,-198.263 457.5,-208.263 464.5,-208.263"/>
</g>
<!-- d7e32604 -->
<g id="node40" class="node"><title>d7e32604</title>
<ellipse fill="none" stroke="black" cx="451" cy="-126" rx="27" ry="18"/>
<text text-anchor="middle" x="451" y="-121.4" font-family="Times New Roman,serif" font-size="14.00">1</text>
</g>
<!-- d7e32603&#45;&gt;d7e32604 -->
<g id="edge44" class="edge"><title>d7e32603&#45;&gt;d7e32604</title>
<path fill="none" stroke="black" d="M457.67,-162.019C457.203,-159.495 456.714,-156.853 456.221,-154.195"/>
<polygon fill="black" stroke="black" points="459.612,-153.282 454.349,-144.087 452.729,-154.557 459.612,-153.282"/>
</g>
<!-- d7e32603&#45;&gt;FC2 -->
<g id="edge46" class="edge"><title>d7e32603&#45;&gt;FC2</title>
<path fill="none" stroke="black" d="M482.653,-169.072C495.296,-162.692 511.669,-154.429 526.688,-146.849"/>
<polygon fill="black" stroke="black" points="528.469,-149.871 535.819,-142.241 525.315,-143.622 528.469,-149.871"/>
</g>
<!-- path2 -->
<g id="node44" class="node"><title>path2</title>
<ellipse fill="none" stroke="black" cx="568" cy="-72" rx="27" ry="18"/>
<text text-anchor="middle" x="568" y="-67.4" font-family="Times New Roman,serif" font-size="14.00">path</text>
</g>
<!-- FC2&#45;&gt;path2 -->
<g id="edge42" class="edge"><title>FC2&#45;&gt;path2</title>
<path fill="none" stroke="black" d="M568,-107.718C568,-105.343 568,-102.867 568,-100.375"/>
<polygon fill="black" stroke="black" points="571.5,-100.263 568,-90.2631 564.5,-100.263 571.5,-100.263"/>
</g>
<!-- path2&#45;&gt;par -->
<g id="edge72" class="edge"><title>path2&#45;&gt;par</title>
<path fill="none" stroke="red" d="M542.3,-77.8157C524.804,-81.6372 501.083,-86.5496 480,-90 447.739,-95.2796 359.469,-87.5065 334,-108 302.149,-133.629 306.7,-157.97 315,-198 319.609,-220.229 329.994,-243.713 338.889,-261.116"/>
<polygon fill="red" stroke="red" points="335.872,-262.899 343.632,-270.113 342.065,-259.635 335.872,-262.899"/>
</g>
<!-- path2&#45;&gt;vr2 -->
<g id="edge38" class="edge"><title>path2&#45;&gt;vr2</title>
<path fill="none" stroke="black" d="M554.116,-56.381C549.974,-51.7203 545.339,-46.5059 540.853,-41.4593"/>
<polygon fill="black" stroke="black" points="543.278,-38.9198 534.019,-33.771 538.046,-43.5704 543.278,-38.9198"/>
</g>
<!-- parent2 -->
<g id="node48" class="node"><title>parent2</title>
<ellipse fill="none" stroke="black" cx="615" cy="-18" rx="49.1393" ry="18"/>
<text text-anchor="middle" x="615" y="-13.4" font-family="Times New Roman,serif" font-size="14.00">parent::div</text>
</g>
<!-- path2&#45;&gt;parent2 -->
<g id="edge40" class="edge"><title>path2&#45;&gt;parent2</title>
<path fill="none" stroke="black" d="M576.543,-54.9141C579.742,-50.8199 583.485,-46.3726 587.372,-42.0292"/>
<polygon fill="black" stroke="black" points="590.198,-44.1301 594.44,-34.4217 585.07,-39.3654 590.198,-44.1301"/>
</g>
<!-- vr2&#45;&gt;parent2 -->
<g id="edge84" class="edge"><title>vr2&#45;&gt;parent2</title>
<path fill="none" stroke="red" d="M548.203,-18C550.698,-18 553.193,-18 555.688,-18"/>
<polygon fill="red" stroke="red" points="555.946,-21.5001 565.946,-18 555.946,-14.5001 555.946,-21.5001"/>
</g>
<!-- parent2&#45;&gt;path2 -->
<g id="edge76" class="edge"><title>parent2&#45;&gt;path2</title>
<path fill="none" stroke="red" d="M605.968,-35.7097C602.157,-40.5458 597.629,-45.8347 593.023,-50.8421"/>
<polygon fill="red" stroke="red" points="590.2,-48.7297 585.812,-58.3735 595.256,-53.5705 590.2,-48.7297"/>
</g>
<!-- d7e32610 -->
<g id="node58" class="node"><title>d7e32610</title>
<ellipse fill="none" stroke="black" cx="533" cy="-180" rx="27" ry="18"/>
<text text-anchor="middle" x="533" y="-175.4" font-family="Times New Roman,serif" font-size="14.00">0</text>
</g>
<!-- d7e32609&#45;&gt;d7e32610 -->
<g id="edge52" class="edge"><title>d7e32609&#45;&gt;d7e32610</title>
<path fill="none" stroke="black" d="M533,-215.718C533,-213.343 533,-210.867 533,-208.375"/>
<polygon fill="black" stroke="black" points="536.5,-208.263 533,-198.263 529.5,-208.263 536.5,-208.263"/>
</g>
</g>
</svg>
