<?xml version="1.0" encoding="UTF-8" standalone="no"?>
<!DOCTYPE svg PUBLIC "-//W3C//DTD SVG 1.1//EN"
 "http://www.w3.org/Graphics/SVG/1.1/DTD/svg11.dtd">
<!-- Generated by graphviz version 2.24.0 (20090616.2323)
 -->
<!-- Title: g Pages: 1 -->
<svg width="780pt" height="422pt"
 viewBox="0.00 0.00 780.00 422.00" xmlns="http://www.w3.org/2000/svg" xmlns:xlink="http://www.w3.org/1999/xlink">
<g id="graph1" class="graph" transform="scale(1 1) rotate(0) translate(4 418)">
<title>g</title>
<polygon fill="white" stroke="white" points="-4,5 -4,-418 777,-418 777,5 -4,5"/>
<!-- T -->
<g id="node2" class="node"><title>T</title>
<ellipse fill="none" stroke="black" cx="54" cy="-396" rx="53.838" ry="18"/>
<text text-anchor="middle" x="54" y="-391.4" font-family="Times New Roman,serif" font-size="14.00">xsl:template</text>
</g>
<!-- d7e32514 -->
<g id="node4" class="node"><title>d7e32514</title>
<ellipse fill="none" stroke="black" cx="54" cy="-342" rx="27" ry="18"/>
<text text-anchor="middle" x="54" y="-337.4" font-family="Times New Roman,serif" font-size="14.00">&lt;e&gt;</text>
</g>
<!-- T&#45;&gt;d7e32514 -->
<g id="edge13" class="edge"><title>T&#45;&gt;d7e32514</title>
<path fill="none" stroke="black" d="M54,-377.718C54,-375.343 54,-372.867 54,-370.375"/>
<polygon fill="black" stroke="black" points="57.5001,-370.263 54,-360.263 50.5001,-370.263 57.5001,-370.263"/>
</g>
<!-- dot -->
<g id="node10" class="node"><title>dot</title>
<ellipse fill="none" stroke="black" cx="54" cy="-180" rx="27" ry="18"/>
<text text-anchor="middle" x="54" y="-175.4" font-family="Times New Roman,serif" font-size="14.00">.</text>
</g>
<!-- T&#45;&gt;dot -->
<g id="edge81" class="edge"><title>T&#45;&gt;dot</title>
<path fill="none" stroke="red" d="M73.2275,-379.138C79.0616,-373.43 85.1924,-366.776 90,-360 105.413,-338.275 110.074,-331.969 116,-306 124.954,-266.763 127.86,-249.792 106,-216 100.744,-207.875 92.9451,-201.078 84.9763,-195.658"/>
<polygon fill="red" stroke="red" points="86.717,-192.619 76.375,-190.318 83.0251,-198.566 86.717,-192.619"/>
</g>
<!-- d7e32515 -->
<g id="node6" class="node"><title>d7e32515</title>
<ellipse fill="none" stroke="black" cx="54" cy="-288" rx="53.1641" ry="18"/>
<text text-anchor="middle" x="54" y="-283.4" font-family="Times New Roman,serif" font-size="14.00">xsl:value&#45;of</text>
</g>
<!-- d7e32514&#45;&gt;d7e32515 -->
<g id="edge11" class="edge"><title>d7e32514&#45;&gt;d7e32515</title>
<path fill="none" stroke="black" d="M54,-323.718C54,-321.343 54,-318.867 54,-316.375"/>
<polygon fill="black" stroke="black" points="57.5001,-316.263 54,-306.263 50.5001,-316.263 57.5001,-316.263"/>
</g>
<!-- FC -->
<g id="node8" class="node"><title>FC</title>
<ellipse fill="none" stroke="black" cx="54" cy="-234" rx="43.1021" ry="18"/>
<text text-anchor="middle" x="54" y="-229.4" font-family="Times New Roman,serif" font-size="14.00">f:salary()</text>
</g>
<!-- d7e32515&#45;&gt;FC -->
<g id="edge9" class="edge"><title>d7e32515&#45;&gt;FC</title>
<path fill="none" stroke="black" d="M54,-269.718C54,-267.343 54,-264.867 54,-262.375"/>
<polygon fill="black" stroke="black" points="57.5001,-262.263 54,-252.263 50.5001,-262.263 57.5001,-262.263"/>
</g>
<!-- FC&#45;&gt;dot -->
<g id="edge7" class="edge"><title>FC&#45;&gt;dot</title>
<path fill="none" stroke="black" d="M54,-215.718C54,-213.343 54,-210.867 54,-208.375"/>
<polygon fill="black" stroke="black" points="57.5001,-208.263 54,-198.263 50.5001,-208.263 57.5001,-208.263"/>
</g>
<!-- par -->
<g id="node18" class="node"><title>par</title>
<ellipse fill="none" stroke="black" cx="350" cy="-342" rx="65.0696" ry="18"/>
<text text-anchor="middle" x="350" y="-337.4" font-family="Times New Roman,serif" font-size="14.00">xsl:param emp</text>
</g>
<!-- dot&#45;&gt;par -->
<g id="edge83" class="edge"><title>dot&#45;&gt;par</title>
<path fill="none" stroke="red" d="M79.2133,-186.665C98.9039,-192.557 126.447,-202.346 148,-216 196.86,-246.954 192.471,-276.129 242,-306 256.716,-314.876 273.895,-321.875 290.166,-327.249"/>
<polygon fill="red" stroke="red" points="289.561,-330.727 300.15,-330.387 291.66,-324.05 289.561,-330.727"/>
</g>
<!-- F -->
<g id="node16" class="node"><title>F</title>
<ellipse fill="none" stroke="black" cx="405" cy="-396" rx="83.1817" ry="18"/>
<text text-anchor="middle" x="405" y="-391.4" font-family="Times New Roman,serif" font-size="14.00">xsl:function f:salary</text>
</g>
<!-- F&#45;&gt;FC -->
<g id="edge79" class="edge"><title>F&#45;&gt;FC</title>
<path fill="none" stroke="red" d="M347.152,-383.071C324.539,-377.191 298.649,-369.421 276,-360 266.246,-355.943 147.822,-288.005 88.051,-253.615"/>
<polygon fill="red" stroke="red" points="89.7454,-250.552 79.3324,-248.597 86.2537,-256.619 89.7454,-250.552"/>
</g>
<!-- F&#45;&gt;par -->
<g id="edge75" class="edge"><title>F&#45;&gt;par</title>
<path fill="none" stroke="black" d="M386.991,-378.318C383.249,-374.645 379.24,-370.708 375.292,-366.832"/>
<polygon fill="black" stroke="black" points="377.449,-364.045 367.862,-359.537 372.545,-369.04 377.449,-364.045"/>
</g>
<!-- d7e32520 -->
<g id="node20" class="node"><title>d7e32520</title>
<ellipse fill="none" stroke="black" cx="460" cy="-342" rx="27" ry="18"/>
<text text-anchor="middle" x="460" y="-337.4" font-family="Times New Roman,serif" font-size="14.00">if</text>
</g>
<!-- F&#45;&gt;d7e32520 -->
<g id="edge77" class="edge"><title>F&#45;&gt;d7e32520</title>
<path fill="none" stroke="black" d="M423.009,-378.318C427.614,-373.797 432.624,-368.878 437.427,-364.162"/>
<polygon fill="black" stroke="black" points="440.032,-366.51 444.716,-357.006 435.128,-361.515 440.032,-366.51"/>
</g>
<!-- v1 -->
<g id="node28" class="node"><title>v1</title>
<ellipse fill="none" stroke="black" cx="177" cy="-126" rx="31.0281" ry="18"/>
<text text-anchor="middle" x="177" y="-121.4" font-family="Times New Roman,serif" font-size="14.00">$emp</text>
</g>
<!-- par&#45;&gt;v1 -->
<g id="edge85" class="edge"><title>par&#45;&gt;v1</title>
<path fill="none" stroke="red" d="M313.736,-326.84C302.586,-321.223 290.705,-314.193 281,-306 231.509,-264.217 200.297,-192.557 186.058,-153.443"/>
<polygon fill="red" stroke="red" points="189.277,-152.045 182.647,-143.781 182.676,-154.376 189.277,-152.045"/>
</g>
<!-- v2 -->
<g id="node44" class="node"><title>v2</title>
<ellipse fill="none" stroke="black" cx="417" cy="-72" rx="31.0281" ry="18"/>
<text text-anchor="middle" x="417" y="-67.4" font-family="Times New Roman,serif" font-size="14.00">$emp</text>
</g>
<!-- par&#45;&gt;v2 -->
<g id="edge87" class="edge"><title>par&#45;&gt;v2</title>
<path fill="none" stroke="red" d="M329.612,-324.682C323.993,-319.15 318.275,-312.709 314,-306 264.655,-228.562 197.543,-179.626 255,-108 269.906,-89.418 333.151,-79.821 376.066,-75.3546"/>
<polygon fill="red" stroke="red" points="376.619,-78.8171 386.228,-74.3523 375.932,-71.8509 376.619,-78.8171"/>
</g>
<!-- v3 -->
<g id="node68" class="node"><title>v3</title>
<ellipse fill="none" stroke="black" cx="561" cy="-126" rx="31.0281" ry="18"/>
<text text-anchor="middle" x="561" y="-121.4" font-family="Times New Roman,serif" font-size="14.00">$emp</text>
</g>
<!-- par&#45;&gt;v3 -->
<g id="edge89" class="edge"><title>par&#45;&gt;v3</title>
<path fill="none" stroke="red" d="M341.154,-323.979C321.795,-283.31 279.097,-186.077 301,-162 315.27,-146.314 470.111,-147.652 491,-144 501.678,-142.133 513.121,-139.476 523.597,-136.776"/>
<polygon fill="red" stroke="red" points="524.524,-140.151 533.287,-134.197 522.724,-133.386 524.524,-140.151"/>
</g>
<!-- d7e32521 -->
<g id="node22" class="node"><title>d7e32521</title>
<ellipse fill="none" stroke="black" cx="388" cy="-288" rx="27" ry="18"/>
<text text-anchor="middle" x="388" y="-283.4" font-family="Times New Roman,serif" font-size="14.00">test</text>
</g>
<!-- d7e32520&#45;&gt;d7e32521 -->
<g id="edge69" class="edge"><title>d7e32520&#45;&gt;d7e32521</title>
<path fill="none" stroke="black" d="M441.831,-328.374C433.539,-322.154 423.557,-314.668 414.453,-307.84"/>
<polygon fill="black" stroke="black" points="416.513,-305.01 406.413,-301.81 412.313,-310.61 416.513,-305.01"/>
</g>
<!-- d7e32526 -->
<g id="node36" class="node"><title>d7e32526</title>
<ellipse fill="none" stroke="black" cx="460" cy="-288" rx="27" ry="18"/>
<text text-anchor="middle" x="460" y="-283.4" font-family="Times New Roman,serif" font-size="14.00">then</text>
</g>
<!-- d7e32520&#45;&gt;d7e32526 -->
<g id="edge71" class="edge"><title>d7e32520&#45;&gt;d7e32526</title>
<path fill="none" stroke="black" d="M460,-323.718C460,-321.343 460,-318.867 460,-316.375"/>
<polygon fill="black" stroke="black" points="463.5,-316.263 460,-306.263 456.5,-316.263 463.5,-316.263"/>
</g>
<!-- d7e32535 -->
<g id="node62" class="node"><title>d7e32535</title>
<ellipse fill="none" stroke="black" cx="553" cy="-288" rx="27" ry="18"/>
<text text-anchor="middle" x="553" y="-283.4" font-family="Times New Roman,serif" font-size="14.00">else</text>
</g>
<!-- d7e32520&#45;&gt;d7e32535 -->
<g id="edge73" class="edge"><title>d7e32520&#45;&gt;d7e32535</title>
<path fill="none" stroke="black" d="M480.64,-330.016C493.282,-322.675 509.664,-313.163 523.643,-305.046"/>
<polygon fill="black" stroke="black" points="525.528,-307.999 532.418,-299.951 522.013,-301.945 525.528,-307.999"/>
</g>
<!-- d7e32522 -->
<g id="node24" class="node"><title>d7e32522</title>
<ellipse fill="none" stroke="black" cx="366" cy="-234" rx="45.7889" ry="18"/>
<text text-anchor="middle" x="366" y="-229.4" font-family="Times New Roman,serif" font-size="14.00">boolean()</text>
</g>
<!-- d7e32521&#45;&gt;d7e32522 -->
<g id="edge29" class="edge"><title>d7e32521&#45;&gt;d7e32522</title>
<path fill="none" stroke="black" d="M380.918,-270.617C379.712,-267.657 378.434,-264.52 377.153,-261.376"/>
<polygon fill="black" stroke="black" points="380.386,-260.034 373.372,-252.094 373.903,-262.675 380.386,-260.034"/>
</g>
<!-- p1 -->
<g id="node26" class="node"><title>p1</title>
<ellipse fill="none" stroke="black" cx="337" cy="-180" rx="27" ry="18"/>
<text text-anchor="middle" x="337" y="-175.4" font-family="Times New Roman,serif" font-size="14.00">path</text>
</g>
<!-- d7e32522&#45;&gt;p1 -->
<g id="edge27" class="edge"><title>d7e32522&#45;&gt;p1</title>
<path fill="none" stroke="black" d="M356.504,-216.318C354.749,-213.05 352.883,-209.574 351.026,-206.118"/>
<polygon fill="black" stroke="black" points="354.035,-204.323 346.221,-197.169 347.868,-207.635 354.035,-204.323"/>
</g>
<!-- p1&#45;&gt;v1 -->
<g id="edge23" class="edge"><title>p1&#45;&gt;v1</title>
<path fill="none" stroke="black" d="M312.699,-171.799C286.388,-162.918 244.118,-148.652 213.744,-138.401"/>
<polygon fill="black" stroke="black" points="214.534,-134.974 203.94,-135.092 212.295,-141.606 214.534,-134.974"/>
</g>
<!-- c1 -->
<g id="node30" class="node"><title>c1</title>
<ellipse fill="none" stroke="black" cx="337" cy="-126" rx="73.1194" ry="18"/>
<text text-anchor="middle" x="337" y="-121.4" font-family="Times New Roman,serif" font-size="14.00">child::hourly&#45;pay</text>
</g>
<!-- p1&#45;&gt;c1 -->
<g id="edge25" class="edge"><title>p1&#45;&gt;c1</title>
<path fill="none" stroke="black" d="M330.621,-162.318C330.412,-159.788 330.291,-157.134 330.259,-154.461"/>
<polygon fill="black" stroke="black" points="333.763,-154.381 330.573,-144.277 326.766,-154.164 333.763,-154.381"/>
</g>
<!-- v1&#45;&gt;c1 -->
<g id="edge91" class="edge"><title>v1&#45;&gt;c1</title>
<path fill="none" stroke="red" d="M208.25,-126C223.301,-126 238.352,-126 253.404,-126"/>
<polygon fill="red" stroke="red" points="253.824,-129.5 263.824,-126 253.824,-122.5 253.824,-129.5"/>
</g>
<!-- c1&#45;&gt;p1 -->
<g id="edge97" class="edge"><title>c1&#45;&gt;p1</title>
<path fill="none" stroke="red" d="M343.427,-144.277C343.622,-146.826 343.729,-149.491 343.747,-152.167"/>
<polygon fill="red" stroke="red" points="340.244,-152.198 343.379,-162.318 347.239,-152.452 340.244,-152.198"/>
</g>
<!-- d7e32527 -->
<g id="node38" class="node"><title>d7e32527</title>
<ellipse fill="none" stroke="black" cx="460" cy="-234" rx="30.1869" ry="18"/>
<text text-anchor="middle" x="460" y="-229.4" font-family="Times New Roman,serif" font-size="14.00">times</text>
</g>
<!-- d7e32526&#45;&gt;d7e32527 -->
<g id="edge54" class="edge"><title>d7e32526&#45;&gt;d7e32527</title>
<path fill="none" stroke="black" d="M460,-269.718C460,-267.343 460,-264.867 460,-262.375"/>
<polygon fill="black" stroke="black" points="463.5,-262.263 460,-252.263 456.5,-262.263 463.5,-262.263"/>
</g>
<!-- d7e32528 -->
<g id="node40" class="node"><title>d7e32528</title>
<ellipse fill="none" stroke="black" cx="443" cy="-180" rx="27" ry="18"/>
<text text-anchor="middle" x="443" y="-175.4" font-family="Times New Roman,serif" font-size="14.00">data</text>
</g>
<!-- d7e32527&#45;&gt;d7e32528 -->
<g id="edge50" class="edge"><title>d7e32527&#45;&gt;d7e32528</title>
<path fill="none" stroke="black" d="M454.339,-216.019C453.47,-213.257 452.556,-210.354 451.64,-207.444"/>
<polygon fill="black" stroke="black" points="454.92,-206.206 448.578,-197.719 448.243,-208.309 454.92,-206.206"/>
</g>
<!-- d7e32534 -->
<g id="node57" class="node"><title>d7e32534</title>
<ellipse fill="none" stroke="black" cx="517" cy="-180" rx="28.8453" ry="18"/>
<text text-anchor="middle" x="517" y="-175.4" font-family="Times New Roman,serif" font-size="14.00">1924</text>
</g>
<!-- d7e32527&#45;&gt;d7e32534 -->
<g id="edge52" class="edge"><title>d7e32527&#45;&gt;d7e32534</title>
<path fill="none" stroke="black" d="M476.181,-218.67C481.522,-213.611 487.576,-207.875 493.357,-202.399"/>
<polygon fill="black" stroke="black" points="496.123,-204.6 500.975,-195.181 491.309,-199.518 496.123,-204.6"/>
</g>
<!-- p2 -->
<g id="node42" class="node"><title>p2</title>
<ellipse fill="none" stroke="black" cx="455" cy="-126" rx="27" ry="18"/>
<text text-anchor="middle" x="455" y="-121.4" font-family="Times New Roman,serif" font-size="14.00">path</text>
</g>
<!-- d7e32528&#45;&gt;p2 -->
<g id="edge47" class="edge"><title>d7e32528&#45;&gt;p2</title>
<path fill="none" stroke="black" d="M446.996,-162.019C447.577,-159.405 448.186,-156.664 448.798,-153.91"/>
<polygon fill="black" stroke="black" points="452.228,-154.608 450.981,-144.087 445.395,-153.089 452.228,-154.608"/>
</g>
<!-- p2&#45;&gt;v2 -->
<g id="edge43" class="edge"><title>p2&#45;&gt;v2</title>
<path fill="none" stroke="black" d="M443.392,-109.505C440.645,-105.601 437.653,-101.349 434.703,-97.1574"/>
<polygon fill="black" stroke="black" points="437.416,-94.9307 428.799,-88.7669 431.692,-98.9592 437.416,-94.9307"/>
</g>
<!-- p22 -->
<g id="node46" class="node"><title>p22</title>
<ellipse fill="none" stroke="black" cx="493" cy="-72" rx="27" ry="18"/>
<text text-anchor="middle" x="493" y="-67.4" font-family="Times New Roman,serif" font-size="14.00">path</text>
</g>
<!-- p2&#45;&gt;p22 -->
<g id="edge45" class="edge"><title>p2&#45;&gt;p22</title>
<path fill="none" stroke="black" d="M461.063,-108.318C463.786,-103.935 467.036,-99.1786 470.43,-94.5959"/>
<polygon fill="black" stroke="black" points="473.231,-96.695 476.61,-86.6532 467.706,-92.3964 473.231,-96.695"/>
</g>
<!-- c2 -->
<g id="node48" class="node"><title>c2</title>
<ellipse fill="none" stroke="black" cx="425" cy="-18" rx="73.1194" ry="18"/>
<text text-anchor="middle" x="425" y="-13.4" font-family="Times New Roman,serif" font-size="14.00">child::hourly&#45;pay</text>
</g>
<!-- v2&#45;&gt;c2 -->
<g id="edge93" class="edge"><title>v2&#45;&gt;c2</title>
<path fill="none" stroke="red" d="M419.664,-54.0188C420.038,-51.4953 420.429,-48.853 420.823,-46.1953"/>
<polygon fill="red" stroke="red" points="424.317,-46.4918 422.32,-36.0868 417.393,-45.4659 424.317,-46.4918"/>
</g>
<!-- p22&#45;&gt;p2 -->
<g id="edge103" class="edge"><title>p22&#45;&gt;p2</title>
<path fill="none" stroke="red" d="M486.992,-89.5929C484.241,-94.0293 480.944,-98.853 477.503,-103.494"/>
<polygon fill="red" stroke="red" points="474.628,-101.49 471.241,-111.529 480.149,-105.794 474.628,-101.49"/>
</g>
<!-- p22&#45;&gt;c2 -->
<g id="edge39" class="edge"><title>p22&#45;&gt;c2</title>
<path fill="none" stroke="black" d="M475.488,-58.0937C469.209,-53.1074 461.94,-47.335 454.908,-41.7508"/>
<polygon fill="black" stroke="black" points="456.843,-38.8181 446.836,-35.3401 452.49,-44.2999 456.843,-38.8181"/>
</g>
<!-- p2dost -->
<g id="node50" class="node"><title>p2dost</title>
<ellipse fill="none" stroke="black" cx="620" cy="-18" rx="103.977" ry="18"/>
<text text-anchor="middle" x="620" y="-13.4" font-family="Times New Roman,serif" font-size="14.00">descendant&#45;or&#45;self::text()</text>
</g>
<!-- p22&#45;&gt;p2dost -->
<g id="edge41" class="edge"><title>p22&#45;&gt;p2dost</title>
<path fill="none" stroke="black" d="M514.009,-60.6798C528.239,-54.1748 547.594,-45.8115 565.901,-38.2146"/>
<polygon fill="black" stroke="black" points="567.433,-41.3693 575.347,-34.3257 564.768,-34.8965 567.433,-41.3693"/>
</g>
<!-- c2&#45;&gt;p2dost -->
<g id="edge99" class="edge"><title>c2&#45;&gt;p2dost</title>
<path fill="none" stroke="red" d="M498.125,-18C500.602,-18 503.079,-18 505.556,-18"/>
<polygon fill="red" stroke="red" points="505.74,-21.5001 515.74,-18 505.74,-14.5001 505.74,-21.5001"/>
</g>
<!-- p2dost&#45;&gt;p22 -->
<g id="edge101" class="edge"><title>p2dost&#45;&gt;p22</title>
<path fill="none" stroke="red" d="M586.062,-35.1224C567.675,-43.2462 545.108,-52.7537 526.743,-60.0803"/>
<polygon fill="red" stroke="red" points="525.321,-56.8788 517.298,-63.7986 527.885,-63.3923 525.321,-56.8788"/>
</g>
<!-- d7e32536 -->
<g id="node64" class="node"><title>d7e32536</title>
<ellipse fill="none" stroke="black" cx="574" cy="-234" rx="32.1994" ry="18"/>
<text text-anchor="middle" x="574" y="-229.4" font-family="Times New Roman,serif" font-size="14.00">data()</text>
</g>
<!-- d7e32535&#45;&gt;d7e32536 -->
<g id="edge67" class="edge"><title>d7e32535&#45;&gt;d7e32536</title>
<path fill="none" stroke="black" d="M559.876,-270.318C560.989,-267.458 562.163,-264.438 563.34,-261.412"/>
<polygon fill="black" stroke="black" points="566.674,-262.495 567.036,-251.906 560.15,-259.958 566.674,-262.495"/>
</g>
<!-- p3 -->
<g id="node66" class="node"><title>p3</title>
<ellipse fill="none" stroke="black" cx="591" cy="-180" rx="27" ry="18"/>
<text text-anchor="middle" x="591" y="-175.4" font-family="Times New Roman,serif" font-size="14.00">path</text>
</g>
<!-- d7e32536&#45;&gt;p3 -->
<g id="edge65" class="edge"><title>d7e32536&#45;&gt;p3</title>
<path fill="none" stroke="black" d="M579.661,-216.019C580.53,-213.257 581.444,-210.354 582.36,-207.444"/>
<polygon fill="black" stroke="black" points="585.757,-208.309 585.422,-197.719 579.08,-206.206 585.757,-208.309"/>
</g>
<!-- p3&#45;&gt;v3 -->
<g id="edge61" class="edge"><title>p3&#45;&gt;v3</title>
<path fill="none" stroke="black" d="M581.508,-162.914C579.593,-159.467 577.539,-155.769 575.497,-152.094"/>
<polygon fill="black" stroke="black" points="578.449,-150.202 570.533,-143.16 572.33,-153.601 578.449,-150.202"/>
</g>
<!-- c3 -->
<g id="node70" class="node"><title>c3</title>
<ellipse fill="none" stroke="black" cx="691" cy="-126" rx="81.1693" ry="18"/>
<text text-anchor="middle" x="691" y="-121.4" font-family="Times New Roman,serif" font-size="14.00">child::annual&#45;salary</text>
</g>
<!-- p3&#45;&gt;c3 -->
<g id="edge63" class="edge"><title>p3&#45;&gt;c3</title>
<path fill="none" stroke="black" d="M609.803,-166.652C619.994,-160.72 632.959,-153.597 645.548,-146.981"/>
<polygon fill="black" stroke="black" points="647.343,-149.993 654.604,-142.277 644.116,-143.78 647.343,-149.993"/>
</g>
<!-- v3&#45;&gt;c3 -->
<g id="edge95" class="edge"><title>v3&#45;&gt;c3</title>
<path fill="none" stroke="red" d="M592.23,-126C594.726,-126 597.222,-126 599.718,-126"/>
<polygon fill="red" stroke="red" points="599.978,-129.5 609.978,-126 599.978,-122.5 599.978,-129.5"/>
</g>
<!-- c3&#45;&gt;p3 -->
<g id="edge105" class="edge"><title>c3&#45;&gt;p3</title>
<path fill="none" stroke="red" d="M665.331,-143.288C652.417,-150.605 636.721,-159.019 623.035,-165.945"/>
<polygon fill="red" stroke="red" points="621.333,-162.882 613.939,-170.47 624.451,-169.149 621.333,-162.882"/>
</g>
</g>
</svg>
