<?xml version="1.0" encoding="UTF-8" standalone="no"?>
<!DOCTYPE svg PUBLIC "-//W3C//DTD SVG 1.1//EN"
 "http://www.w3.org/Graphics/SVG/1.1/DTD/svg11.dtd">
<!-- Generated by graphviz version 2.24.0 (20090616.2323)
 -->
<!-- Title: g Pages: 1 -->
<svg width="206pt" height="98pt"
 viewBox="0.00 0.00 206.00 98.00" xmlns="http://www.w3.org/2000/svg" xmlns:xlink="http://www.w3.org/1999/xlink">
<g id="graph1" class="graph" transform="scale(1 1) rotate(0) translate(4 94)">
<title>g</title>
<polygon fill="white" stroke="white" points="-4,5 -4,-94 203,-94 203,5 -4,5"/>
<!-- d7e5397 -->
<g id="node2" class="node"><title>d7e5397</title>
<polygon fill="none" stroke="black" points="54,-63 1.42109e-014,-63 0,-27 54,-27 54,-63"/>
<text text-anchor="middle" x="27" y="-40.4" font-family="Times New Roman,serif" font-size="14.00">A</text>
</g>
<!-- d7e5398 -->
<g id="node4" class="node"><title>d7e5398</title>
<polygon fill="none" stroke="black" points="126,-90 72,-90 72,-54 126,-54 126,-90"/>
<text text-anchor="middle" x="99" y="-67.4" font-family="Times New Roman,serif" font-size="14.00">B</text>
</g>
<!-- d7e5397&#45;&gt;d7e5398 -->
<g id="edge11" class="edge"><title>d7e5397&#45;&gt;d7e5398</title>
<path fill="none" stroke="black" d="M54.2201,-55.2075C56.8185,-56.182 59.4819,-57.1807 62.1516,-58.1818"/>
<polygon fill="black" stroke="black" points="61.1491,-61.5439 71.7414,-61.778 63.6071,-54.9896 61.1491,-61.5439"/>
</g>
<!-- d7e5400 -->
<g id="node9" class="node"><title>d7e5400</title>
<polygon fill="none" stroke="black" points="126,-36 72,-36 72,-1.06581e-014 126,-0 126,-36"/>
<text text-anchor="middle" x="99" y="-13.4" font-family="Times New Roman,serif" font-size="14.00">C</text>
</g>
<!-- d7e5397&#45;&gt;d7e5400 -->
<g id="edge13" class="edge"><title>d7e5397&#45;&gt;d7e5400</title>
<path fill="none" stroke="black" d="M54.2201,-34.7925C56.8185,-33.818 59.4819,-32.8193 62.1516,-31.8182"/>
<polygon fill="black" stroke="black" points="63.6071,-35.0104 71.7414,-28.222 61.1491,-28.4561 63.6071,-35.0104"/>
</g>
<!-- d7e5399 -->
<g id="node6" class="node"><title>d7e5399</title>
<polygon fill="none" stroke="black" points="198,-90 144,-90 144,-54 198,-54 198,-90"/>
<text text-anchor="middle" x="171" y="-67.4" font-family="Times New Roman,serif" font-size="14.00">D</text>
</g>
<!-- d7e5398&#45;&gt;d7e5399 -->
<g id="edge5" class="edge"><title>d7e5398&#45;&gt;d7e5399</title>
<path fill="none" stroke="black" d="M126.22,-72C128.639,-72 131.115,-72 133.599,-72"/>
<polygon fill="black" stroke="black" points="133.741,-75.5001 143.741,-72 133.741,-68.5001 133.741,-75.5001"/>
</g>
<!-- d7e5401 -->
<g id="node11" class="node"><title>d7e5401</title>
<polygon fill="none" stroke="black" points="198,-36 144,-36 144,-1.06581e-014 198,-0 198,-36"/>
<text text-anchor="middle" x="171" y="-13.4" font-family="Times New Roman,serif" font-size="14.00">E</text>
</g>
<!-- d7e5400&#45;&gt;d7e5401 -->
<g id="edge9" class="edge"><title>d7e5400&#45;&gt;d7e5401</title>
<path fill="none" stroke="black" d="M126.22,-18C128.639,-18 131.115,-18 133.599,-18"/>
<polygon fill="black" stroke="black" points="133.741,-21.5001 143.741,-18 133.741,-14.5001 133.741,-21.5001"/>
</g>
</g>
</svg>
