<?xml version="1.0" encoding="UTF-8" standalone="no"?>
<!DOCTYPE svg PUBLIC "-//W3C//DTD SVG 1.1//EN"
 "http://www.w3.org/Graphics/SVG/1.1/DTD/svg11.dtd">
<!-- Generated by graphviz version 2.24.0 (20090616.2323)
 -->
<!-- Title: g Pages: 1 -->
<svg width="453pt" height="260pt"
 viewBox="0.00 0.00 453.00 260.00" xmlns="http://www.w3.org/2000/svg" xmlns:xlink="http://www.w3.org/1999/xlink">
<g id="graph1" class="graph" transform="scale(1 1) rotate(0) translate(4 256)">
<title>g</title>
<polygon fill="white" stroke="white" points="-4,5 -4,-256 450,-256 450,5 -4,5"/>
<!-- A -->
<g id="node2" class="node"><title>A</title>
<ellipse fill="none" stroke="black" cx="183" cy="-234" rx="53.838" ry="18"/>
<text text-anchor="middle" x="183" y="-229.4" font-family="Times New Roman,serif" font-size="14.00">xsl:template</text>
</g>
<!-- B -->
<g id="node4" class="node"><title>B</title>
<ellipse fill="none" stroke="black" cx="183" cy="-180" rx="53.838" ry="18"/>
<text text-anchor="middle" x="183" y="-175.4" font-family="Times New Roman,serif" font-size="14.00">xsl:for&#45;each</text>
</g>
<!-- A&#45;&gt;B -->
<g id="edge25" class="edge"><title>A&#45;&gt;B</title>
<path fill="none" stroke="black" d="M176.596,-216.019C176.396,-213.495 176.282,-210.853 176.256,-208.195"/>
<polygon fill="black" stroke="black" points="179.758,-208.196 176.588,-198.087 172.761,-207.966 179.758,-208.196"/>
</g>
<!-- D -->
<g id="node8" class="node"><title>D</title>
<ellipse fill="none" stroke="black" cx="68" cy="-72" rx="67.9242" ry="18"/>
<text text-anchor="middle" x="68" y="-67.4" font-family="Times New Roman,serif" font-size="14.00">child::employee</text>
</g>
<!-- A&#45;&gt;D -->
<g id="edge27" class="edge"><title>A&#45;&gt;D</title>
<path fill="none" stroke="red" d="M225.802,-222.918C292.503,-203.691 408.973,-161.075 362,-108 354.754,-99.8129 227.358,-86.6135 142.665,-78.6761"/>
<polygon fill="red" stroke="red" points="142.84,-75.1774 132.559,-77.7349 142.191,-82.1473 142.84,-75.1774"/>
</g>
<!-- B&#45;&gt;A -->
<g id="edge41" class="edge"><title>B&#45;&gt;A</title>
<path fill="none" stroke="red" d="M189.412,-198.087C189.61,-200.614 189.721,-203.258 189.745,-205.916"/>
<polygon fill="red" stroke="red" points="186.244,-205.906 189.404,-216.019 193.24,-206.143 186.244,-205.906"/>
</g>
<!-- C -->
<g id="node6" class="node"><title>C</title>
<ellipse fill="none" stroke="black" cx="68" cy="-126" rx="27" ry="18"/>
<text text-anchor="middle" x="68" y="-121.4" font-family="Times New Roman,serif" font-size="14.00">sort</text>
</g>
<!-- B&#45;&gt;C -->
<g id="edge19" class="edge"><title>B&#45;&gt;C</title>
<path fill="none" stroke="black" d="M150.591,-165.549C136.258,-159.076 119.232,-151.276 104,-144 102.25,-143.164 100.457,-142.298 98.6498,-141.418"/>
<polygon fill="black" stroke="black" points="100.157,-138.259 89.6399,-136.978 97.0627,-144.538 100.157,-138.259"/>
</g>
<!-- E -->
<g id="node11" class="node"><title>E</title>
<ellipse fill="none" stroke="black" cx="183" cy="-126" rx="69.9366" ry="18"/>
<text text-anchor="middle" x="183" y="-121.4" font-family="Times New Roman,serif" font-size="14.00">attribute::empNr</text>
</g>
<!-- B&#45;&gt;E -->
<g id="edge21" class="edge"><title>B&#45;&gt;E</title>
<path fill="none" stroke="black" d="M183,-161.718C183,-159.343 183,-156.867 183,-154.375"/>
<polygon fill="black" stroke="black" points="186.5,-154.263 183,-144.263 179.5,-154.263 186.5,-154.263"/>
</g>
<!-- CC -->
<g id="node13" class="node"><title>CC</title>
<ellipse fill="none" stroke="black" cx="312" cy="-126" rx="40.92" ry="18"/>
<text text-anchor="middle" x="312" y="-121.4" font-family="Times New Roman,serif" font-size="14.00">copy&#45;of</text>
</g>
<!-- B&#45;&gt;CC -->
<g id="edge23" class="edge"><title>B&#45;&gt;CC</title>
<path fill="none" stroke="black" d="M212.81,-164.958C229.874,-157.464 251.46,-148.429 270.178,-140.948"/>
<polygon fill="black" stroke="black" points="271.655,-144.128 279.665,-137.194 269.079,-137.619 271.655,-144.128"/>
</g>
<!-- C&#45;&gt;D -->
<g id="edge6" class="edge"><title>C&#45;&gt;D</title>
<path fill="none" stroke="black" d="M61.6208,-108.318C61.4116,-105.788 61.291,-103.134 61.2588,-100.461"/>
<polygon fill="black" stroke="black" points="64.7628,-100.381 61.5734,-90.2772 57.7662,-100.164 64.7628,-100.381"/>
</g>
<!-- C&#45;&gt;E -->
<g id="edge31" class="edge"><title>C&#45;&gt;E</title>
<path fill="none" stroke="red" d="M95.4023,-126C97.8564,-126 100.31,-126 102.765,-126"/>
<polygon fill="red" stroke="red" points="102.853,-129.5 112.853,-126 102.853,-122.5 102.853,-129.5"/>
</g>
<!-- G -->
<g id="node17" class="node"><title>G</title>
<ellipse fill="none" stroke="black" cx="184" cy="-18" rx="27" ry="18"/>
<text text-anchor="middle" x="184" y="-13.4" font-family="Times New Roman,serif" font-size="14.00">.</text>
</g>
<!-- C&#45;&gt;G -->
<g id="edge33" class="edge"><title>C&#45;&gt;G</title>
<path fill="none" stroke="red" d="M89.6166,-114.973C94.3357,-112.627 99.3187,-110.196 104,-108 122.017,-99.5474 130.358,-103.478 145,-90 158.172,-77.8749 167.823,-60.2549 174.229,-45.4808"/>
<polygon fill="red" stroke="red" points="177.636,-46.3921 178.149,-35.8097 171.149,-43.7625 177.636,-46.3921"/>
</g>
<!-- D&#45;&gt;C -->
<g id="edge29" class="edge"><title>D&#45;&gt;C</title>
<path fill="none" stroke="red" d="M74.4266,-90.2772C74.6219,-92.826 74.7288,-95.4909 74.7471,-98.1668"/>
<polygon fill="red" stroke="red" points="71.2438,-98.1981 74.3792,-108.318 78.2392,-98.4517 71.2438,-98.1981"/>
</g>
<!-- CC&#45;&gt;B -->
<g id="edge39" class="edge"><title>CC&#45;&gt;B</title>
<path fill="none" stroke="red" d="M284.947,-139.827C268.975,-146.889 248.414,-155.544 229.909,-163.009"/>
<polygon fill="red" stroke="red" points="228.44,-159.827 220.454,-166.79 231.039,-166.327 228.44,-159.827"/>
</g>
<!-- F -->
<g id="node15" class="node"><title>F</title>
<ellipse fill="none" stroke="black" cx="312" cy="-72" rx="27" ry="18"/>
<text text-anchor="middle" x="312" y="-67.4" font-family="Times New Roman,serif" font-size="14.00">path</text>
</g>
<!-- CC&#45;&gt;F -->
<g id="edge17" class="edge"><title>CC&#45;&gt;F</title>
<path fill="none" stroke="black" d="M312,-107.718C312,-105.343 312,-102.867 312,-100.375"/>
<polygon fill="black" stroke="black" points="315.5,-100.263 312,-90.2631 308.5,-100.263 315.5,-100.263"/>
</g>
<!-- F&#45;&gt;G -->
<g id="edge13" class="edge"><title>F&#45;&gt;G</title>
<path fill="none" stroke="black" d="M287.927,-63.2629C269.222,-56.3103 242.725,-46.1027 220,-36 218.228,-35.2123 216.417,-34.3839 214.597,-33.5328"/>
<polygon fill="black" stroke="black" points="216.078,-30.3614 205.55,-29.1724 213.039,-36.6672 216.078,-30.3614"/>
</g>
<!-- H -->
<g id="node19" class="node"><title>H</title>
<ellipse fill="none" stroke="black" cx="337" cy="-18" rx="108.172" ry="18"/>
<text text-anchor="middle" x="337" y="-13.4" font-family="Times New Roman,serif" font-size="14.00">descendant&#45;or&#45;self::node()</text>
</g>
<!-- F&#45;&gt;H -->
<g id="edge15" class="edge"><title>F&#45;&gt;H</title>
<path fill="none" stroke="black" d="M313.921,-54.0188C315.027,-51.1348 316.318,-48.0957 317.724,-45.0556"/>
<polygon fill="black" stroke="black" points="320.867,-46.5957 322.215,-36.0868 314.608,-43.4618 320.867,-46.5957"/>
</g>
<!-- G&#45;&gt;H -->
<g id="edge35" class="edge"><title>G&#45;&gt;H</title>
<path fill="none" stroke="red" d="M211.193,-18C213.681,-18 216.169,-18 218.657,-18"/>
<polygon fill="red" stroke="red" points="218.885,-21.5001 228.885,-18 218.885,-14.5001 218.885,-21.5001"/>
</g>
<!-- H&#45;&gt;F -->
<g id="edge37" class="edge"><title>H&#45;&gt;F</title>
<path fill="none" stroke="red" d="M334.97,-36.2631C333.612,-39.7805 331.982,-43.5197 330.21,-47.2037"/>
<polygon fill="red" stroke="red" points="327.097,-45.6043 325.582,-56.0903 333.305,-48.8377 327.097,-45.6043"/>
</g>
</g>
</svg>
