<?xml version="1.0" encoding="UTF-8" standalone="no"?>
<!DOCTYPE svg PUBLIC "-//W3C//DTD SVG 1.1//EN"
 "http://www.w3.org/Graphics/SVG/1.1/DTD/svg11.dtd">
<!-- Generated by graphviz version 2.24.0 (20090616.2323)
 -->
<!-- Title: g Pages: 1 -->
<svg width="382pt" height="368pt"
 viewBox="0.00 0.00 382.00 368.00" xmlns="http://www.w3.org/2000/svg" xmlns:xlink="http://www.w3.org/1999/xlink">
<g id="graph1" class="graph" transform="scale(1 1) rotate(0) translate(4 364)">
<title>g</title>
<polygon fill="white" stroke="white" points="-4,5 -4,-364 379,-364 379,5 -4,5"/>
<!-- A -->
<g id="node2" class="node"><title>A</title>
<ellipse fill="none" stroke="black" cx="124" cy="-342" rx="53.838" ry="18"/>
<text text-anchor="middle" x="124" y="-337.4" font-family="Times New Roman,serif" font-size="14.00">xsl:template</text>
</g>
<!-- B -->
<g id="node4" class="node"><title>B</title>
<ellipse fill="none" stroke="black" cx="124" cy="-288" rx="53.838" ry="18"/>
<text text-anchor="middle" x="124" y="-283.4" font-family="Times New Roman,serif" font-size="14.00">xsl:for&#45;each</text>
</g>
<!-- A&#45;&gt;B -->
<g id="edge37" class="edge"><title>A&#45;&gt;B</title>
<path fill="none" stroke="black" d="M117.596,-324.019C117.396,-321.495 117.282,-318.853 117.256,-316.195"/>
<polygon fill="black" stroke="black" points="120.758,-316.196 117.588,-306.087 113.761,-315.966 120.758,-316.196"/>
</g>
<!-- D -->
<g id="node6" class="node"><title>D</title>
<ellipse fill="none" stroke="black" cx="68" cy="-234" rx="67.9242" ry="18"/>
<text text-anchor="middle" x="68" y="-229.4" font-family="Times New Roman,serif" font-size="14.00">child::employee</text>
</g>
<!-- A&#45;&gt;D -->
<g id="edge39" class="edge"><title>A&#45;&gt;D</title>
<path fill="none" stroke="red" d="M161.277,-328.948C171.41,-323.492 181.183,-316.024 187,-306 195.031,-292.161 196.536,-282.848 187,-270 183.059,-264.69 155.62,-256.214 128.084,-248.82"/>
<polygon fill="red" stroke="red" points="128.941,-245.426 118.379,-246.257 127.154,-252.194 128.941,-245.426"/>
</g>
<!-- B&#45;&gt;A -->
<g id="edge55" class="edge"><title>B&#45;&gt;A</title>
<path fill="none" stroke="red" d="M130.412,-306.087C130.61,-308.614 130.721,-311.258 130.745,-313.916"/>
<polygon fill="red" stroke="red" points="127.244,-313.906 130.404,-324.019 134.24,-314.143 127.244,-313.906"/>
</g>
<!-- B&#45;&gt;D -->
<g id="edge33" class="edge"><title>B&#45;&gt;D</title>
<path fill="none" stroke="black" d="M106.281,-270.914C102.276,-267.052 97.9444,-262.875 93.685,-258.768"/>
<polygon fill="black" stroke="black" points="95.8095,-255.954 86.1816,-251.532 90.9506,-260.993 95.8095,-255.954"/>
</g>
<!-- E -->
<g id="node8" class="node"><title>E</title>
<ellipse fill="none" stroke="black" cx="181" cy="-234" rx="27" ry="18"/>
<text text-anchor="middle" x="181" y="-229.4" font-family="Times New Roman,serif" font-size="14.00">if</text>
</g>
<!-- B&#45;&gt;E -->
<g id="edge35" class="edge"><title>B&#45;&gt;E</title>
<path fill="none" stroke="black" d="M136.285,-270.318C141.503,-264.955 147.709,-259.032 153.844,-253.553"/>
<polygon fill="black" stroke="black" points="156.229,-256.118 161.498,-246.926 151.647,-250.826 156.229,-256.118"/>
</g>
<!-- I -->
<g id="node16" class="node"><title>I</title>
<ellipse fill="none" stroke="black" cx="34" cy="-72" rx="29.0158" ry="18"/>
<text text-anchor="middle" x="34" y="-67.4" font-family="Times New Roman,serif" font-size="14.00">last()</text>
</g>
<!-- D&#45;&gt;I -->
<g id="edge41" class="edge"><title>D&#45;&gt;I</title>
<path fill="none" stroke="red" d="M64.1659,-215.731C58.2422,-187.507 46.8234,-133.1 39.86,-99.921"/>
<polygon fill="red" stroke="red" points="43.2477,-99.0224 37.7682,-89.9546 36.397,-100.46 43.2477,-99.0224"/>
</g>
<!-- K -->
<g id="node27" class="node"><title>K</title>
<ellipse fill="none" stroke="black" cx="84" cy="-18" rx="63.8995" ry="18"/>
<text text-anchor="middle" x="84" y="-13.4" font-family="Times New Roman,serif" font-size="14.00">child::surname</text>
</g>
<!-- D&#45;&gt;K -->
<g id="edge43" class="edge"><title>D&#45;&gt;K</title>
<path fill="none" stroke="red" d="M69.3366,-215.955C72.1249,-178.314 78.5788,-91.1867 81.9167,-46.1246"/>
<polygon fill="red" stroke="red" points="85.4075,-46.3763 82.6559,-36.1451 78.4267,-45.8592 85.4075,-46.3763"/>
</g>
<!-- E&#45;&gt;B -->
<g id="edge53" class="edge"><title>E&#45;&gt;B</title>
<path fill="none" stroke="red" d="M169.601,-250.767C165.328,-255.203 160.32,-260.071 155.198,-264.783"/>
<polygon fill="red" stroke="red" points="152.804,-262.228 147.685,-271.505 157.471,-267.445 152.804,-262.228"/>
</g>
<!-- F -->
<g id="node10" class="node"><title>F</title>
<ellipse fill="none" stroke="black" cx="167" cy="-180" rx="27" ry="18"/>
<text text-anchor="middle" x="167" y="-175.4" font-family="Times New Roman,serif" font-size="14.00">test</text>
</g>
<!-- E&#45;&gt;F -->
<g id="edge29" class="edge"><title>E&#45;&gt;F</title>
<path fill="none" stroke="black" d="M176.338,-216.019C175.661,-213.405 174.95,-210.664 174.236,-207.91"/>
<polygon fill="black" stroke="black" points="177.587,-206.888 171.689,-198.087 170.811,-208.645 177.587,-206.888"/>
</g>
<!-- N -->
<g id="node21" class="node"><title>N</title>
<ellipse fill="none" stroke="black" cx="255" cy="-180" rx="27" ry="18"/>
<text text-anchor="middle" x="255" y="-175.4" font-family="Times New Roman,serif" font-size="14.00">then</text>
</g>
<!-- E&#45;&gt;N -->
<g id="edge31" class="edge"><title>E&#45;&gt;N</title>
<path fill="none" stroke="black" d="M195.852,-218.67C204.312,-211.966 215.069,-204.073 225.133,-197.171"/>
<polygon fill="black" stroke="black" points="227.364,-199.89 233.724,-191.417 223.468,-194.074 227.364,-199.89"/>
</g>
<!-- G -->
<g id="node12" class="node"><title>G</title>
<ellipse fill="none" stroke="black" cx="159" cy="-126" rx="34.2118" ry="18"/>
<text text-anchor="middle" x="159" y="-121.4" font-family="Times New Roman,serif" font-size="14.00">equals</text>
</g>
<!-- F&#45;&gt;G -->
<g id="edge14" class="edge"><title>F&#45;&gt;G</title>
<path fill="none" stroke="black" d="M164.336,-162.019C163.962,-159.495 163.571,-156.853 163.177,-154.195"/>
<polygon fill="black" stroke="black" points="166.607,-153.466 161.68,-144.087 159.683,-154.492 166.607,-153.466"/>
</g>
<!-- H -->
<g id="node14" class="node"><title>H</title>
<ellipse fill="none" stroke="black" cx="166" cy="-72" rx="46.9574" ry="18"/>
<text text-anchor="middle" x="166" y="-67.4" font-family="Times New Roman,serif" font-size="14.00">position()</text>
</g>
<!-- G&#45;&gt;H -->
<g id="edge10" class="edge"><title>G&#45;&gt;H</title>
<path fill="none" stroke="black" d="M161.331,-108.019C161.658,-105.495 162.001,-102.853 162.345,-100.195"/>
<polygon fill="black" stroke="black" points="165.841,-100.454 163.655,-90.0868 158.899,-99.5539 165.841,-100.454"/>
</g>
<!-- G&#45;&gt;I -->
<g id="edge12" class="edge"><title>G&#45;&gt;I</title>
<path fill="none" stroke="black" d="M132.491,-114.548C113.436,-106.316 87.6098,-95.1594 67.1845,-86.3357"/>
<polygon fill="black" stroke="black" points="68.503,-83.0927 57.9349,-82.3399 65.7269,-89.5187 68.503,-83.0927"/>
</g>
<!-- N&#45;&gt;E -->
<g id="edge51" class="edge"><title>N&#45;&gt;E</title>
<path fill="none" stroke="red" d="M240.148,-195.33C231.7,-202.024 220.963,-209.904 210.911,-216.798"/>
<polygon fill="red" stroke="red" points="208.689,-214.074 202.329,-222.548 212.585,-219.889 208.689,-214.074"/>
</g>
<!-- M -->
<g id="node23" class="node"><title>M</title>
<ellipse fill="none" stroke="black" cx="264" cy="-126" rx="53.1641" ry="18"/>
<text text-anchor="middle" x="264" y="-121.4" font-family="Times New Roman,serif" font-size="14.00">xsl:value&#45;of</text>
</g>
<!-- N&#45;&gt;M -->
<g id="edge27" class="edge"><title>N&#45;&gt;M</title>
<path fill="none" stroke="black" d="M251.593,-162.019C251.826,-159.35 252.178,-156.547 252.63,-153.735"/>
<polygon fill="black" stroke="black" points="256.103,-154.216 254.665,-143.719 249.244,-152.822 256.103,-154.216"/>
</g>
<!-- M&#45;&gt;N -->
<g id="edge49" class="edge"><title>M&#45;&gt;N</title>
<path fill="none" stroke="red" d="M267.38,-144.282C267.126,-147.106 266.739,-150.073 266.243,-153.04"/>
<polygon fill="red" stroke="red" points="262.8,-152.409 264.176,-162.914 269.651,-153.844 262.8,-152.409"/>
</g>
<!-- J -->
<g id="node25" class="node"><title>J</title>
<ellipse fill="none" stroke="black" cx="264" cy="-72" rx="27" ry="18"/>
<text text-anchor="middle" x="264" y="-67.4" font-family="Times New Roman,serif" font-size="14.00">path</text>
</g>
<!-- M&#45;&gt;J -->
<g id="edge25" class="edge"><title>M&#45;&gt;J</title>
<path fill="none" stroke="black" d="M264,-107.718C264,-105.343 264,-102.867 264,-100.375"/>
<polygon fill="black" stroke="black" points="267.5,-100.263 264,-90.2631 260.5,-100.263 267.5,-100.263"/>
</g>
<!-- J&#45;&gt;K -->
<g id="edge21" class="edge"><title>J&#45;&gt;K</title>
<path fill="none" stroke="black" d="M241.574,-61.6543C235.312,-58.9679 228.454,-56.211 222,-54 207.099,-48.8954 172.923,-39.9726 142.312,-32.2877"/>
<polygon fill="black" stroke="black" points="143.077,-28.8715 132.527,-29.8425 141.38,-35.6626 143.077,-28.8715"/>
</g>
<!-- L -->
<g id="node29" class="node"><title>L</title>
<ellipse fill="none" stroke="black" cx="270" cy="-18" rx="103.977" ry="18"/>
<text text-anchor="middle" x="270" y="-13.4" font-family="Times New Roman,serif" font-size="14.00">descendant&#45;or&#45;self::text()</text>
</g>
<!-- J&#45;&gt;L -->
<g id="edge23" class="edge"><title>J&#45;&gt;L</title>
<path fill="none" stroke="black" d="M259.594,-54.0188C259.674,-51.4953 259.854,-48.853 260.123,-46.1953"/>
<polygon fill="black" stroke="black" points="263.618,-46.4836 261.578,-36.0868 256.689,-45.4859 263.618,-46.4836"/>
</g>
<!-- K&#45;&gt;L -->
<g id="edge45" class="edge"><title>K&#45;&gt;L</title>
<path fill="none" stroke="red" d="M148.301,-18C150.774,-18 153.248,-18 155.721,-18"/>
<polygon fill="red" stroke="red" points="155.89,-21.5001 165.89,-18 155.89,-14.5001 155.89,-21.5001"/>
</g>
<!-- L&#45;&gt;J -->
<g id="edge47" class="edge"><title>L&#45;&gt;J</title>
<path fill="none" stroke="red" d="M274.402,-36.0939C274.314,-38.8009 274.11,-41.6424 273.805,-44.4914"/>
<polygon fill="red" stroke="red" points="270.309,-44.208 272.286,-54.6168 277.231,-45.2472 270.309,-44.208"/>
</g>
</g>
</svg>
