<?xml version="1.0" encoding="UTF-8" standalone="no"?>
<!DOCTYPE svg PUBLIC "-//W3C//DTD SVG 1.1//EN"
 "http://www.w3.org/Graphics/SVG/1.1/DTD/svg11.dtd">
<!-- Generated by graphviz version 2.24.0 (20090616.2323)
 -->
<!-- Title: g Pages: 1 -->
<svg width="987pt" height="584pt"
 viewBox="0.00 0.00 987.00 584.00" xmlns="http://www.w3.org/2000/svg" xmlns:xlink="http://www.w3.org/1999/xlink">
<g id="graph1" class="graph" transform="scale(1 1) rotate(0) translate(4 580)">
<title>g</title>
<polygon fill="white" stroke="white" points="-4,5 -4,-580 984,-580 984,5 -4,5"/>
<!-- T -->
<g id="node2" class="node"><title>T</title>
<ellipse fill="none" stroke="black" cx="346" cy="-558" rx="47.8011" ry="18"/>
<text text-anchor="middle" x="346" y="-553.4" font-family="Times New Roman,serif" font-size="14.00">xsl:stream</text>
</g>
<!-- d7e33267 -->
<g id="node4" class="node"><title>d7e33267</title>
<ellipse fill="none" stroke="black" cx="346" cy="-504" rx="53.838" ry="18"/>
<text text-anchor="middle" x="346" y="-499.4" font-family="Times New Roman,serif" font-size="14.00">xsl:for&#45;each</text>
</g>
<!-- T&#45;&gt;d7e33267 -->
<g id="edge115" class="edge"><title>T&#45;&gt;d7e33267</title>
<path fill="none" stroke="black" d="M346,-539.718C346,-537.343 346,-534.867 346,-532.375"/>
<polygon fill="black" stroke="black" points="349.5,-532.263 346,-522.263 342.5,-532.263 349.5,-532.263"/>
</g>
<!-- ca -->
<g id="node8" class="node"><title>ca</title>
<ellipse fill="none" stroke="black" cx="102" cy="-396" rx="61.8872" ry="18"/>
<text text-anchor="middle" x="102" y="-391.4" font-family="Times New Roman,serif" font-size="14.00">child::account</text>
</g>
<!-- T&#45;&gt;ca -->
<g id="edge119" class="edge"><title>T&#45;&gt;ca</title>
<path fill="none" stroke="red" d="M380.814,-545.526C436.2,-523.914 533.949,-477.449 491,-432 466.693,-406.278 207.98,-419.373 173,-414 167.58,-413.167 161.971,-412.104 156.39,-410.913"/>
<polygon fill="red" stroke="red" points="156.951,-407.451 146.424,-408.649 155.401,-414.277 156.951,-407.451"/>
</g>
<!-- p0 -->
<g id="node6" class="node"><title>p0</title>
<ellipse fill="none" stroke="black" cx="256" cy="-450" rx="27" ry="18"/>
<text text-anchor="middle" x="256" y="-445.4" font-family="Times New Roman,serif" font-size="14.00">path</text>
</g>
<!-- d7e33267&#45;&gt;p0 -->
<g id="edge111" class="edge"><title>d7e33267&#45;&gt;p0</title>
<path fill="none" stroke="black" d="M319.484,-488.09C308.708,-481.625 296.222,-474.133 285.188,-467.513"/>
<polygon fill="black" stroke="black" points="286.707,-464.342 276.331,-462.199 283.105,-470.345 286.707,-464.342"/>
</g>
<!-- d7e33271 -->
<g id="node14" class="node"><title>d7e33271</title>
<ellipse fill="none" stroke="black" cx="437" cy="-450" rx="45.1145" ry="18"/>
<text text-anchor="middle" x="437" y="-445.4" font-family="Times New Roman,serif" font-size="14.00">sequence</text>
</g>
<!-- d7e33267&#45;&gt;d7e33271 -->
<g id="edge113" class="edge"><title>d7e33267&#45;&gt;d7e33271</title>
<path fill="none" stroke="black" d="M372.811,-488.09C382.203,-482.517 392.882,-476.18 402.797,-470.296"/>
<polygon fill="black" stroke="black" points="404.815,-473.169 411.629,-465.055 401.243,-467.149 404.815,-473.169"/>
</g>
<!-- p0&#45;&gt;ca -->
<g id="edge7" class="edge"><title>p0&#45;&gt;ca</title>
<path fill="none" stroke="black" d="M231.938,-441.563C210.465,-434.033 178.347,-422.771 151.417,-413.328"/>
<polygon fill="black" stroke="black" points="152.354,-409.948 141.759,-409.941 150.037,-416.553 152.354,-409.948"/>
</g>
<!-- cc -->
<g id="node10" class="node"><title>cc</title>
<ellipse fill="none" stroke="black" cx="256" cy="-396" rx="73.7902" ry="18"/>
<text text-anchor="middle" x="256" y="-391.4" font-family="Times New Roman,serif" font-size="14.00">child::transaction</text>
</g>
<!-- p0&#45;&gt;cc -->
<g id="edge9" class="edge"><title>p0&#45;&gt;cc</title>
<path fill="none" stroke="black" d="M249.621,-432.318C249.412,-429.788 249.291,-427.134 249.259,-424.461"/>
<polygon fill="black" stroke="black" points="252.763,-424.381 249.573,-414.277 245.766,-424.164 252.763,-424.381"/>
</g>
<!-- current -->
<g id="node43" class="node"><title>current</title>
<ellipse fill="none" stroke="black" cx="440" cy="-180" rx="42.9325" ry="18"/>
<text text-anchor="middle" x="440" y="-175.4" font-family="Times New Roman,serif" font-size="14.00">current()</text>
</g>
<!-- p0&#45;&gt;current -->
<g id="edge125" class="edge"><title>p0&#45;&gt;current</title>
<path fill="none" stroke="red" d="M282.633,-446.215C301.88,-441.936 326.59,-432.909 339,-414 347.779,-400.623 347.97,-391.249 339,-378 254.466,-253.14 108.534,-376.86 24,-252 15.0299,-238.751 12.9692,-227.59 24,-216 51.9174,-186.668 348.245,-205.7 388,-198 391.637,-197.295 395.366,-196.391 399.075,-195.364"/>
<polygon fill="red" stroke="red" points="400.224,-198.673 408.77,-192.411 398.184,-191.977 400.224,-198.673"/>
</g>
<!-- dummy1 -->
<g id="node120" class="node"><title>dummy1</title>
<ellipse fill="none" stroke="white" cx="502" cy="-558" rx="0" ry="0.5"/>
</g>
<!-- p0&#45;&gt;dummy1 -->
<g id="edge135" class="edge"><title>p0&#45;&gt;dummy1</title>
<path fill="none" stroke="red" d="M282.858,-452.806C314.344,-456.875 367.497,-466.21 409,-486 453.234,-507.093 496.268,-551.918 501.474,-557.439"/>
</g>
<!-- ca&#45;&gt;cc -->
<g id="edge121" class="edge"><title>ca&#45;&gt;cc</title>
<path fill="none" stroke="red" d="M164.262,-396C166.731,-396 169.2,-396 171.67,-396"/>
<polygon fill="red" stroke="red" points="171.821,-399.5 181.821,-396 171.821,-392.5 171.821,-399.5"/>
</g>
<!-- cc&#45;&gt;p0 -->
<g id="edge123" class="edge"><title>cc&#45;&gt;p0</title>
<path fill="none" stroke="red" d="M262.427,-414.277C262.622,-416.826 262.729,-419.491 262.747,-422.167"/>
<polygon fill="red" stroke="red" points="259.244,-422.198 262.379,-432.318 266.239,-422.452 259.244,-422.198"/>
</g>
<!-- vardecl -->
<g id="node16" class="node"><title>vardecl</title>
<ellipse fill="none" stroke="black" cx="437" cy="-396" rx="50.9823" ry="18"/>
<text text-anchor="middle" x="437" y="-391.4" font-family="Times New Roman,serif" font-size="14.00">$branch :=</text>
</g>
<!-- d7e33271&#45;&gt;vardecl -->
<g id="edge107" class="edge"><title>d7e33271&#45;&gt;vardecl</title>
<path fill="none" stroke="black" d="M437,-431.718C437,-429.343 437,-426.867 437,-424.375"/>
<polygon fill="black" stroke="black" points="440.5,-424.263 437,-414.263 433.5,-424.263 440.5,-424.263"/>
</g>
<!-- d7e33287 -->
<g id="node60" class="node"><title>d7e33287</title>
<ellipse fill="none" stroke="black" cx="671" cy="-396" rx="53.1641" ry="18"/>
<text text-anchor="middle" x="671" y="-391.4" font-family="Times New Roman,serif" font-size="14.00">xsl:copy&#45;of</text>
</g>
<!-- d7e33271&#45;&gt;d7e33287 -->
<g id="edge109" class="edge"><title>d7e33271&#45;&gt;d7e33287</title>
<path fill="none" stroke="black" d="M476.166,-440.962C514.791,-432.048 574.129,-418.355 617.173,-408.422"/>
<polygon fill="black" stroke="black" points="617.961,-411.832 626.918,-406.173 616.387,-405.011 617.961,-411.832"/>
</g>
<!-- f1 -->
<g id="node18" class="node"><title>f1</title>
<ellipse fill="none" stroke="black" cx="373" cy="-342" rx="27.0036" ry="18"/>
<text text-anchor="middle" x="373" y="-337.4" font-family="Times New Roman,serif" font-size="14.00">filter</text>
</g>
<!-- vardecl&#45;&gt;f1 -->
<g id="edge53" class="edge"><title>vardecl&#45;&gt;f1</title>
<path fill="none" stroke="black" d="M411.928,-380.09C405.762,-375.299 399.262,-369.944 393.343,-364.798"/>
<polygon fill="black" stroke="black" points="395.507,-362.038 385.719,-357.983 390.842,-367.257 395.507,-362.038"/>
</g>
<!-- varref -->
<g id="node88" class="node"><title>varref</title>
<ellipse fill="none" stroke="black" cx="825" cy="-72" rx="40.92" ry="18"/>
<text text-anchor="middle" x="825" y="-67.4" font-family="Times New Roman,serif" font-size="14.00">$branch</text>
</g>
<!-- vardecl&#45;&gt;varref -->
<g id="edge165" class="edge"><title>vardecl&#45;&gt;varref</title>
<path fill="none" stroke="red" d="M448.288,-378.417C486.813,-318.637 612.261,-125.937 640,-108 675.353,-85.1397 691.675,-98.0419 733,-90 747.398,-87.1982 763.061,-84.1382 777.313,-81.3491"/>
<polygon fill="red" stroke="red" points="778.263,-84.7298 787.404,-79.3737 776.918,-77.8602 778.263,-84.7298"/>
</g>
<!-- f1&#45;&gt;vardecl -->
<g id="edge163" class="edge"><title>f1&#45;&gt;vardecl</title>
<path fill="none" stroke="red" d="M393.464,-354.389C400.342,-359.55 407.98,-365.731 414.955,-371.73"/>
<polygon fill="red" stroke="red" points="412.94,-374.62 422.752,-378.617 417.574,-369.373 412.94,-374.62"/>
</g>
<!-- docpath -->
<g id="node20" class="node"><title>docpath</title>
<ellipse fill="none" stroke="black" cx="195" cy="-288" rx="27" ry="18"/>
<text text-anchor="middle" x="195" y="-283.4" font-family="Times New Roman,serif" font-size="14.00">path</text>
</g>
<!-- f1&#45;&gt;docpath -->
<g id="edge49" class="edge"><title>f1&#45;&gt;docpath</title>
<path fill="none" stroke="black" d="M347.328,-335.593C315.939,-326.821 263.099,-310.908 228.556,-299.912"/>
<polygon fill="black" stroke="black" points="229.491,-296.536 218.899,-296.811 227.35,-303.201 229.491,-296.536"/>
</g>
<!-- d7e33278 -->
<g id="node31" class="node"><title>d7e33278</title>
<ellipse fill="none" stroke="black" cx="373" cy="-288" rx="27" ry="18"/>
<text text-anchor="middle" x="373" y="-283.4" font-family="Times New Roman,serif" font-size="14.00">=</text>
</g>
<!-- f1&#45;&gt;d7e33278 -->
<g id="edge51" class="edge"><title>f1&#45;&gt;d7e33278</title>
<path fill="none" stroke="black" d="M373,-323.718C373,-321.343 373,-318.867 373,-316.375"/>
<polygon fill="black" stroke="black" points="376.5,-316.263 373,-306.263 369.5,-316.263 376.5,-316.263"/>
</g>
<!-- docpath&#45;&gt;f1 -->
<g id="edge161" class="edge"><title>docpath&#45;&gt;f1</title>
<path fill="none" stroke="red" d="M220.439,-294.341C251.806,-303.102 304.839,-319.072 339.467,-330.096"/>
<polygon fill="red" stroke="red" points="338.554,-333.478 349.146,-333.204 340.695,-326.814 338.554,-333.478"/>
</g>
<!-- doc -->
<g id="node22" class="node"><title>doc</title>
<ellipse fill="none" stroke="black" cx="64" cy="-234" rx="31.0281" ry="18"/>
<text text-anchor="middle" x="64" y="-229.4" font-family="Times New Roman,serif" font-size="14.00">doc()</text>
</g>
<!-- docpath&#45;&gt;doc -->
<g id="edge20" class="edge"><title>docpath&#45;&gt;doc</title>
<path fill="none" stroke="black" d="M171.31,-278.973C152.873,-271.864 126.693,-261.589 104,-252 101.948,-251.133 99.8431,-250.229 97.7236,-249.308"/>
<polygon fill="black" stroke="black" points="99.0222,-246.056 88.4602,-245.222 96.197,-252.46 99.0222,-246.056"/>
</g>
<!-- descbranch -->
<g id="node27" class="node"><title>descbranch</title>
<ellipse fill="none" stroke="black" cx="195" cy="-234" rx="82.0108" ry="18"/>
<text text-anchor="middle" x="195" y="-229.4" font-family="Times New Roman,serif" font-size="14.00">descendant::branch</text>
</g>
<!-- docpath&#45;&gt;descbranch -->
<g id="edge22" class="edge"><title>docpath&#45;&gt;descbranch</title>
<path fill="none" stroke="black" d="M188.621,-270.318C188.412,-267.788 188.291,-265.134 188.259,-262.461"/>
<polygon fill="black" stroke="black" points="191.763,-262.381 188.573,-252.277 184.766,-262.164 191.763,-262.381"/>
</g>
<!-- childcode -->
<g id="node35" class="node"><title>childcode</title>
<ellipse fill="none" stroke="black" cx="256" cy="-180" rx="51.1517" ry="18"/>
<text text-anchor="middle" x="256" y="-175.4" font-family="Times New Roman,serif" font-size="14.00">child::code</text>
</g>
<!-- docpath&#45;&gt;childcode -->
<g id="edge155" class="edge"><title>docpath&#45;&gt;childcode</title>
<path fill="none" stroke="red" d="M221.944,-285.362C243.276,-281.696 271.768,-272.936 286,-252 294.995,-238.768 291.447,-231.044 286,-216 284.637,-212.235 282.689,-208.587 280.431,-205.15"/>
<polygon fill="red" stroke="red" points="283.163,-202.96 274.339,-197.096 277.58,-207.182 283.163,-202.96"/>
</g>
<!-- d7e33276 -->
<g id="node24" class="node"><title>d7e33276</title>
<ellipse fill="none" stroke="black" cx="64" cy="-180" rx="63.8995" ry="18"/>
<text text-anchor="middle" x="64" y="-175.4" font-family="Times New Roman,serif" font-size="14.00">&#39;branches.xml&#39;</text>
</g>
<!-- doc&#45;&gt;d7e33276 -->
<g id="edge17" class="edge"><title>doc&#45;&gt;d7e33276</title>
<path fill="none" stroke="black" d="M64,-215.718C64,-213.343 64,-210.867 64,-208.375"/>
<polygon fill="black" stroke="black" points="67.5001,-208.263 64,-198.263 60.5001,-208.263 67.5001,-208.263"/>
</g>
<!-- doc&#45;&gt;descbranch -->
<g id="edge151" class="edge"><title>doc&#45;&gt;descbranch</title>
<path fill="none" stroke="red" d="M95.2148,-234C97.6815,-234 100.148,-234 102.615,-234"/>
<polygon fill="red" stroke="red" points="102.755,-237.5 112.755,-234 102.755,-230.5 102.755,-237.5"/>
</g>
<!-- descbranch&#45;&gt;docpath -->
<g id="edge153" class="edge"><title>descbranch&#45;&gt;docpath</title>
<path fill="none" stroke="red" d="M201.427,-252.277C201.622,-254.826 201.729,-257.491 201.747,-260.167"/>
<polygon fill="red" stroke="red" points="198.244,-260.198 201.379,-270.318 205.239,-260.452 198.244,-260.198"/>
</g>
<!-- p1 -->
<g id="node33" class="node"><title>p1</title>
<ellipse fill="none" stroke="black" cx="360" cy="-234" rx="27" ry="18"/>
<text text-anchor="middle" x="360" y="-229.4" font-family="Times New Roman,serif" font-size="14.00">path</text>
</g>
<!-- d7e33278&#45;&gt;p1 -->
<g id="edge45" class="edge"><title>d7e33278&#45;&gt;p1</title>
<path fill="none" stroke="black" d="M368.671,-270.019C368.042,-267.405 367.382,-264.664 366.719,-261.91"/>
<polygon fill="black" stroke="black" points="370.098,-260.99 364.354,-252.087 363.292,-262.628 370.098,-260.99"/>
</g>
<!-- p2 -->
<g id="node41" class="node"><title>p2</title>
<ellipse fill="none" stroke="black" cx="440" cy="-234" rx="27" ry="18"/>
<text text-anchor="middle" x="440" y="-229.4" font-family="Times New Roman,serif" font-size="14.00">path</text>
</g>
<!-- d7e33278&#45;&gt;p2 -->
<g id="edge47" class="edge"><title>d7e33278&#45;&gt;p2</title>
<path fill="none" stroke="black" d="M390.254,-274.094C397.699,-268.094 406.555,-260.956 414.718,-254.377"/>
<polygon fill="black" stroke="black" points="416.982,-257.047 422.571,-248.047 412.589,-251.597 416.982,-257.047"/>
</g>
<!-- p1&#45;&gt;childcode -->
<g id="edge28" class="edge"><title>p1&#45;&gt;childcode</title>
<path fill="none" stroke="black" d="M338.451,-222.811C325.641,-216.16 309.023,-207.531 294.067,-199.765"/>
<polygon fill="black" stroke="black" points="295.505,-196.569 285.017,-195.067 292.279,-202.781 295.505,-196.569"/>
</g>
<!-- dd1 -->
<g id="node37" class="node"><title>dd1</title>
<ellipse fill="none" stroke="black" cx="352" cy="-180" rx="27" ry="18"/>
<text text-anchor="middle" x="352" y="-175.4" font-family="Times New Roman,serif" font-size="14.00">//</text>
</g>
<!-- p1&#45;&gt;dd1 -->
<g id="edge30" class="edge"><title>p1&#45;&gt;dd1</title>
<path fill="none" stroke="black" d="M351.141,-216.914C350.468,-214.075 349.883,-211.067 349.409,-208.04"/>
<polygon fill="black" stroke="black" points="352.864,-207.446 348.255,-197.906 345.909,-208.238 352.864,-207.446"/>
</g>
<!-- childcode&#45;&gt;dd1 -->
<g id="edge157" class="edge"><title>childcode&#45;&gt;dd1</title>
<path fill="none" stroke="red" d="M307,-180C309.615,-180 312.229,-180 314.844,-180"/>
<polygon fill="red" stroke="red" points="314.93,-183.5 324.93,-180 314.93,-176.5 314.93,-183.5"/>
</g>
<!-- dd1&#45;&gt;p1 -->
<g id="edge159" class="edge"><title>dd1&#45;&gt;p1</title>
<path fill="none" stroke="red" d="M360.922,-197.353C361.577,-200.149 362.147,-203.104 362.609,-206.073"/>
<polygon fill="red" stroke="red" points="359.133,-206.478 363.74,-216.019 366.088,-205.687 359.133,-206.478"/>
</g>
<!-- p2&#45;&gt;current -->
<g id="edge41" class="edge"><title>p2&#45;&gt;current</title>
<path fill="none" stroke="black" d="M440,-215.718C440,-213.343 440,-210.867 440,-208.375"/>
<polygon fill="black" stroke="black" points="443.5,-208.263 440,-198.263 436.5,-208.263 443.5,-208.263"/>
</g>
<!-- p3 -->
<g id="node45" class="node"><title>p3</title>
<ellipse fill="none" stroke="black" cx="528" cy="-180" rx="27" ry="18"/>
<text text-anchor="middle" x="528" y="-175.4" font-family="Times New Roman,serif" font-size="14.00">path</text>
</g>
<!-- p2&#45;&gt;p3 -->
<g id="edge43" class="edge"><title>p2&#45;&gt;p3</title>
<path fill="none" stroke="black" d="M457.098,-219.812C468.424,-212.297 483.435,-203.058 496.79,-195.372"/>
<polygon fill="black" stroke="black" points="498.717,-198.303 505.705,-190.34 495.276,-192.207 498.717,-198.303"/>
</g>
<!-- childbranch -->
<g id="node47" class="node"><title>childbranch</title>
<ellipse fill="none" stroke="black" cx="425" cy="-126" rx="57.8626" ry="18"/>
<text text-anchor="middle" x="425" y="-121.4" font-family="Times New Roman,serif" font-size="14.00">child::branch</text>
</g>
<!-- current&#45;&gt;childbranch -->
<g id="edge127" class="edge"><title>current&#45;&gt;childbranch</title>
<path fill="none" stroke="red" d="M435.005,-162.019C434.279,-159.405 433.518,-156.664 432.753,-153.91"/>
<polygon fill="red" stroke="red" points="436.073,-152.785 430.024,-144.087 429.328,-154.659 436.073,-152.785"/>
</g>
<!-- p3&#45;&gt;p2 -->
<g id="edge133" class="edge"><title>p3&#45;&gt;p2</title>
<path fill="none" stroke="red" d="M511.101,-194.056C499.797,-201.565 484.763,-210.824 471.369,-218.537"/>
<polygon fill="red" stroke="red" points="469.411,-215.623 462.425,-223.588 472.854,-221.718 469.411,-215.623"/>
</g>
<!-- p3&#45;&gt;childbranch -->
<g id="edge37" class="edge"><title>p3&#45;&gt;childbranch</title>
<path fill="none" stroke="black" d="M506.658,-168.811C494.381,-162.374 478.573,-154.087 464.141,-146.52"/>
<polygon fill="black" stroke="black" points="465.388,-143.223 454.906,-141.679 462.138,-149.422 465.388,-143.223"/>
</g>
<!-- dd3 -->
<g id="node49" class="node"><title>dd3</title>
<ellipse fill="none" stroke="black" cx="528" cy="-126" rx="27" ry="18"/>
<text text-anchor="middle" x="528" y="-121.4" font-family="Times New Roman,serif" font-size="14.00">//</text>
</g>
<!-- p3&#45;&gt;dd3 -->
<g id="edge39" class="edge"><title>p3&#45;&gt;dd3</title>
<path fill="none" stroke="black" d="M521.621,-162.318C521.395,-159.587 521.272,-156.71 521.253,-153.82"/>
<polygon fill="black" stroke="black" points="524.761,-153.659 521.633,-143.537 517.766,-153.401 524.761,-153.659"/>
</g>
<!-- childbranch&#45;&gt;dd3 -->
<g id="edge129" class="edge"><title>childbranch&#45;&gt;dd3</title>
<path fill="none" stroke="red" d="M483.34,-126C485.793,-126 488.246,-126 490.7,-126"/>
<polygon fill="red" stroke="red" points="490.785,-129.5 500.785,-126 490.785,-122.5 490.785,-129.5"/>
</g>
<!-- dd3&#45;&gt;p3 -->
<g id="edge131" class="edge"><title>dd3&#45;&gt;p3</title>
<path fill="none" stroke="red" d="M534.367,-143.537C534.597,-146.264 534.723,-149.138 534.746,-152.026"/>
<polygon fill="red" stroke="red" points="531.238,-152.2 534.379,-162.318 538.233,-152.449 531.238,-152.2"/>
</g>
<!-- copypath -->
<g id="node62" class="node"><title>copypath</title>
<ellipse fill="none" stroke="black" cx="677" cy="-342" rx="27" ry="18"/>
<text text-anchor="middle" x="677" y="-337.4" font-family="Times New Roman,serif" font-size="14.00">path</text>
</g>
<!-- d7e33287&#45;&gt;copypath -->
<g id="edge105" class="edge"><title>d7e33287&#45;&gt;copypath</title>
<path fill="none" stroke="black" d="M673.031,-377.718C673.295,-375.343 673.57,-372.867 673.847,-370.375"/>
<polygon fill="black" stroke="black" points="677.345,-370.588 674.971,-360.263 670.388,-369.815 677.345,-370.588"/>
</g>
<!-- f2 -->
<g id="node64" class="node"><title>f2</title>
<ellipse fill="none" stroke="black" cx="677" cy="-288" rx="27.0036" ry="18"/>
<text text-anchor="middle" x="677" y="-283.4" font-family="Times New Roman,serif" font-size="14.00">filter</text>
</g>
<!-- copypath&#45;&gt;f2 -->
<g id="edge101" class="edge"><title>copypath&#45;&gt;f2</title>
<path fill="none" stroke="black" d="M677,-323.718C677,-321.343 677,-318.867 677,-316.375"/>
<polygon fill="black" stroke="black" points="680.5,-316.263 677,-306.263 673.5,-316.263 680.5,-316.263"/>
</g>
<!-- copydesc -->
<g id="node108" class="node"><title>copydesc</title>
<ellipse fill="none" stroke="black" cx="749" cy="-288" rx="27" ry="18"/>
<text text-anchor="middle" x="749" y="-283.4" font-family="Times New Roman,serif" font-size="14.00">//</text>
</g>
<!-- copypath&#45;&gt;copydesc -->
<g id="edge103" class="edge"><title>copypath&#45;&gt;copydesc</title>
<path fill="none" stroke="black" d="M691.285,-326.67C699.437,-320.014 709.81,-312.186 719.557,-305.32"/>
<polygon fill="black" stroke="black" points="721.635,-308.139 727.891,-299.588 717.668,-302.372 721.635,-308.139"/>
</g>
<!-- dot -->
<g id="node66" class="node"><title>dot</title>
<ellipse fill="none" stroke="black" cx="677" cy="-234" rx="27" ry="18"/>
<text text-anchor="middle" x="677" y="-229.4" font-family="Times New Roman,serif" font-size="14.00">.</text>
</g>
<!-- f2&#45;&gt;dot -->
<g id="edge96" class="edge"><title>f2&#45;&gt;dot</title>
<path fill="none" stroke="black" d="M670.621,-270.318C670.395,-267.587 670.272,-264.71 670.253,-261.82"/>
<polygon fill="black" stroke="black" points="673.761,-261.659 670.633,-251.537 666.766,-261.401 673.761,-261.659"/>
</g>
<!-- d7e33291 -->
<g id="node68" class="node"><title>d7e33291</title>
<ellipse fill="none" stroke="black" cx="755" cy="-234" rx="27" ry="18"/>
<text text-anchor="middle" x="755" y="-229.4" font-family="Times New Roman,serif" font-size="14.00">and</text>
</g>
<!-- f2&#45;&gt;d7e33291 -->
<g id="edge98" class="edge"><title>f2&#45;&gt;d7e33291</title>
<path fill="none" stroke="black" d="M695.882,-274.928C705.392,-268.344 717.101,-260.238 727.582,-252.982"/>
<polygon fill="black" stroke="black" points="729.792,-255.708 736.022,-247.139 725.808,-249.953 729.792,-255.708"/>
</g>
<!-- f2&#45;&gt;copydesc -->
<g id="edge143" class="edge"><title>f2&#45;&gt;copydesc</title>
<path fill="none" stroke="red" d="M704,-288C706.615,-288 709.229,-288 711.844,-288"/>
<polygon fill="red" stroke="red" points="711.93,-291.5 721.93,-288 711.93,-284.5 711.93,-291.5"/>
</g>
<!-- dot&#45;&gt;f2 -->
<g id="edge141" class="edge"><title>dot&#45;&gt;f2</title>
<path fill="none" stroke="red" d="M683.367,-251.537C683.597,-254.264 683.723,-257.138 683.746,-260.026"/>
<polygon fill="red" stroke="red" points="680.238,-260.2 683.379,-270.318 687.233,-260.449 680.238,-260.2"/>
</g>
<!-- camt -->
<g id="node74" class="node"><title>camt</title>
<ellipse fill="none" stroke="black" cx="592" cy="-72" rx="59.8749" ry="18"/>
<text text-anchor="middle" x="592" y="-67.4" font-family="Times New Roman,serif" font-size="14.00">child::amount</text>
</g>
<!-- dot&#45;&gt;camt -->
<g id="edge139" class="edge"><title>dot&#45;&gt;camt</title>
<path fill="none" stroke="red" d="M668.064,-216.969C653.322,-188.873 623.788,-132.584 606.173,-99.0122"/>
<polygon fill="red" stroke="red" points="609.076,-97.0122 601.331,-89.7833 602.878,-100.265 609.076,-97.0122"/>
</g>
<!-- d7e33292 -->
<g id="node70" class="node"><title>d7e33292</title>
<ellipse fill="none" stroke="black" cx="755" cy="-180" rx="27" ry="18"/>
<text text-anchor="middle" x="755" y="-175.4" font-family="Times New Roman,serif" font-size="14.00">gt</text>
</g>
<!-- d7e33291&#45;&gt;d7e33292 -->
<g id="edge92" class="edge"><title>d7e33291&#45;&gt;d7e33292</title>
<path fill="none" stroke="black" d="M755,-215.718C755,-213.343 755,-210.867 755,-208.375"/>
<polygon fill="black" stroke="black" points="758.5,-208.263 755,-198.263 751.5,-208.263 758.5,-208.263"/>
</g>
<!-- d7e33297 -->
<g id="node84" class="node"><title>d7e33297</title>
<ellipse fill="none" stroke="black" cx="846" cy="-180" rx="27" ry="18"/>
<text text-anchor="middle" x="846" y="-175.4" font-family="Times New Roman,serif" font-size="14.00">eq</text>
</g>
<!-- d7e33291&#45;&gt;d7e33297 -->
<g id="edge94" class="edge"><title>d7e33291&#45;&gt;d7e33297</title>
<path fill="none" stroke="black" d="M775.196,-222.016C787.363,-214.795 803.071,-205.474 816.599,-197.447"/>
<polygon fill="black" stroke="black" points="818.732,-200.251 825.546,-192.138 815.16,-194.231 818.732,-200.251"/>
</g>
<!-- p4 -->
<g id="node72" class="node"><title>p4</title>
<ellipse fill="none" stroke="black" cx="676" cy="-126" rx="27" ry="18"/>
<text text-anchor="middle" x="676" y="-121.4" font-family="Times New Roman,serif" font-size="14.00">path</text>
</g>
<!-- d7e33292&#45;&gt;p4 -->
<g id="edge69" class="edge"><title>d7e33292&#45;&gt;p4</title>
<path fill="none" stroke="black" d="M735.876,-166.928C726.076,-160.229 713.97,-151.954 703.214,-144.602"/>
<polygon fill="black" stroke="black" points="705.178,-141.705 694.948,-138.952 701.228,-147.484 705.178,-141.705"/>
</g>
<!-- d7e33296 -->
<g id="node80" class="node"><title>d7e33296</title>
<ellipse fill="none" stroke="black" cx="761" cy="-126" rx="40.2492" ry="18"/>
<text text-anchor="middle" x="761" y="-121.4" font-family="Times New Roman,serif" font-size="14.00">1000.00</text>
</g>
<!-- d7e33292&#45;&gt;d7e33296 -->
<g id="edge71" class="edge"><title>d7e33292&#45;&gt;d7e33296</title>
<path fill="none" stroke="black" d="M756.998,-162.019C757.278,-159.495 757.572,-156.853 757.867,-154.195"/>
<polygon fill="black" stroke="black" points="761.365,-154.412 758.99,-144.087 754.407,-153.639 761.365,-154.412"/>
</g>
<!-- p4&#45;&gt;camt -->
<g id="edge64" class="edge"><title>p4&#45;&gt;camt</title>
<path fill="none" stroke="black" d="M656.518,-113.476C647.43,-107.634 636.346,-100.508 625.947,-93.8228"/>
<polygon fill="black" stroke="black" points="627.735,-90.8118 617.431,-88.3483 623.95,-96.7001 627.735,-90.8118"/>
</g>
<!-- d4 -->
<g id="node76" class="node"><title>d4</title>
<ellipse fill="none" stroke="black" cx="697" cy="-72" rx="27" ry="18"/>
<text text-anchor="middle" x="697" y="-67.4" font-family="Times New Roman,serif" font-size="14.00">//</text>
</g>
<!-- p4&#45;&gt;d4 -->
<g id="edge66" class="edge"><title>p4&#45;&gt;d4</title>
<path fill="none" stroke="black" d="M676.683,-107.718C677.707,-104.437 678.954,-100.962 680.334,-97.5206"/>
<polygon fill="black" stroke="black" points="683.661,-98.653 684.508,-88.0921 677.26,-95.8198 683.661,-98.653"/>
</g>
<!-- camt&#45;&gt;d4 -->
<g id="edge147" class="edge"><title>camt&#45;&gt;d4</title>
<path fill="none" stroke="red" d="M652.293,-72C654.749,-72 657.205,-72 659.66,-72"/>
<polygon fill="red" stroke="red" points="659.757,-75.5001 669.757,-72 659.757,-68.5001 659.757,-75.5001"/>
</g>
<!-- d4&#45;&gt;p4 -->
<g id="edge149" class="edge"><title>d4&#45;&gt;p4</title>
<path fill="none" stroke="red" d="M696.38,-90.0798C695.329,-93.4683 694.038,-97.068 692.605,-100.63"/>
<polygon fill="red" stroke="red" points="689.394,-99.2374 688.546,-109.798 695.795,-102.071 689.394,-99.2374"/>
</g>
<!-- p5 -->
<g id="node86" class="node"><title>p5</title>
<ellipse fill="none" stroke="black" cx="846" cy="-126" rx="27" ry="18"/>
<text text-anchor="middle" x="846" y="-121.4" font-family="Times New Roman,serif" font-size="14.00">path</text>
</g>
<!-- d7e33297&#45;&gt;p5 -->
<g id="edge88" class="edge"><title>d7e33297&#45;&gt;p5</title>
<path fill="none" stroke="black" d="M846,-161.718C846,-159.343 846,-156.867 846,-154.375"/>
<polygon fill="black" stroke="black" points="849.5,-154.263 846,-144.263 842.5,-154.263 849.5,-154.263"/>
</g>
<!-- d7e33303 -->
<g id="node100" class="node"><title>d7e33303</title>
<ellipse fill="none" stroke="black" cx="935" cy="-126" rx="43.7767" ry="18"/>
<text text-anchor="middle" x="935" y="-121.4" font-family="Times New Roman,serif" font-size="14.00">&#39;Skipton&#39;</text>
</g>
<!-- d7e33297&#45;&gt;d7e33303 -->
<g id="edge90" class="edge"><title>d7e33297&#45;&gt;d7e33303</title>
<path fill="none" stroke="black" d="M866.195,-167.747C876.576,-161.448 889.502,-153.605 901.339,-146.424"/>
<polygon fill="black" stroke="black" points="903.384,-149.277 910.118,-141.097 899.753,-143.292 903.384,-149.277"/>
</g>
<!-- p5&#45;&gt;varref -->
<g id="edge83" class="edge"><title>p5&#45;&gt;varref</title>
<path fill="none" stroke="black" d="M839.124,-108.318C838.011,-105.458 836.837,-102.438 835.66,-99.4116"/>
<polygon fill="black" stroke="black" points="838.85,-97.9577 831.964,-89.9062 832.326,-100.495 838.85,-97.9577"/>
</g>
<!-- p6 -->
<g id="node90" class="node"><title>p6</title>
<ellipse fill="none" stroke="black" cx="911" cy="-72" rx="27" ry="18"/>
<text text-anchor="middle" x="911" y="-67.4" font-family="Times New Roman,serif" font-size="14.00">path</text>
</g>
<!-- p5&#45;&gt;p6 -->
<g id="edge85" class="edge"><title>p5&#45;&gt;p6</title>
<path fill="none" stroke="black" d="M858.935,-110.09C865.825,-103.837 874.441,-96.6232 882.715,-90.1667"/>
<polygon fill="black" stroke="black" points="884.952,-92.8625 890.797,-84.0263 880.717,-87.2885 884.952,-92.8625"/>
</g>
<!-- childname -->
<g id="node92" class="node"><title>childname</title>
<ellipse fill="none" stroke="black" cx="819" cy="-18" rx="51.8257" ry="18"/>
<text text-anchor="middle" x="819" y="-13.4" font-family="Times New Roman,serif" font-size="14.00">child::name</text>
</g>
<!-- varref&#45;&gt;childname -->
<g id="edge167" class="edge"><title>varref&#45;&gt;childname</title>
<path fill="none" stroke="red" d="M823.002,-54.0188C822.722,-51.4953 822.428,-48.853 822.133,-46.1953"/>
<polygon fill="red" stroke="red" points="825.593,-45.6391 821.01,-36.0868 818.635,-46.4122 825.593,-45.6391"/>
</g>
<!-- p6&#45;&gt;p5 -->
<g id="edge173" class="edge"><title>p6&#45;&gt;p5</title>
<path fill="none" stroke="red" d="M898.136,-87.846C891.227,-94.12 882.57,-101.369 874.261,-107.852"/>
<polygon fill="red" stroke="red" points="871.993,-105.18 866.146,-114.016 876.226,-110.755 871.993,-105.18"/>
</g>
<!-- p6&#45;&gt;childname -->
<g id="edge79" class="edge"><title>p6&#45;&gt;childname</title>
<path fill="none" stroke="black" d="M890.582,-60.0156C879.933,-53.7648 866.601,-45.9397 854.339,-38.7423"/>
<polygon fill="black" stroke="black" points="856.049,-35.6876 845.653,-33.644 852.505,-41.7245 856.049,-35.6876"/>
</g>
<!-- dd5 -->
<g id="node94" class="node"><title>dd5</title>
<ellipse fill="none" stroke="black" cx="916" cy="-18" rx="27" ry="18"/>
<text text-anchor="middle" x="916" y="-13.4" font-family="Times New Roman,serif" font-size="14.00">//</text>
</g>
<!-- p6&#45;&gt;dd5 -->
<g id="edge81" class="edge"><title>p6&#45;&gt;dd5</title>
<path fill="none" stroke="black" d="M906.261,-54.0188C906.297,-51.2939 906.447,-48.4306 906.7,-45.5589"/>
<polygon fill="black" stroke="black" points="910.208,-45.724 908.042,-35.3529 903.268,-44.8112 910.208,-45.724"/>
</g>
<!-- childname&#45;&gt;dd5 -->
<g id="edge169" class="edge"><title>childname&#45;&gt;dd5</title>
<path fill="none" stroke="red" d="M871.289,-18C873.745,-18 876.201,-18 878.657,-18"/>
<polygon fill="red" stroke="red" points="878.754,-21.5001 888.754,-18 878.754,-14.5001 878.754,-21.5001"/>
</g>
<!-- dd5&#45;&gt;p6 -->
<g id="edge171" class="edge"><title>dd5&#45;&gt;p6</title>
<path fill="none" stroke="red" d="M920.742,-35.7213C920.712,-38.5667 920.557,-41.5685 920.288,-44.5774"/>
<polygon fill="red" stroke="red" points="916.802,-44.2449 918.964,-54.6168 923.742,-45.1607 916.802,-44.2449"/>
</g>
<!-- copydesc&#45;&gt;copypath -->
<g id="edge145" class="edge"><title>copydesc&#45;&gt;copypath</title>
<path fill="none" stroke="red" d="M734.715,-303.33C726.516,-310.024 716.07,-317.904 706.274,-324.798"/>
<polygon fill="red" stroke="red" points="704.165,-322 697.905,-330.548 708.129,-327.77 704.165,-322"/>
</g>
<!-- dummy0 -->
<g id="node118" class="node"><title>dummy0</title>
<ellipse fill="none" stroke="white" cx="520" cy="-558" rx="0" ry="0.5"/>
</g>
<!-- dummy1&#45;&gt;dot -->
<g id="edge137" class="edge"><title>dummy1&#45;&gt;dot</title>
<path fill="none" stroke="red" d="M502.134,-557.493C502.763,-555.201 505.613,-545.678 511,-540 589.085,-457.697 655.531,-496.883 733,-414 779.464,-364.289 826.303,-324.076 785,-270 766.545,-245.837 747.709,-262.013 719,-252 715.678,-250.842 712.247,-249.544 708.844,-248.191"/>
<polygon fill="red" stroke="red" points="710.021,-244.89 699.443,-244.298 707.343,-251.358 710.021,-244.89"/>
</g>
</g>
</svg>
