<?xml version="1.0" encoding="UTF-8" standalone="no"?>
<!DOCTYPE svg PUBLIC "-//W3C//DTD SVG 1.1//EN"
 "http://www.w3.org/Graphics/SVG/1.1/DTD/svg11.dtd">
<!-- Generated by graphviz version 2.24.0 (20090616.2323)
 -->
<!-- Title: g Pages: 1 -->
<svg width="523pt" height="152pt"
 viewBox="0.00 0.00 523.00 152.00" xmlns="http://www.w3.org/2000/svg" xmlns:xlink="http://www.w3.org/1999/xlink">
<g id="graph1" class="graph" transform="scale(1 1) rotate(0) translate(4 148)">
<title>g</title>
<polygon fill="white" stroke="white" points="-4,5 -4,-148 520,-148 520,5 -4,5"/>
<!-- d7e33184 -->
<g id="node2" class="node"><title>d7e33184</title>
<ellipse fill="none" stroke="black" cx="199" cy="-126" rx="53.838" ry="18"/>
<text text-anchor="middle" x="199" y="-121.4" font-family="Times New Roman,serif" font-size="14.00">xsl:template</text>
</g>
<!-- d7e33185 -->
<g id="node4" class="node"><title>d7e33185</title>
<ellipse fill="none" stroke="black" cx="62" cy="-72" rx="61.8872" ry="18"/>
<text text-anchor="middle" x="62" y="-67.4" font-family="Times New Roman,serif" font-size="14.00">ancestor::para</text>
</g>
<!-- d7e33184&#45;&gt;d7e33185 -->
<g id="edge12" class="edge"><title>d7e33184&#45;&gt;d7e33185</title>
<path fill="none" stroke="red" d="M164.075,-112.234C147.062,-105.528 126.379,-97.3758 108.091,-90.1674"/>
<polygon fill="red" stroke="red" points="109.365,-86.9074 98.7782,-86.4965 106.798,-93.4198 109.365,-86.9074"/>
</g>
<!-- d7e33186 -->
<g id="node6" class="node"><title>d7e33186</title>
<ellipse fill="none" stroke="black" cx="199" cy="-72" rx="57.1889" ry="18"/>
<text text-anchor="middle" x="199" y="-67.4" font-family="Times New Roman,serif" font-size="14.00">child::node()</text>
</g>
<!-- d7e33184&#45;&gt;d7e33186 -->
<g id="edge14" class="edge"><title>d7e33184&#45;&gt;d7e33186</title>
<path fill="none" stroke="red" d="M199,-107.718C199,-105.343 199,-102.867 199,-100.375"/>
<polygon fill="red" stroke="red" points="202.5,-100.263 199,-90.2631 195.5,-100.263 202.5,-100.263"/>
</g>
<!-- d7e33188 -->
<g id="node11" class="node"><title>d7e33188</title>
<ellipse fill="none" stroke="black" cx="382" cy="-72" rx="57.1889" ry="18"/>
<text text-anchor="middle" x="382" y="-67.4" font-family="Times New Roman,serif" font-size="14.00">child::node()</text>
</g>
<!-- d7e33184&#45;&gt;d7e33188 -->
<g id="edge16" class="edge"><title>d7e33184&#45;&gt;d7e33188</title>
<path fill="none" stroke="red" d="M239.614,-114.016C266.365,-106.122 301.624,-95.7174 330.363,-87.2373"/>
<polygon fill="red" stroke="red" points="331.631,-90.5124 340.231,-84.3252 329.649,-83.7986 331.631,-90.5124"/>
</g>
<!-- d7e33187 -->
<g id="node8" class="node"><title>d7e33187</title>
<ellipse fill="none" stroke="black" cx="173" cy="-18" rx="108.172" ry="18"/>
<text text-anchor="middle" x="173" y="-13.4" font-family="Times New Roman,serif" font-size="14.00">descendant&#45;or&#45;self::node()</text>
</g>
<!-- d7e33186&#45;&gt;d7e33187 -->
<g id="edge6" class="edge"><title>d7e33186&#45;&gt;d7e33187</title>
<path fill="none" stroke="red" d="M190.342,-54.0188C188.997,-51.2249 187.582,-48.2855 186.164,-45.3406"/>
<polygon fill="red" stroke="red" points="189.2,-43.5785 181.708,-36.0868 182.893,-46.6152 189.2,-43.5785"/>
</g>
<!-- d7e33189 -->
<g id="node13" class="node"><title>d7e33189</title>
<ellipse fill="none" stroke="black" cx="407" cy="-18" rx="108.172" ry="18"/>
<text text-anchor="middle" x="407" y="-13.4" font-family="Times New Roman,serif" font-size="14.00">descendant&#45;or&#45;self::node()</text>
</g>
<!-- d7e33188&#45;&gt;d7e33189 -->
<g id="edge10" class="edge"><title>d7e33188&#45;&gt;d7e33189</title>
<path fill="none" stroke="red" d="M390.325,-54.0188C391.618,-51.2249 392.979,-48.2855 394.342,-45.3406"/>
<polygon fill="red" stroke="red" points="397.601,-46.6319 398.626,-36.0868 391.249,-43.691 397.601,-46.6319"/>
</g>
</g>
</svg>
