<?xml version="1.0" encoding="UTF-8" standalone="no"?>
<!DOCTYPE svg PUBLIC "-//W3C//DTD SVG 1.1//EN"
 "http://www.w3.org/Graphics/SVG/1.1/DTD/svg11.dtd">
<!-- Generated by graphviz version 2.24.0 (20090616.2323)
 -->
<!-- Title: g Pages: 1 -->
<svg width="422pt" height="260pt"
 viewBox="0.00 0.00 422.00 260.00" xmlns="http://www.w3.org/2000/svg" xmlns:xlink="http://www.w3.org/1999/xlink">
<g id="graph1" class="graph" transform="scale(1 1) rotate(0) translate(4 256)">
<title>g</title>
<polygon fill="white" stroke="white" points="-4,5 -4,-256 419,-256 419,5 -4,5"/>
<!-- d7e29963 -->
<g id="node2" class="node"><title>d7e29963</title>
<ellipse fill="none" stroke="black" cx="272" cy="-234" rx="47.8011" ry="18"/>
<text text-anchor="middle" x="272" y="-229.4" font-family="Times New Roman,serif" font-size="14.00">xsl:stream</text>
</g>
<!-- d7e29964 -->
<g id="node4" class="node"><title>d7e29964</title>
<ellipse fill="none" stroke="black" cx="272" cy="-180" rx="55.8503" ry="18"/>
<text text-anchor="middle" x="272" y="-175.4" font-family="Times New Roman,serif" font-size="14.00">&lt;inventory&gt;</text>
</g>
<!-- d7e29963&#45;&gt;d7e29964 -->
<g id="edge22" class="edge"><title>d7e29963&#45;&gt;d7e29964</title>
<path fill="none" stroke="black" d="M272,-215.718C272,-213.343 272,-210.867 272,-208.375"/>
<polygon fill="black" stroke="black" points="275.5,-208.263 272,-198.263 268.5,-208.263 275.5,-208.263"/>
</g>
<!-- d7e29965 -->
<g id="node6" class="node"><title>d7e29965</title>
<ellipse fill="none" stroke="black" cx="207" cy="-126" rx="59.8749" ry="18"/>
<text text-anchor="middle" x="207" y="-121.4" font-family="Times New Roman,serif" font-size="14.00">format&#45;date()</text>
</g>
<!-- d7e29964&#45;&gt;d7e29965 -->
<g id="edge18" class="edge"><title>d7e29964&#45;&gt;d7e29965</title>
<path fill="none" stroke="black" d="M251.79,-163.21C246.582,-158.883 240.88,-154.146 235.342,-149.545"/>
<polygon fill="black" stroke="black" points="237.35,-146.664 227.421,-142.966 232.877,-152.048 237.35,-146.664"/>
</g>
<!-- d7e29968 -->
<g id="node14" class="node"><title>d7e29968</title>
<ellipse fill="none" stroke="black" cx="338" cy="-126" rx="53.1641" ry="18"/>
<text text-anchor="middle" x="338" y="-121.4" font-family="Times New Roman,serif" font-size="14.00">xsl:value&#45;of</text>
</g>
<!-- d7e29964&#45;&gt;d7e29968 -->
<g id="edge20" class="edge"><title>d7e29964&#45;&gt;d7e29968</title>
<path fill="none" stroke="black" d="M292.521,-163.21C297.809,-158.883 303.599,-154.146 309.222,-149.545"/>
<polygon fill="black" stroke="black" points="311.741,-152.007 317.264,-142.966 307.308,-146.589 311.741,-152.007"/>
</g>
<!-- d7e29966 -->
<g id="node8" class="node"><title>d7e29966</title>
<ellipse fill="none" stroke="black" cx="61" cy="-72" rx="61.2137" ry="18"/>
<text text-anchor="middle" x="61" y="-67.4" font-family="Times New Roman,serif" font-size="14.00">current&#45;date()</text>
</g>
<!-- d7e29965&#45;&gt;d7e29966 -->
<g id="edge7" class="edge"><title>d7e29965&#45;&gt;d7e29966</title>
<path fill="none" stroke="black" d="M169.021,-111.953C150.662,-105.163 128.431,-96.9401 108.92,-89.7238"/>
<polygon fill="black" stroke="black" points="109.889,-86.3505 99.2957,-86.1642 107.461,-92.9158 109.889,-86.3505"/>
</g>
<!-- d7e29967 -->
<g id="node10" class="node"><title>d7e29967</title>
<ellipse fill="none" stroke="black" cx="210" cy="-72" rx="69.9366" ry="18"/>
<text text-anchor="middle" x="210" y="-67.4" font-family="Times New Roman,serif" font-size="14.00">&#39;[D] [MNn] [Y]&#39;</text>
</g>
<!-- d7e29965&#45;&gt;d7e29967 -->
<g id="edge9" class="edge"><title>d7e29965&#45;&gt;d7e29967</title>
<path fill="none" stroke="black" d="M208.016,-107.718C208.148,-105.343 208.285,-102.867 208.424,-100.375"/>
<polygon fill="black" stroke="black" points="211.925,-100.442 208.985,-90.2631 204.936,-100.054 211.925,-100.442"/>
</g>
<!-- d7e29969 -->
<g id="node16" class="node"><title>d7e29969</title>
<ellipse fill="none" stroke="black" cx="338" cy="-72" rx="38.2368" ry="18"/>
<text text-anchor="middle" x="338" y="-67.4" font-family="Times New Roman,serif" font-size="14.00">count()</text>
</g>
<!-- d7e29968&#45;&gt;d7e29969 -->
<g id="edge16" class="edge"><title>d7e29968&#45;&gt;d7e29969</title>
<path fill="none" stroke="black" d="M338,-107.718C338,-105.343 338,-102.867 338,-100.375"/>
<polygon fill="black" stroke="black" points="341.5,-100.263 338,-90.2631 334.5,-100.263 341.5,-100.263"/>
</g>
<!-- d7e29970 -->
<g id="node18" class="node"><title>d7e29970</title>
<ellipse fill="none" stroke="black" cx="338" cy="-18" rx="75.9737" ry="18"/>
<text text-anchor="middle" x="338" y="-13.4" font-family="Times New Roman,serif" font-size="14.00">descendant::book</text>
</g>
<!-- d7e29969&#45;&gt;d7e29970 -->
<g id="edge14" class="edge"><title>d7e29969&#45;&gt;d7e29970</title>
<path fill="none" stroke="black" d="M338,-53.7181C338,-51.3429 338,-48.867 338,-46.3754"/>
<polygon fill="black" stroke="black" points="341.5,-46.2631 338,-36.2631 334.5,-46.2631 341.5,-46.2631"/>
</g>
</g>
</svg>
