<?xml version="1.0" encoding="UTF-8" standalone="no"?>
<!DOCTYPE svg PUBLIC "-//W3C//DTD SVG 1.1//EN"
 "http://www.w3.org/Graphics/SVG/1.1/DTD/svg11.dtd">
<!-- Generated by graphviz version 2.24.0 (20090616.2323)
 -->
<!-- Title: g Pages: 1 -->
<svg width="318pt" height="422pt"
 viewBox="0.00 0.00 318.00 422.00" xmlns="http://www.w3.org/2000/svg" xmlns:xlink="http://www.w3.org/1999/xlink">
<g id="graph1" class="graph" transform="scale(1 1) rotate(0) translate(4 418)">
<title>g</title>
<polygon fill="white" stroke="white" points="-4,5 -4,-418 315,-418 315,5 -4,5"/>
<!-- d7e33344 -->
<g id="node2" class="node"><title>d7e33344</title>
<ellipse fill="none" stroke="black" cx="202" cy="-396" rx="47.8011" ry="18"/>
<text text-anchor="middle" x="202" y="-391.4" font-family="Times New Roman,serif" font-size="14.00">xsl:stream</text>
</g>
<!-- d7e33345 -->
<g id="node4" class="node"><title>d7e33345</title>
<ellipse fill="none" stroke="black" cx="202" cy="-342" rx="61.8872" ry="18"/>
<text text-anchor="middle" x="202" y="-337.4" font-family="Times New Roman,serif" font-size="14.00">child::account</text>
</g>
<!-- d7e33344&#45;&gt;d7e33345 -->
<g id="edge46" class="edge"><title>d7e33344&#45;&gt;d7e33345</title>
<path fill="none" stroke="red" d="M202,-377.718C202,-375.343 202,-372.867 202,-370.375"/>
<polygon fill="red" stroke="red" points="205.5,-370.263 202,-360.263 198.5,-370.263 205.5,-370.263"/>
</g>
<!-- d7e33346 -->
<g id="node6" class="node"><title>d7e33346</title>
<ellipse fill="none" stroke="black" cx="202" cy="-288" rx="73.7902" ry="18"/>
<text text-anchor="middle" x="202" y="-283.4" font-family="Times New Roman,serif" font-size="14.00">child::transaction</text>
</g>
<!-- d7e33345&#45;&gt;d7e33346 -->
<g id="edge44" class="edge"><title>d7e33345&#45;&gt;d7e33346</title>
<path fill="none" stroke="red" d="M202,-323.718C202,-321.343 202,-318.867 202,-316.375"/>
<polygon fill="red" stroke="red" points="205.5,-316.263 202,-306.263 198.5,-316.263 205.5,-316.263"/>
</g>
<!-- d7e33347 -->
<g id="node8" class="node"><title>d7e33347</title>
<ellipse fill="none" stroke="black" cx="156" cy="-234" rx="27" ry="18"/>
<text text-anchor="middle" x="156" y="-229.4" font-family="Times New Roman,serif" font-size="14.00">path</text>
</g>
<!-- d7e33346&#45;&gt;d7e33347 -->
<g id="edge40" class="edge"><title>d7e33346&#45;&gt;d7e33347</title>
<path fill="none" stroke="red" d="M186.938,-270.318C183.489,-266.27 179.769,-261.902 176.145,-257.648"/>
<polygon fill="red" stroke="red" points="178.539,-255.062 169.39,-249.719 173.21,-259.601 178.539,-255.062"/>
</g>
<!-- d7e33355 -->
<g id="node31" class="node"><title>d7e33355</title>
<ellipse fill="none" stroke="black" cx="248" cy="-234" rx="42.9325" ry="18"/>
<text text-anchor="middle" x="248" y="-229.4" font-family="Times New Roman,serif" font-size="14.00">current()</text>
</g>
<!-- d7e33346&#45;&gt;d7e33355 -->
<g id="edge42" class="edge"><title>d7e33346&#45;&gt;d7e33355</title>
<path fill="none" stroke="red" d="M217.062,-270.318C220.174,-266.666 223.506,-262.754 226.79,-258.899"/>
<polygon fill="red" stroke="red" points="229.554,-261.052 233.374,-251.169 224.225,-256.512 229.554,-261.052"/>
</g>
<!-- d7e33348 -->
<g id="node10" class="node"><title>d7e33348</title>
<ellipse fill="none" stroke="black" cx="149" cy="-180" rx="27" ry="18"/>
<text text-anchor="middle" x="149" y="-175.4" font-family="Times New Roman,serif" font-size="14.00">.</text>
</g>
<!-- d7e33347&#45;&gt;d7e33348 -->
<g id="edge25" class="edge"><title>d7e33347&#45;&gt;d7e33348</title>
<path fill="none" stroke="red" d="M153.669,-216.019C153.342,-213.495 152.999,-210.853 152.655,-208.195"/>
<polygon fill="red" stroke="red" points="156.101,-207.554 151.345,-198.087 149.159,-208.454 156.101,-207.554"/>
</g>
<!-- d7e33349 -->
<g id="node12" class="node"><title>d7e33349</title>
<ellipse fill="none" stroke="black" cx="60" cy="-126" rx="59.8749" ry="18"/>
<text text-anchor="middle" x="60" y="-121.4" font-family="Times New Roman,serif" font-size="14.00">child::amount</text>
</g>
<!-- d7e33348&#45;&gt;d7e33349 -->
<g id="edge21" class="edge"><title>d7e33348&#45;&gt;d7e33349</title>
<path fill="none" stroke="red" d="M128.805,-167.747C119.011,-161.805 106.952,-154.488 95.6802,-147.649"/>
<polygon fill="red" stroke="red" points="97.232,-144.496 86.867,-142.301 93.6009,-150.481 97.232,-144.496"/>
</g>
<!-- d7e33352 -->
<g id="node20" class="node"><title>d7e33352</title>
<ellipse fill="none" stroke="black" cx="165" cy="-126" rx="27.0036" ry="18"/>
<text text-anchor="middle" x="165" y="-121.4" font-family="Times New Roman,serif" font-size="14.00">filter</text>
</g>
<!-- d7e33348&#45;&gt;d7e33352 -->
<g id="edge23" class="edge"><title>d7e33348&#45;&gt;d7e33352</title>
<path fill="none" stroke="red" d="M154.239,-162.318C155.059,-159.55 155.924,-156.633 156.791,-153.704"/>
<polygon fill="red" stroke="red" points="160.209,-154.489 159.694,-143.906 153.498,-152.5 160.209,-154.489"/>
</g>
<!-- d7e33350 -->
<g id="node14" class="node"><title>d7e33350</title>
<ellipse fill="none" stroke="black" cx="60" cy="-72" rx="27" ry="18"/>
<text text-anchor="middle" x="60" y="-67.4" font-family="Times New Roman,serif" font-size="14.00">//</text>
</g>
<!-- d7e33349&#45;&gt;d7e33350 -->
<g id="edge12" class="edge"><title>d7e33349&#45;&gt;d7e33350</title>
<path fill="none" stroke="red" d="M60,-107.718C60,-105.343 60,-102.867 60,-100.375"/>
<polygon fill="red" stroke="red" points="63.5001,-100.263 60,-90.2631 56.5001,-100.263 63.5001,-100.263"/>
</g>
<!-- d7e33351 -->
<g id="node16" class="node"><title>d7e33351</title>
<ellipse fill="none" stroke="black" cx="60" cy="-18" rx="27" ry="18"/>
<text text-anchor="middle" x="60" y="-13.4" font-family="Times New Roman,serif" font-size="14.00">path</text>
</g>
<!-- d7e33350&#45;&gt;d7e33351 -->
<g id="edge10" class="edge"><title>d7e33350&#45;&gt;d7e33351</title>
<path fill="none" stroke="red" d="M60,-53.7181C60,-51.3429 60,-48.867 60,-46.3754"/>
<polygon fill="red" stroke="red" points="63.5001,-46.2631 60,-36.2631 56.5001,-46.2631 63.5001,-46.2631"/>
</g>
<!-- d7e33353 -->
<g id="node22" class="node"><title>d7e33353</title>
<ellipse fill="none" stroke="black" cx="165" cy="-72" rx="27" ry="18"/>
<text text-anchor="middle" x="165" y="-67.4" font-family="Times New Roman,serif" font-size="14.00">//</text>
</g>
<!-- d7e33352&#45;&gt;d7e33353 -->
<g id="edge19" class="edge"><title>d7e33352&#45;&gt;d7e33353</title>
<path fill="none" stroke="red" d="M165,-107.718C165,-105.343 165,-102.867 165,-100.375"/>
<polygon fill="red" stroke="red" points="168.5,-100.263 165,-90.2631 161.5,-100.263 168.5,-100.263"/>
</g>
<!-- d7e33354 -->
<g id="node24" class="node"><title>d7e33354</title>
<ellipse fill="none" stroke="black" cx="165" cy="-18" rx="27" ry="18"/>
<text text-anchor="middle" x="165" y="-13.4" font-family="Times New Roman,serif" font-size="14.00">path</text>
</g>
<!-- d7e33353&#45;&gt;d7e33354 -->
<g id="edge17" class="edge"><title>d7e33353&#45;&gt;d7e33354</title>
<path fill="none" stroke="red" d="M165,-53.7181C165,-51.3429 165,-48.867 165,-46.3754"/>
<polygon fill="red" stroke="red" points="168.5,-46.2631 165,-36.2631 161.5,-46.2631 168.5,-46.2631"/>
</g>
<!-- d7e33356 -->
<g id="node33" class="node"><title>d7e33356</title>
<ellipse fill="none" stroke="black" cx="252" cy="-180" rx="57.8626" ry="18"/>
<text text-anchor="middle" x="252" y="-175.4" font-family="Times New Roman,serif" font-size="14.00">child::branch</text>
</g>
<!-- d7e33355&#45;&gt;d7e33356 -->
<g id="edge38" class="edge"><title>d7e33355&#45;&gt;d7e33356</title>
<path fill="none" stroke="red" d="M249.354,-215.718C249.53,-213.343 249.714,-210.867 249.898,-208.375"/>
<polygon fill="red" stroke="red" points="253.399,-208.494 250.647,-198.263 246.418,-207.977 253.399,-208.494"/>
</g>
<!-- d7e33357 -->
<g id="node35" class="node"><title>d7e33357</title>
<ellipse fill="none" stroke="black" cx="252" cy="-126" rx="27" ry="18"/>
<text text-anchor="middle" x="252" y="-121.4" font-family="Times New Roman,serif" font-size="14.00">//</text>
</g>
<!-- d7e33356&#45;&gt;d7e33357 -->
<g id="edge36" class="edge"><title>d7e33356&#45;&gt;d7e33357</title>
<path fill="none" stroke="red" d="M252,-161.718C252,-159.343 252,-156.867 252,-154.375"/>
<polygon fill="red" stroke="red" points="255.5,-154.263 252,-144.263 248.5,-154.263 255.5,-154.263"/>
</g>
<!-- d7e33358 -->
<g id="node37" class="node"><title>d7e33358</title>
<ellipse fill="none" stroke="black" cx="252" cy="-72" rx="27" ry="18"/>
<text text-anchor="middle" x="252" y="-67.4" font-family="Times New Roman,serif" font-size="14.00">path</text>
</g>
<!-- d7e33357&#45;&gt;d7e33358 -->
<g id="edge34" class="edge"><title>d7e33357&#45;&gt;d7e33358</title>
<path fill="none" stroke="red" d="M252,-107.718C252,-105.343 252,-102.867 252,-100.375"/>
<polygon fill="red" stroke="red" points="255.5,-100.263 252,-90.2631 248.5,-100.263 255.5,-100.263"/>
</g>
<!-- d7e33359 -->
<g id="node39" class="node"><title>d7e33359</title>
<ellipse fill="none" stroke="black" cx="252" cy="-18" rx="27" ry="18"/>
<text text-anchor="middle" x="252" y="-13.4" font-family="Times New Roman,serif" font-size="14.00">path</text>
</g>
<!-- d7e33358&#45;&gt;d7e33359 -->
<g id="edge32" class="edge"><title>d7e33358&#45;&gt;d7e33359</title>
<path fill="none" stroke="red" d="M252,-53.7181C252,-51.3429 252,-48.867 252,-46.3754"/>
<polygon fill="red" stroke="red" points="255.5,-46.2631 252,-36.2631 248.5,-46.2631 255.5,-46.2631"/>
</g>
</g>
</svg>
