<?xml version="1.0" encoding="UTF-8" standalone="no"?>
<!DOCTYPE svg PUBLIC "-//W3C//DTD SVG 1.1//EN"
 "http://www.w3.org/Graphics/SVG/1.1/DTD/svg11.dtd">
<!-- Generated by graphviz version 2.24.0 (20090616.2323)
 -->
<!-- Title: g Pages: 1 -->
<svg width="484pt" height="368pt"
 viewBox="0.00 0.00 484.00 368.00" xmlns="http://www.w3.org/2000/svg" xmlns:xlink="http://www.w3.org/1999/xlink">
<g id="graph1" class="graph" transform="scale(1 1) rotate(0) translate(4 364)">
<title>g</title>
<polygon fill="white" stroke="white" points="-4,5 -4,-364 481,-364 481,5 -4,5"/>
<!-- d7e31168 -->
<g id="node2" class="node"><title>d7e31168</title>
<ellipse fill="none" stroke="black" cx="150" cy="-342" rx="53.838" ry="18"/>
<text text-anchor="middle" x="150" y="-337.4" font-family="Times New Roman,serif" font-size="14.00">xsl:template</text>
</g>
<!-- sequence_constructor -->
<g id="node4" class="node"><title>sequence_constructor</title>
<ellipse fill="none" stroke="black" cx="150" cy="-288" rx="91.2316" ry="18"/>
<text text-anchor="middle" x="150" y="-283.4" font-family="Times New Roman,serif" font-size="14.00">sequence constructor</text>
</g>
<!-- d7e31168&#45;&gt;sequence_constructor -->
<g id="edge46" class="edge"><title>d7e31168&#45;&gt;sequence_constructor</title>
<path fill="none" stroke="black" d="M150,-323.718C150,-321.343 150,-318.867 150,-316.375"/>
<polygon fill="black" stroke="black" points="153.5,-316.263 150,-306.263 146.5,-316.263 153.5,-316.263"/>
</g>
<!-- var_decl -->
<g id="node6" class="node"><title>var_decl</title>
<ellipse fill="none" stroke="black" cx="78" cy="-234" rx="77.9861" ry="18"/>
<text text-anchor="middle" x="78" y="-229.4" font-family="Times New Roman,serif" font-size="14.00">xsl:variable doc&#45;A</text>
</g>
<!-- sequence_constructor&#45;&gt;var_decl -->
<g id="edge42" class="edge"><title>sequence_constructor&#45;&gt;var_decl</title>
<path fill="none" stroke="black" d="M126.425,-270.318C121.024,-266.268 115.198,-261.898 109.522,-257.642"/>
<polygon fill="black" stroke="black" points="111.483,-254.737 101.383,-251.537 107.283,-260.337 111.483,-254.737"/>
</g>
<!-- d7e31173 -->
<g id="node14" class="node"><title>d7e31173</title>
<ellipse fill="none" stroke="black" cx="222" cy="-234" rx="47.8011" ry="18"/>
<text text-anchor="middle" x="222" y="-229.4" font-family="Times New Roman,serif" font-size="14.00">xsl:stream</text>
</g>
<!-- sequence_constructor&#45;&gt;d7e31173 -->
<g id="edge44" class="edge"><title>sequence_constructor&#45;&gt;d7e31173</title>
<path fill="none" stroke="black" d="M173.575,-270.318C179.44,-265.92 185.806,-261.145 191.936,-256.548"/>
<polygon fill="black" stroke="black" points="194.18,-259.24 200.08,-250.44 189.98,-253.64 194.18,-259.24"/>
</g>
<!-- var_init -->
<g id="node8" class="node"><title>var_init</title>
<ellipse fill="none" stroke="black" cx="78" cy="-180" rx="31.0281" ry="18"/>
<text text-anchor="middle" x="78" y="-175.4" font-family="Times New Roman,serif" font-size="14.00">doc()</text>
</g>
<!-- var_decl&#45;&gt;var_init -->
<g id="edge9" class="edge"><title>var_decl&#45;&gt;var_init</title>
<path fill="none" stroke="black" d="M78,-215.718C78,-213.343 78,-210.867 78,-208.375"/>
<polygon fill="black" stroke="black" points="81.5001,-208.263 78,-198.263 74.5001,-208.263 81.5001,-208.263"/>
</g>
<!-- d7e31172 -->
<g id="node10" class="node"><title>d7e31172</title>
<ellipse fill="none" stroke="black" cx="78" cy="-126" rx="34.8827" ry="18"/>
<text text-anchor="middle" x="78" y="-121.4" font-family="Times New Roman,serif" font-size="14.00">&#39;a.xml&#39;</text>
</g>
<!-- var_init&#45;&gt;d7e31172 -->
<g id="edge7" class="edge"><title>var_init&#45;&gt;d7e31172</title>
<path fill="none" stroke="black" d="M78,-161.718C78,-159.343 78,-156.867 78,-154.375"/>
<polygon fill="black" stroke="black" points="81.5001,-154.263 78,-144.263 74.5001,-154.263 81.5001,-154.263"/>
</g>
<!-- d7e31174 -->
<g id="node16" class="node"><title>d7e31174</title>
<ellipse fill="none" stroke="black" cx="192" cy="-180" rx="36.2243" ry="18"/>
<text text-anchor="middle" x="192" y="-175.4" font-family="Times New Roman,serif" font-size="14.00">&#39;b.xml&#39;</text>
</g>
<!-- d7e31173&#45;&gt;d7e31174 -->
<g id="edge38" class="edge"><title>d7e31173&#45;&gt;d7e31174</title>
<path fill="none" stroke="black" d="M212.177,-216.318C210.398,-213.116 208.507,-209.713 206.625,-206.325"/>
<polygon fill="black" stroke="black" points="209.659,-204.579 201.743,-197.537 203.54,-207.978 209.659,-204.579"/>
</g>
<!-- d7e31175 -->
<g id="node18" class="node"><title>d7e31175</title>
<ellipse fill="none" stroke="black" cx="273" cy="-180" rx="27" ry="18"/>
<text text-anchor="middle" x="273" y="-175.4" font-family="Times New Roman,serif" font-size="14.00">plus</text>
</g>
<!-- d7e31173&#45;&gt;d7e31175 -->
<g id="edge40" class="edge"><title>d7e31173&#45;&gt;d7e31175</title>
<path fill="none" stroke="black" d="M238.137,-216.914C242.427,-212.372 247.127,-207.395 251.648,-202.608"/>
<polygon fill="black" stroke="black" points="254.2,-205.003 258.522,-195.33 249.111,-200.197 254.2,-205.003"/>
</g>
<!-- d7e31176 -->
<g id="node20" class="node"><title>d7e31176</title>
<ellipse fill="none" stroke="black" cx="206" cy="-126" rx="38.2368" ry="18"/>
<text text-anchor="middle" x="206" y="-121.4" font-family="Times New Roman,serif" font-size="14.00">count()</text>
</g>
<!-- d7e31175&#45;&gt;d7e31176 -->
<g id="edge34" class="edge"><title>d7e31175&#45;&gt;d7e31176</title>
<path fill="none" stroke="black" d="M255.746,-166.094C248.912,-160.586 240.888,-154.119 233.304,-148.006"/>
<polygon fill="black" stroke="black" points="235.305,-145.124 225.323,-141.574 230.913,-150.574 235.305,-145.124"/>
</g>
<!-- d7e31180 -->
<g id="node31" class="node"><title>d7e31180</title>
<ellipse fill="none" stroke="black" cx="306" cy="-126" rx="38.2368" ry="18"/>
<text text-anchor="middle" x="306" y="-121.4" font-family="Times New Roman,serif" font-size="14.00">count()</text>
</g>
<!-- d7e31175&#45;&gt;d7e31180 -->
<g id="edge36" class="edge"><title>d7e31175&#45;&gt;d7e31180</title>
<path fill="none" stroke="black" d="M283.261,-163.21C285.432,-159.657 287.772,-155.828 290.096,-152.025"/>
<polygon fill="black" stroke="black" points="293.176,-153.697 295.404,-143.339 287.203,-150.047 293.176,-153.697"/>
</g>
<!-- path2 -->
<g id="node22" class="node"><title>path2</title>
<ellipse fill="none" stroke="black" cx="203" cy="-72" rx="27" ry="18"/>
<text text-anchor="middle" x="203" y="-67.4" font-family="Times New Roman,serif" font-size="14.00">path</text>
</g>
<!-- d7e31176&#45;&gt;path2 -->
<g id="edge22" class="edge"><title>d7e31176&#45;&gt;path2</title>
<path fill="none" stroke="black" d="M204.984,-107.718C204.852,-105.343 204.715,-102.867 204.576,-100.375"/>
<polygon fill="black" stroke="black" points="208.064,-100.054 204.015,-90.2631 201.075,-100.442 208.064,-100.054"/>
</g>
<!-- var_ref -->
<g id="node24" class="node"><title>var_ref</title>
<ellipse fill="none" stroke="black" cx="85" cy="-18" rx="39.0774" ry="18"/>
<text text-anchor="middle" x="85" y="-13.4" font-family="Times New Roman,serif" font-size="14.00">$doc&#45;A</text>
</g>
<!-- path2&#45;&gt;var_ref -->
<g id="edge18" class="edge"><title>path2&#45;&gt;var_ref</title>
<path fill="none" stroke="black" d="M180.527,-61.7159C163.977,-54.1422 141.106,-43.6755 121.891,-34.8824"/>
<polygon fill="black" stroke="black" points="123.346,-31.699 112.796,-30.7203 120.433,-38.0642 123.346,-31.699"/>
</g>
<!-- desc2 -->
<g id="node26" class="node"><title>desc2</title>
<ellipse fill="none" stroke="black" cx="203" cy="-18" rx="61.2137" ry="18"/>
<text text-anchor="middle" x="203" y="-13.4" font-family="Times New Roman,serif" font-size="14.00">descendant::*</text>
</g>
<!-- path2&#45;&gt;desc2 -->
<g id="edge20" class="edge"><title>path2&#45;&gt;desc2</title>
<path fill="none" stroke="black" d="M203,-53.7181C203,-51.3429 203,-48.867 203,-46.3754"/>
<polygon fill="black" stroke="black" points="206.5,-46.2631 203,-36.2631 199.5,-46.2631 206.5,-46.2631"/>
</g>
<!-- path1 -->
<g id="node33" class="node"><title>path1</title>
<ellipse fill="none" stroke="black" cx="309" cy="-72" rx="27" ry="18"/>
<text text-anchor="middle" x="309" y="-67.4" font-family="Times New Roman,serif" font-size="14.00">path</text>
</g>
<!-- d7e31180&#45;&gt;path1 -->
<g id="edge32" class="edge"><title>d7e31180&#45;&gt;path1</title>
<path fill="none" stroke="black" d="M307.016,-107.718C307.148,-105.343 307.285,-102.867 307.424,-100.375"/>
<polygon fill="black" stroke="black" points="310.925,-100.442 307.985,-90.2631 303.936,-100.054 310.925,-100.442"/>
</g>
<!-- d7e31182 -->
<g id="node35" class="node"><title>d7e31182</title>
<ellipse fill="none" stroke="black" cx="309" cy="-18" rx="27" ry="18"/>
<text text-anchor="middle" x="309" y="-13.4" font-family="Times New Roman,serif" font-size="14.00">.</text>
</g>
<!-- path1&#45;&gt;d7e31182 -->
<g id="edge28" class="edge"><title>path1&#45;&gt;d7e31182</title>
<path fill="none" stroke="black" d="M309,-53.7181C309,-51.3429 309,-48.867 309,-46.3754"/>
<polygon fill="black" stroke="black" points="312.5,-46.2631 309,-36.2631 305.5,-46.2631 312.5,-46.2631"/>
</g>
<!-- desc1 -->
<g id="node37" class="node"><title>desc1</title>
<ellipse fill="none" stroke="black" cx="415" cy="-18" rx="61.2137" ry="18"/>
<text text-anchor="middle" x="415" y="-13.4" font-family="Times New Roman,serif" font-size="14.00">descendant::*</text>
</g>
<!-- path1&#45;&gt;desc1 -->
<g id="edge30" class="edge"><title>path1&#45;&gt;desc1</title>
<path fill="none" stroke="black" d="M330.706,-60.942C343.447,-54.4516 359.946,-46.0463 374.965,-38.395"/>
<polygon fill="black" stroke="black" points="376.757,-41.4102 384.079,-33.7523 373.58,-35.1729 376.757,-41.4102"/>
</g>
</g>
</svg>
