<?xml version="1.0" encoding="UTF-8" standalone="no"?>
<!DOCTYPE svg PUBLIC "-//W3C//DTD SVG 1.1//EN"
 "http://www.w3.org/Graphics/SVG/1.1/DTD/svg11.dtd">
<!-- Generated by graphviz version 2.24.0 (20090616.2323)
 -->
<!-- Title: g Pages: 1 -->
<svg width="547pt" height="368pt"
 viewBox="0.00 0.00 547.00 368.00" xmlns="http://www.w3.org/2000/svg" xmlns:xlink="http://www.w3.org/1999/xlink">
<g id="graph1" class="graph" transform="scale(1 1) rotate(0) translate(4 364)">
<title>g</title>
<polygon fill="white" stroke="white" points="-4,5 -4,-364 544,-364 544,5 -4,5"/>
<!-- d7e31187 -->
<g id="node2" class="node"><title>d7e31187</title>
<ellipse fill="none" stroke="black" cx="150" cy="-342" rx="53.838" ry="18"/>
<text text-anchor="middle" x="150" y="-337.4" font-family="Times New Roman,serif" font-size="14.00">xsl:template</text>
</g>
<!-- sequence_constructor -->
<g id="node4" class="node"><title>sequence_constructor</title>
<ellipse fill="none" stroke="black" cx="150" cy="-288" rx="91.2316" ry="18"/>
<text text-anchor="middle" x="150" y="-283.4" font-family="Times New Roman,serif" font-size="14.00">sequence constructor</text>
</g>
<!-- d7e31187&#45;&gt;sequence_constructor -->
<g id="edge46" class="edge"><title>d7e31187&#45;&gt;sequence_constructor</title>
<path fill="none" stroke="black" d="M150,-323.718C150,-321.343 150,-318.867 150,-316.375"/>
<polygon fill="black" stroke="black" points="153.5,-316.263 150,-306.263 146.5,-316.263 153.5,-316.263"/>
</g>
<!-- var_decl -->
<g id="node6" class="node"><title>var_decl</title>
<ellipse fill="none" stroke="black" cx="78" cy="-234" rx="77.9861" ry="18"/>
<text text-anchor="middle" x="78" y="-229.4" font-family="Times New Roman,serif" font-size="14.00">xsl:variable doc&#45;A</text>
</g>
<!-- sequence_constructor&#45;&gt;var_decl -->
<g id="edge42" class="edge"><title>sequence_constructor&#45;&gt;var_decl</title>
<path fill="none" stroke="black" d="M126.425,-270.318C121.024,-266.268 115.198,-261.898 109.522,-257.642"/>
<polygon fill="black" stroke="black" points="111.483,-254.737 101.383,-251.537 107.283,-260.337 111.483,-254.737"/>
</g>
<!-- d7e31192 -->
<g id="node14" class="node"><title>d7e31192</title>
<ellipse fill="none" stroke="black" cx="222" cy="-234" rx="47.8011" ry="18"/>
<text text-anchor="middle" x="222" y="-229.4" font-family="Times New Roman,serif" font-size="14.00">xsl:stream</text>
</g>
<!-- sequence_constructor&#45;&gt;d7e31192 -->
<g id="edge44" class="edge"><title>sequence_constructor&#45;&gt;d7e31192</title>
<path fill="none" stroke="black" d="M173.575,-270.318C179.44,-265.92 185.806,-261.145 191.936,-256.548"/>
<polygon fill="black" stroke="black" points="194.18,-259.24 200.08,-250.44 189.98,-253.64 194.18,-259.24"/>
</g>
<!-- var_init -->
<g id="node8" class="node"><title>var_init</title>
<ellipse fill="none" stroke="black" cx="78" cy="-180" rx="31.0281" ry="18"/>
<text text-anchor="middle" x="78" y="-175.4" font-family="Times New Roman,serif" font-size="14.00">doc()</text>
</g>
<!-- var_decl&#45;&gt;var_init -->
<g id="edge9" class="edge"><title>var_decl&#45;&gt;var_init</title>
<path fill="none" stroke="black" d="M71.5965,-216.019C71.384,-213.35 71.2692,-210.547 71.2522,-207.735"/>
<polygon fill="black" stroke="black" points="74.7506,-207.84 71.6177,-197.719 67.7553,-207.585 74.7506,-207.84"/>
</g>
<!-- var_ref -->
<g id="node24" class="node"><title>var_ref</title>
<ellipse fill="none" stroke="black" cx="148" cy="-18" rx="39.0774" ry="18"/>
<text text-anchor="middle" x="148" y="-13.4" font-family="Times New Roman,serif" font-size="14.00">$doc&#45;A</text>
</g>
<!-- var_decl&#45;&gt;var_ref -->
<g id="edge50" class="edge"><title>var_decl&#45;&gt;var_ref</title>
<path fill="none" stroke="red" d="M102.38,-216.779C108.355,-211.42 114.137,-205.045 118,-198 144.618,-149.456 148.875,-83.3122 148.896,-46.2161"/>
<polygon fill="red" stroke="red" points="152.395,-46.0893 148.796,-36.1246 145.396,-46.1589 152.395,-46.0893"/>
</g>
<!-- var_init&#45;&gt;var_decl -->
<g id="edge48" class="edge"><title>var_init&#45;&gt;var_decl</title>
<path fill="none" stroke="red" d="M84.3823,-197.719C84.6012,-200.379 84.7224,-203.177 84.7458,-205.989"/>
<polygon fill="red" stroke="red" points="81.2467,-205.905 84.4035,-216.019 88.2426,-206.144 81.2467,-205.905"/>
</g>
<!-- d7e31191 -->
<g id="node10" class="node"><title>d7e31191</title>
<ellipse fill="none" stroke="black" cx="78" cy="-126" rx="34.8827" ry="18"/>
<text text-anchor="middle" x="78" y="-121.4" font-family="Times New Roman,serif" font-size="14.00">&#39;a.xml&#39;</text>
</g>
<!-- var_init&#45;&gt;d7e31191 -->
<g id="edge7" class="edge"><title>var_init&#45;&gt;d7e31191</title>
<path fill="none" stroke="black" d="M78,-161.718C78,-159.343 78,-156.867 78,-154.375"/>
<polygon fill="black" stroke="black" points="81.5001,-154.263 78,-144.263 74.5001,-154.263 81.5001,-154.263"/>
</g>
<!-- d7e31193 -->
<g id="node16" class="node"><title>d7e31193</title>
<ellipse fill="none" stroke="black" cx="212" cy="-180" rx="36.2243" ry="18"/>
<text text-anchor="middle" x="212" y="-175.4" font-family="Times New Roman,serif" font-size="14.00">&#39;b.xml&#39;</text>
</g>
<!-- d7e31192&#45;&gt;d7e31193 -->
<g id="edge38" class="edge"><title>d7e31192&#45;&gt;d7e31193</title>
<path fill="none" stroke="black" d="M218.67,-216.019C218.203,-213.495 217.714,-210.853 217.221,-208.195"/>
<polygon fill="black" stroke="black" points="220.612,-207.282 215.349,-198.087 213.729,-208.557 220.612,-207.282"/>
</g>
<!-- d7e31194 -->
<g id="node18" class="node"><title>d7e31194</title>
<ellipse fill="none" stroke="black" cx="293" cy="-180" rx="27" ry="18"/>
<text text-anchor="middle" x="293" y="-175.4" font-family="Times New Roman,serif" font-size="14.00">plus</text>
</g>
<!-- d7e31192&#45;&gt;d7e31194 -->
<g id="edge40" class="edge"><title>d7e31192&#45;&gt;d7e31194</title>
<path fill="none" stroke="black" d="M243.302,-217.798C250.742,-212.14 259.177,-205.725 266.958,-199.807"/>
<polygon fill="black" stroke="black" points="269.226,-202.479 275.067,-193.64 264.988,-196.907 269.226,-202.479"/>
</g>
<!-- d7e31195 -->
<g id="node20" class="node"><title>d7e31195</title>
<ellipse fill="none" stroke="black" cx="272" cy="-126" rx="38.2368" ry="18"/>
<text text-anchor="middle" x="272" y="-121.4" font-family="Times New Roman,serif" font-size="14.00">count()</text>
</g>
<!-- d7e31194&#45;&gt;d7e31195 -->
<g id="edge34" class="edge"><title>d7e31194&#45;&gt;d7e31195</title>
<path fill="none" stroke="black" d="M286.124,-162.318C285.011,-159.458 283.837,-156.438 282.66,-153.412"/>
<polygon fill="black" stroke="black" points="285.85,-151.958 278.964,-143.906 279.326,-154.495 285.85,-151.958"/>
</g>
<!-- d7e31199 -->
<g id="node31" class="node"><title>d7e31199</title>
<ellipse fill="none" stroke="black" cx="369" cy="-126" rx="38.2368" ry="18"/>
<text text-anchor="middle" x="369" y="-121.4" font-family="Times New Roman,serif" font-size="14.00">count()</text>
</g>
<!-- d7e31194&#45;&gt;d7e31199 -->
<g id="edge36" class="edge"><title>d7e31194&#45;&gt;d7e31199</title>
<path fill="none" stroke="black" d="M311.787,-166.652C320.133,-160.721 330.157,-153.599 339.467,-146.984"/>
<polygon fill="black" stroke="black" points="341.623,-149.746 347.748,-141.1 337.569,-144.039 341.623,-149.746"/>
</g>
<!-- path2 -->
<g id="node22" class="node"><title>path2</title>
<ellipse fill="none" stroke="black" cx="266" cy="-72" rx="27" ry="18"/>
<text text-anchor="middle" x="266" y="-67.4" font-family="Times New Roman,serif" font-size="14.00">path</text>
</g>
<!-- d7e31195&#45;&gt;path2 -->
<g id="edge22" class="edge"><title>d7e31195&#45;&gt;path2</title>
<path fill="none" stroke="black" d="M270.002,-108.019C269.722,-105.495 269.428,-102.853 269.133,-100.195"/>
<polygon fill="black" stroke="black" points="272.593,-99.6391 268.01,-90.0868 265.635,-100.412 272.593,-99.6391"/>
</g>
<!-- path2&#45;&gt;var_ref -->
<g id="edge18" class="edge"><title>path2&#45;&gt;var_ref</title>
<path fill="none" stroke="black" d="M243.527,-61.7159C226.977,-54.1422 204.106,-43.6755 184.891,-34.8824"/>
<polygon fill="black" stroke="black" points="186.346,-31.699 175.796,-30.7203 183.433,-38.0642 186.346,-31.699"/>
</g>
<!-- desc2 -->
<g id="node26" class="node"><title>desc2</title>
<ellipse fill="none" stroke="black" cx="266" cy="-18" rx="61.2137" ry="18"/>
<text text-anchor="middle" x="266" y="-13.4" font-family="Times New Roman,serif" font-size="14.00">descendant::*</text>
</g>
<!-- path2&#45;&gt;desc2 -->
<g id="edge20" class="edge"><title>path2&#45;&gt;desc2</title>
<path fill="none" stroke="black" d="M259.621,-54.3184C259.4,-51.6423 259.277,-48.8271 259.254,-45.9972"/>
<polygon fill="black" stroke="black" points="262.755,-46.0211 259.602,-35.9062 255.759,-45.7795 262.755,-46.0211"/>
</g>
<!-- desc2&#45;&gt;path2 -->
<g id="edge54" class="edge"><title>desc2&#45;&gt;path2</title>
<path fill="none" stroke="red" d="M272.398,-35.9062C272.613,-38.5899 272.73,-41.4094 272.748,-44.24"/>
<polygon fill="red" stroke="red" points="269.247,-44.1972 272.379,-54.3184 276.242,-44.4529 269.247,-44.1972"/>
</g>
<!-- path1 -->
<g id="node33" class="node"><title>path1</title>
<ellipse fill="none" stroke="black" cx="372" cy="-72" rx="27" ry="18"/>
<text text-anchor="middle" x="372" y="-67.4" font-family="Times New Roman,serif" font-size="14.00">path</text>
</g>
<!-- d7e31199&#45;&gt;path1 -->
<g id="edge32" class="edge"><title>d7e31199&#45;&gt;path1</title>
<path fill="none" stroke="black" d="M370.016,-107.718C370.148,-105.343 370.285,-102.867 370.424,-100.375"/>
<polygon fill="black" stroke="black" points="373.925,-100.442 370.985,-90.2631 366.936,-100.054 373.925,-100.442"/>
</g>
<!-- d7e31201 -->
<g id="node35" class="node"><title>d7e31201</title>
<ellipse fill="none" stroke="black" cx="372" cy="-18" rx="27" ry="18"/>
<text text-anchor="middle" x="372" y="-13.4" font-family="Times New Roman,serif" font-size="14.00">.</text>
</g>
<!-- path1&#45;&gt;d7e31201 -->
<g id="edge28" class="edge"><title>path1&#45;&gt;d7e31201</title>
<path fill="none" stroke="black" d="M372,-53.7181C372,-51.3429 372,-48.867 372,-46.3754"/>
<polygon fill="black" stroke="black" points="375.5,-46.2631 372,-36.2631 368.5,-46.2631 375.5,-46.2631"/>
</g>
<!-- desc1 -->
<g id="node37" class="node"><title>desc1</title>
<ellipse fill="none" stroke="black" cx="478" cy="-18" rx="61.2137" ry="18"/>
<text text-anchor="middle" x="478" y="-13.4" font-family="Times New Roman,serif" font-size="14.00">descendant::*</text>
</g>
<!-- path1&#45;&gt;desc1 -->
<g id="edge30" class="edge"><title>path1&#45;&gt;desc1</title>
<path fill="none" stroke="black" d="M391.281,-59.2028C403.23,-52.6424 418.959,-44.5183 433.772,-37.2224"/>
<polygon fill="black" stroke="black" points="435.378,-40.3338 442.835,-32.8082 432.312,-34.0406 435.378,-40.3338"/>
</g>
<!-- desc1&#45;&gt;path1 -->
<g id="edge52" class="edge"><title>desc1&#45;&gt;path1</title>
<path fill="none" stroke="red" d="M452.161,-34.3523C437.803,-42.0463 419.899,-51.114 404.599,-58.4221"/>
<polygon fill="red" stroke="red" points="403.024,-55.2948 395.464,-62.7171 406.003,-61.6295 403.024,-55.2948"/>
</g>
</g>
</svg>
