<?xml version="1.0" encoding="UTF-8" standalone="no"?>
<!DOCTYPE svg PUBLIC "-//W3C//DTD SVG 1.1//EN"
 "http://www.w3.org/Graphics/SVG/1.1/DTD/svg11.dtd">
<!-- Generated by graphviz version 2.24.0 (20090616.2323)
 -->
<!-- Title: g Pages: 1 -->
<svg width="406pt" height="314pt"
 viewBox="0.00 0.00 406.00 314.00" xmlns="http://www.w3.org/2000/svg" xmlns:xlink="http://www.w3.org/1999/xlink">
<g id="graph1" class="graph" transform="scale(1 1) rotate(0) translate(4 310)">
<title>g</title>
<polygon fill="white" stroke="white" points="-4,5 -4,-310 403,-310 403,5 -4,5"/>
<!-- T -->
<g id="node2" class="node"><title>T</title>
<ellipse fill="none" stroke="black" cx="124" cy="-288" rx="53.838" ry="18"/>
<text text-anchor="middle" x="124" y="-283.4" font-family="Times New Roman,serif" font-size="14.00">xsl:template</text>
</g>
<!-- A -->
<g id="node4" class="node"><title>A</title>
<ellipse fill="none" stroke="black" cx="124" cy="-234" rx="53.838" ry="18"/>
<text text-anchor="middle" x="124" y="-229.4" font-family="Times New Roman,serif" font-size="14.00">xsl:for&#45;each</text>
</g>
<!-- T&#45;&gt;A -->
<g id="edge22" class="edge"><title>T&#45;&gt;A</title>
<path fill="none" stroke="black" d="M117.596,-270.019C117.396,-267.495 117.282,-264.853 117.256,-262.195"/>
<polygon fill="black" stroke="black" points="120.758,-262.196 117.588,-252.087 113.761,-261.966 120.758,-262.196"/>
</g>
<!-- B -->
<g id="node6" class="node"><title>B</title>
<ellipse fill="none" stroke="black" cx="68" cy="-180" rx="67.9242" ry="18"/>
<text text-anchor="middle" x="68" y="-175.4" font-family="Times New Roman,serif" font-size="14.00">child::employee</text>
</g>
<!-- T&#45;&gt;B -->
<g id="edge24" class="edge"><title>T&#45;&gt;B</title>
<path fill="none" stroke="red" d="M161.277,-274.948C171.41,-269.492 181.183,-262.024 187,-252 195.031,-238.161 196.536,-228.848 187,-216 183.059,-210.69 155.62,-202.214 128.084,-194.82"/>
<polygon fill="red" stroke="red" points="128.941,-191.426 118.379,-192.257 127.154,-198.194 128.941,-191.426"/>
</g>
<!-- A&#45;&gt;T -->
<g id="edge34" class="edge"><title>A&#45;&gt;T</title>
<path fill="none" stroke="red" d="M130.412,-252.087C130.61,-254.614 130.721,-257.258 130.745,-259.916"/>
<polygon fill="red" stroke="red" points="127.244,-259.906 130.404,-270.019 134.24,-260.143 127.244,-259.906"/>
</g>
<!-- A&#45;&gt;B -->
<g id="edge18" class="edge"><title>A&#45;&gt;B</title>
<path fill="none" stroke="black" d="M106.281,-216.914C102.276,-213.052 97.9444,-208.875 93.685,-204.768"/>
<polygon fill="black" stroke="black" points="95.8095,-201.954 86.1816,-197.532 90.9506,-206.993 95.8095,-201.954"/>
</g>
<!-- LRE -->
<g id="node8" class="node"><title>LRE</title>
<ellipse fill="none" stroke="black" cx="181" cy="-180" rx="27" ry="18"/>
<text text-anchor="middle" x="181" y="-175.4" font-family="Times New Roman,serif" font-size="14.00">&lt;a&gt;</text>
</g>
<!-- A&#45;&gt;LRE -->
<g id="edge20" class="edge"><title>A&#45;&gt;LRE</title>
<path fill="none" stroke="black" d="M136.285,-216.318C141.503,-210.955 147.709,-205.032 153.844,-199.553"/>
<polygon fill="black" stroke="black" points="156.229,-202.118 161.498,-192.926 151.647,-196.826 156.229,-202.118"/>
</g>
<!-- C -->
<g id="node14" class="node"><title>C</title>
<ellipse fill="none" stroke="black" cx="118" cy="-18" rx="53.838" ry="18"/>
<text text-anchor="middle" x="118" y="-13.4" font-family="Times New Roman,serif" font-size="14.00">child::salary</text>
</g>
<!-- B&#45;&gt;C -->
<g id="edge26" class="edge"><title>B&#45;&gt;C</title>
<path fill="none" stroke="red" d="M73.5419,-162.044C82.2519,-133.824 99.2085,-78.8846 109.478,-45.6128"/>
<polygon fill="red" stroke="red" points="112.828,-46.6237 112.433,-36.0362 106.14,-44.5592 112.828,-46.6237"/>
</g>
<!-- LRE&#45;&gt;A -->
<g id="edge32" class="edge"><title>LRE&#45;&gt;A</title>
<path fill="none" stroke="red" d="M169.601,-196.767C165.328,-201.203 160.32,-206.071 155.198,-210.783"/>
<polygon fill="red" stroke="red" points="152.804,-208.228 147.685,-217.505 157.471,-213.445 152.804,-208.228"/>
</g>
<!-- d7e31896 -->
<g id="node10" class="node"><title>d7e31896</title>
<ellipse fill="none" stroke="black" cx="181" cy="-126" rx="53.1641" ry="18"/>
<text text-anchor="middle" x="181" y="-121.4" font-family="Times New Roman,serif" font-size="14.00">xsl:value&#45;of</text>
</g>
<!-- LRE&#45;&gt;d7e31896 -->
<g id="edge16" class="edge"><title>LRE&#45;&gt;d7e31896</title>
<path fill="none" stroke="black" d="M181,-161.718C181,-159.343 181,-156.867 181,-154.375"/>
<polygon fill="black" stroke="black" points="184.5,-154.263 181,-144.263 177.5,-154.263 184.5,-154.263"/>
</g>
<!-- path -->
<g id="node12" class="node"><title>path</title>
<ellipse fill="none" stroke="black" cx="181" cy="-72" rx="27" ry="18"/>
<text text-anchor="middle" x="181" y="-67.4" font-family="Times New Roman,serif" font-size="14.00">path</text>
</g>
<!-- d7e31896&#45;&gt;path -->
<g id="edge14" class="edge"><title>d7e31896&#45;&gt;path</title>
<path fill="none" stroke="black" d="M181,-107.718C181,-105.343 181,-102.867 181,-100.375"/>
<polygon fill="black" stroke="black" points="184.5,-100.263 181,-90.2631 177.5,-100.263 184.5,-100.263"/>
</g>
<!-- path&#45;&gt;C -->
<g id="edge10" class="edge"><title>path&#45;&gt;C</title>
<path fill="none" stroke="black" d="M164.117,-57.529C158.377,-52.6085 151.804,-46.9747 145.454,-41.5321"/>
<polygon fill="black" stroke="black" points="147.48,-38.6589 137.61,-34.8084 142.925,-43.9737 147.48,-38.6589"/>
</g>
<!-- text -->
<g id="node16" class="node"><title>text</title>
<ellipse fill="none" stroke="black" cx="294" cy="-18" rx="103.977" ry="18"/>
<text text-anchor="middle" x="294" y="-13.4" font-family="Times New Roman,serif" font-size="14.00">descendant&#45;or&#45;self::text()</text>
</g>
<!-- path&#45;&gt;text -->
<g id="edge12" class="edge"><title>path&#45;&gt;text</title>
<path fill="none" stroke="black" d="M200.881,-59.7466C212.798,-53.6135 228.417,-46.016 243.477,-38.9904"/>
<polygon fill="black" stroke="black" points="245.134,-42.0803 252.743,-34.7081 242.197,-35.726 245.134,-42.0803"/>
</g>
<!-- C&#45;&gt;text -->
<g id="edge28" class="edge"><title>C&#45;&gt;text</title>
<path fill="none" stroke="red" d="M172.313,-18C174.786,-18 177.259,-18 179.732,-18"/>
<polygon fill="red" stroke="red" points="179.9,-21.5001 189.9,-18 179.9,-14.5001 179.9,-21.5001"/>
</g>
<!-- text&#45;&gt;path -->
<g id="edge30" class="edge"><title>text&#45;&gt;path</title>
<path fill="none" stroke="red" d="M263.843,-35.4507C248.516,-43.0853 229.932,-51.8892 214.199,-58.9431"/>
<polygon fill="red" stroke="red" points="212.559,-55.841 204.826,-63.083 215.388,-62.2443 212.559,-55.841"/>
</g>
</g>
</svg>
