<?xml version="1.0" encoding="UTF-8" standalone="no"?>
<!DOCTYPE svg PUBLIC "-//W3C//DTD SVG 1.1//EN"
 "http://www.w3.org/Graphics/SVG/1.1/DTD/svg11.dtd">
<!-- Generated by graphviz version 2.24.0 (20090616.2323)
 -->
<!-- Title: g Pages: 1 -->
<svg width="412pt" height="476pt"
 viewBox="0.00 0.00 412.40 476.00" xmlns="http://www.w3.org/2000/svg" xmlns:xlink="http://www.w3.org/1999/xlink">
<g id="graph1" class="graph" transform="scale(1 1) rotate(0) translate(4 472)">
<title>g</title>
<polygon fill="white" stroke="white" points="-4,5 -4,-472 409.402,-472 409.402,5 -4,5"/>
<!-- A -->
<g id="node2" class="node"><title>A</title>
<ellipse fill="none" stroke="black" cx="165" cy="-450" rx="53.838" ry="18"/>
<text text-anchor="middle" x="165" y="-445.4" font-family="Times New Roman,serif" font-size="14.00">xsl:template</text>
</g>
<!-- B -->
<g id="node4" class="node"><title>B</title>
<ellipse fill="none" stroke="black" cx="120" cy="-396" rx="45.7889" ry="18"/>
<text text-anchor="middle" x="120" y="-391.4" font-family="Times New Roman,serif" font-size="14.00">xsl:param</text>
</g>
<!-- A&#45;&gt;B -->
<g id="edge44" class="edge"><title>A&#45;&gt;B</title>
<path fill="none" stroke="black" d="M150.514,-432.617C147.463,-428.956 144.186,-425.023 140.951,-421.142"/>
<polygon fill="black" stroke="black" points="143.55,-418.792 134.459,-413.351 138.172,-423.274 143.55,-418.792"/>
</g>
<!-- BB -->
<g id="node6" class="node"><title>BB</title>
<ellipse fill="none" stroke="black" cx="211" cy="-396" rx="27" ry="18"/>
<text text-anchor="middle" x="211" y="-391.4" font-family="Times New Roman,serif" font-size="14.00">&lt;a&gt;</text>
</g>
<!-- A&#45;&gt;BB -->
<g id="edge46" class="edge"><title>A&#45;&gt;BB</title>
<path fill="none" stroke="black" d="M173.914,-432.019C177.583,-427.267 181.921,-422.094 186.34,-417.19"/>
<polygon fill="black" stroke="black" points="188.979,-419.492 193.266,-409.803 183.873,-414.704 188.979,-419.492"/>
</g>
<!-- E -->
<g id="node22" class="node"><title>E</title>
<ellipse fill="none" stroke="black" cx="104" cy="-72" rx="67.9242" ry="18"/>
<text text-anchor="middle" x="104" y="-67.4" font-family="Times New Roman,serif" font-size="14.00">child::employee</text>
</g>
<!-- A&#45;&gt;E -->
<g id="edge48" class="edge"><title>A&#45;&gt;E</title>
<path fill="none" stroke="red" d="M200.571,-436.262C274.512,-405.289 435.064,-324.191 399,-216 380.026,-159.079 369.8,-138.279 318,-108 264.981,-77.0088 241.418,-101.003 181,-90 175.289,-88.96 169.365,-87.7725 163.452,-86.5147"/>
<polygon fill="red" stroke="red" points="164.072,-83.0674 153.554,-84.345 162.573,-89.9051 164.072,-83.0674"/>
</g>
<!-- R -->
<g id="node16" class="node"><title>R</title>
<ellipse fill="none" stroke="black" cx="46" cy="-180" rx="45.7889" ry="18"/>
<text text-anchor="middle" x="46" y="-175.4" font-family="Times New Roman,serif" font-size="14.00">$required</text>
</g>
<!-- B&#45;&gt;R -->
<g id="edge54" class="edge"><title>B&#45;&gt;R</title>
<path fill="none" stroke="red" d="M113.818,-377.955C100.863,-340.141 70.7977,-252.383 55.4227,-207.504"/>
<polygon fill="red" stroke="red" points="58.6644,-206.167 52.1123,-197.841 52.0423,-208.436 58.6644,-206.167"/>
</g>
<!-- BB&#45;&gt;A -->
<g id="edge70" class="edge"><title>BB&#45;&gt;A</title>
<path fill="none" stroke="red" d="M202.58,-413.339C199.61,-417.218 196.17,-421.403 192.586,-425.51"/>
<polygon fill="red" stroke="red" points="189.728,-423.451 185.604,-433.21 194.914,-428.153 189.728,-423.451"/>
</g>
<!-- d7e31930 -->
<g id="node8" class="node"><title>d7e31930</title>
<ellipse fill="none" stroke="black" cx="211" cy="-342" rx="53.1641" ry="18"/>
<text text-anchor="middle" x="211" y="-337.4" font-family="Times New Roman,serif" font-size="14.00">xsl:value&#45;of</text>
</g>
<!-- BB&#45;&gt;d7e31930 -->
<g id="edge42" class="edge"><title>BB&#45;&gt;d7e31930</title>
<path fill="none" stroke="black" d="M211,-377.718C211,-375.343 211,-372.867 211,-370.375"/>
<polygon fill="black" stroke="black" points="214.5,-370.263 211,-360.263 207.5,-370.263 214.5,-370.263"/>
</g>
<!-- path -->
<g id="node10" class="node"><title>path</title>
<ellipse fill="none" stroke="black" cx="211" cy="-288" rx="27" ry="18"/>
<text text-anchor="middle" x="211" y="-283.4" font-family="Times New Roman,serif" font-size="14.00">path</text>
</g>
<!-- d7e31930&#45;&gt;path -->
<g id="edge40" class="edge"><title>d7e31930&#45;&gt;path</title>
<path fill="none" stroke="black" d="M211,-323.718C211,-321.343 211,-318.867 211,-316.375"/>
<polygon fill="black" stroke="black" points="214.5,-316.263 211,-306.263 207.5,-316.263 214.5,-316.263"/>
</g>
<!-- F -->
<g id="node12" class="node"><title>F</title>
<ellipse fill="none" stroke="black" cx="137" cy="-234" rx="27" ry="18"/>
<text text-anchor="middle" x="137" y="-229.4" font-family="Times New Roman,serif" font-size="14.00">for</text>
</g>
<!-- path&#45;&gt;F -->
<g id="edge36" class="edge"><title>path&#45;&gt;F</title>
<path fill="none" stroke="black" d="M192.708,-274.652C183.902,-268.226 173.179,-260.401 163.5,-253.338"/>
<polygon fill="black" stroke="black" points="165.479,-250.449 155.338,-247.382 161.353,-256.104 165.479,-250.449"/>
</g>
<!-- text -->
<g id="node41" class="node"><title>text</title>
<ellipse fill="none" stroke="black" cx="286" cy="-234" rx="103.977" ry="18"/>
<text text-anchor="middle" x="286" y="-229.4" font-family="Times New Roman,serif" font-size="14.00">descendant&#45;or&#45;self::text()</text>
</g>
<!-- path&#45;&gt;text -->
<g id="edge38" class="edge"><title>path&#45;&gt;text</title>
<path fill="none" stroke="black" d="M226.136,-272.67C232.277,-267.874 239.604,-262.47 247.009,-257.255"/>
<polygon fill="black" stroke="black" points="249.434,-259.834 255.671,-251.269 245.454,-254.075 249.434,-259.834"/>
</g>
<!-- ii -->
<g id="node14" class="node"><title>ii</title>
<ellipse fill="none" stroke="black" cx="137" cy="-180" rx="27" ry="18"/>
<text text-anchor="middle" x="137" y="-175.4" font-family="Times New Roman,serif" font-size="14.00">$i</text>
</g>
<!-- F&#45;&gt;ii -->
<g id="edge29" class="edge"><title>F&#45;&gt;ii</title>
<path fill="none" stroke="black" d="M137,-215.718C137,-213.343 137,-210.867 137,-208.375"/>
<polygon fill="black" stroke="black" points="140.5,-208.263 137,-198.263 133.5,-208.263 140.5,-208.263"/>
</g>
<!-- F&#45;&gt;R -->
<g id="edge31" class="edge"><title>F&#45;&gt;R</title>
<path fill="none" stroke="black" d="M116.804,-222.016C106.018,-215.615 92.449,-207.563 80.0832,-200.225"/>
<polygon fill="black" stroke="black" points="81.7346,-197.135 71.3486,-195.042 78.1623,-203.155 81.7346,-197.135"/>
</g>
<!-- P -->
<g id="node18" class="node"><title>P</title>
<ellipse fill="none" stroke="black" cx="209" cy="-180" rx="27" ry="18"/>
<text text-anchor="middle" x="209" y="-175.4" font-family="Times New Roman,serif" font-size="14.00">path</text>
</g>
<!-- F&#45;&gt;P -->
<g id="edge33" class="edge"><title>F&#45;&gt;P</title>
<path fill="none" stroke="black" d="M151.285,-218.67C159.437,-212.014 169.81,-204.186 179.557,-197.32"/>
<polygon fill="black" stroke="black" points="181.635,-200.139 187.891,-191.588 177.668,-194.372 181.635,-200.139"/>
</g>
<!-- F&#45;&gt;text -->
<g id="edge62" class="edge"><title>F&#45;&gt;text</title>
<path fill="none" stroke="red" d="M164.064,-234C166.543,-234 169.021,-234 171.499,-234"/>
<polygon fill="red" stroke="red" points="171.688,-237.5 181.688,-234 171.688,-230.5 171.688,-237.5"/>
</g>
<!-- I -->
<g id="node28" class="node"><title>I</title>
<ellipse fill="none" stroke="black" cx="181" cy="-18" rx="27" ry="18"/>
<text text-anchor="middle" x="181" y="-13.4" font-family="Times New Roman,serif" font-size="14.00">$i</text>
</g>
<!-- ii&#45;&gt;I -->
<g id="edge52" class="edge"><title>ii&#45;&gt;I</title>
<path fill="none" stroke="red" d="M114.928,-169.34C73.6331,-147.993 -8.09844,-98.2495 27,-54 41.323,-35.9426 103.092,-26.0866 143.916,-21.4411"/>
<polygon fill="red" stroke="red" points="144.491,-24.8995 154.056,-20.3444 143.738,-17.9401 144.491,-24.8995"/>
</g>
<!-- R&#45;&gt;ii -->
<g id="edge50" class="edge"><title>R&#45;&gt;ii</title>
<path fill="none" stroke="red" d="M92.2109,-180C94.6713,-180 97.1316,-180 99.5919,-180"/>
<polygon fill="red" stroke="red" points="99.7067,-183.5 109.707,-180 99.7066,-176.5 99.7067,-183.5"/>
</g>
<!-- P&#45;&gt;F -->
<g id="edge60" class="edge"><title>P&#45;&gt;F</title>
<path fill="none" stroke="red" d="M194.715,-195.33C186.516,-202.024 176.07,-209.904 166.274,-216.798"/>
<polygon fill="red" stroke="red" points="164.165,-214 157.905,-222.548 168.129,-219.77 164.165,-214"/>
</g>
<!-- C -->
<g id="node20" class="node"><title>C</title>
<ellipse fill="none" stroke="black" cx="160" cy="-126" rx="27.0036" ry="18"/>
<text text-anchor="middle" x="160" y="-121.4" font-family="Times New Roman,serif" font-size="14.00">filter</text>
</g>
<!-- P&#45;&gt;C -->
<g id="edge25" class="edge"><title>P&#45;&gt;C</title>
<path fill="none" stroke="black" d="M194.827,-164.381C190.598,-159.72 185.866,-154.506 181.287,-149.459"/>
<polygon fill="black" stroke="black" points="183.623,-146.825 174.311,-141.771 178.439,-151.529 183.623,-146.825"/>
</g>
<!-- N -->
<g id="node34" class="node"><title>N</title>
<ellipse fill="none" stroke="black" cx="257" cy="-126" rx="51.8257" ry="18"/>
<text text-anchor="middle" x="257" y="-121.4" font-family="Times New Roman,serif" font-size="14.00">child::name</text>
</g>
<!-- P&#45;&gt;N -->
<g id="edge27" class="edge"><title>P&#45;&gt;N</title>
<path fill="none" stroke="black" d="M217.859,-162.914C221.073,-158.897 224.815,-154.54 228.703,-150.275"/>
<polygon fill="black" stroke="black" points="231.451,-152.463 235.774,-142.79 226.363,-147.655 231.451,-152.463"/>
</g>
<!-- C&#45;&gt;E -->
<g id="edge20" class="edge"><title>C&#45;&gt;E</title>
<path fill="none" stroke="black" d="M140.889,-113.203C135.228,-108.4 129.079,-102.758 123.415,-97.2177"/>
<polygon fill="black" stroke="black" points="125.606,-94.4558 116.082,-89.8126 120.631,-99.3811 125.606,-94.4558"/>
</g>
<!-- d7e31938 -->
<g id="node24" class="node"><title>d7e31938</title>
<ellipse fill="none" stroke="black" cx="217" cy="-72" rx="27" ry="18"/>
<text text-anchor="middle" x="217" y="-67.4" font-family="Times New Roman,serif" font-size="14.00">=</text>
</g>
<!-- C&#45;&gt;d7e31938 -->
<g id="edge22" class="edge"><title>C&#45;&gt;d7e31938</title>
<path fill="none" stroke="black" d="M175.576,-111.244C181.231,-105.887 187.747,-99.7134 193.913,-93.8723"/>
<polygon fill="black" stroke="black" points="196.591,-96.1562 201.443,-86.7379 191.777,-91.0745 196.591,-96.1562"/>
</g>
<!-- C&#45;&gt;N -->
<g id="edge66" class="edge"><title>C&#45;&gt;N</title>
<path fill="none" stroke="red" d="M187.281,-126C189.771,-126 192.26,-126 194.749,-126"/>
<polygon fill="red" stroke="red" points="194.983,-129.5 204.983,-126 194.983,-122.5 194.983,-129.5"/>
</g>
<!-- E&#45;&gt;C -->
<g id="edge56" class="edge"><title>E&#45;&gt;C</title>
<path fill="none" stroke="red" d="M128.11,-89.1416C132.804,-93.3136 137.633,-97.8496 142.094,-102.267"/>
<polygon fill="red" stroke="red" points="139.675,-104.799 149.168,-109.505 144.681,-99.9068 139.675,-104.799"/>
</g>
<!-- id -->
<g id="node26" class="node"><title>id</title>
<ellipse fill="none" stroke="black" cx="253" cy="-18" rx="27" ry="18"/>
<text text-anchor="middle" x="253" y="-13.4" font-family="Times New Roman,serif" font-size="14.00">@id</text>
</g>
<!-- E&#45;&gt;id -->
<g id="edge68" class="edge"><title>E&#45;&gt;id</title>
<path fill="none" stroke="red" d="M150.76,-58.8842C171.337,-52.6585 195.637,-44.6826 217,-36 218.796,-35.2699 220.626,-34.4866 222.461,-33.6702"/>
<polygon fill="red" stroke="red" points="223.983,-36.8223 231.549,-29.4053 221.009,-30.4855 223.983,-36.8223"/>
</g>
<!-- d7e31938&#45;&gt;id -->
<g id="edge16" class="edge"><title>d7e31938&#45;&gt;id</title>
<path fill="none" stroke="black" d="M227.997,-55.5048C230.6,-51.6006 233.434,-47.3492 236.228,-43.1574"/>
<polygon fill="black" stroke="black" points="239.187,-45.0288 241.822,-34.7669 233.363,-41.1459 239.187,-45.0288"/>
</g>
<!-- d7e31938&#45;&gt;I -->
<g id="edge18" class="edge"><title>d7e31938&#45;&gt;I</title>
<path fill="none" stroke="black" d="M206.003,-55.5048C203.4,-51.6006 200.566,-47.3492 197.772,-43.1574"/>
<polygon fill="black" stroke="black" points="200.637,-41.1459 192.178,-34.7669 194.813,-45.0288 200.637,-41.1459"/>
</g>
<!-- N&#45;&gt;P -->
<g id="edge58" class="edge"><title>N&#45;&gt;P</title>
<path fill="none" stroke="red" d="M247.64,-143.71C243.646,-148.661 238.893,-154.087 234.079,-159.199"/>
<polygon fill="red" stroke="red" points="231.553,-156.776 227.065,-166.374 236.558,-161.67 231.553,-156.776"/>
</g>
<!-- text&#45;&gt;path -->
<g id="edge64" class="edge"><title>text&#45;&gt;path</title>
<path fill="none" stroke="red" d="M267.65,-251.813C259.581,-257.984 249.977,-264.882 240.951,-270.987"/>
<polygon fill="red" stroke="red" points="238.952,-268.113 232.542,-276.548 242.813,-273.951 238.952,-268.113"/>
</g>
</g>
</svg>
