<?xml version="1.0" encoding="UTF-8" standalone="no"?>
<!DOCTYPE svg PUBLIC "-//W3C//DTD SVG 1.1//EN"
 "http://www.w3.org/Graphics/SVG/1.1/DTD/svg11.dtd">
<!-- Generated by graphviz version 2.24.0 (20090616.2323)
 -->
<!-- Title: g Pages: 1 -->
<svg width="177pt" height="152pt"
 viewBox="0.00 0.00 177.00 152.00" xmlns="http://www.w3.org/2000/svg" xmlns:xlink="http://www.w3.org/1999/xlink">
<g id="graph1" class="graph" transform="scale(1 1) rotate(0) translate(4 148)">
<title>g</title>
<polygon fill="white" stroke="white" points="-4,5 -4,-148 174,-148 174,5 -4,5"/>
<!-- d7e32200 -->
<g id="node2" class="node"><title>d7e32200</title>
<ellipse fill="none" stroke="black" cx="101" cy="-126" rx="53.838" ry="18"/>
<text text-anchor="middle" x="101" y="-121.4" font-family="Times New Roman,serif" font-size="14.00">xsl:for&#45;each</text>
</g>
<!-- d7e32201 -->
<g id="node4" class="node"><title>d7e32201</title>
<ellipse fill="none" stroke="black" cx="64" cy="-72" rx="27" ry="18"/>
<text text-anchor="middle" x="64" y="-67.4" font-family="Times New Roman,serif" font-size="14.00">sort</text>
</g>
<!-- d7e32200&#45;&gt;d7e32201 -->
<g id="edge11" class="edge"><title>d7e32200&#45;&gt;d7e32201</title>
<path fill="none" stroke="black" d="M88.8848,-108.318C86.3505,-104.62 83.6339,-100.655 80.9605,-96.7532"/>
<polygon fill="black" stroke="black" points="83.8041,-94.7111 75.2645,-88.4401 78.0296,-98.6677 83.8041,-94.7111"/>
</g>
<!-- d7e32204 -->
<g id="node12" class="node"><title>d7e32204</title>
<ellipse fill="none" stroke="black" cx="139" cy="-72" rx="30.1869" ry="18"/>
<text text-anchor="middle" x="139" y="-67.4" font-family="Times New Roman,serif" font-size="14.00">OUT</text>
</g>
<!-- d7e32200&#45;&gt;d7e32204 -->
<g id="edge13" class="edge"><title>d7e32200&#45;&gt;d7e32204</title>
<path fill="none" stroke="black" d="M113.443,-108.318C115.926,-104.789 118.581,-101.017 121.204,-97.2889"/>
<polygon fill="black" stroke="black" points="124.282,-98.9961 127.175,-88.8038 118.558,-94.9676 124.282,-98.9961"/>
</g>
<!-- d7e32202 -->
<g id="node6" class="node"><title>d7e32202</title>
<ellipse fill="none" stroke="black" cx="27" cy="-18" rx="27" ry="18"/>
<text text-anchor="middle" x="27" y="-13.4" font-family="Times New Roman,serif" font-size="14.00">IN</text>
</g>
<!-- d7e32201&#45;&gt;d7e32202 -->
<g id="edge6" class="edge"><title>d7e32201&#45;&gt;d7e32202</title>
<path fill="none" stroke="black" d="M52.6977,-55.5048C49.9722,-51.5269 46.9997,-47.1887 44.0749,-42.9202"/>
<polygon fill="black" stroke="black" points="46.7727,-40.6652 38.2331,-34.3942 40.9981,-44.6219 46.7727,-40.6652"/>
</g>
<!-- d7e32203 -->
<g id="node8" class="node"><title>d7e32203</title>
<ellipse fill="none" stroke="black" cx="101" cy="-18" rx="29.0158" ry="18"/>
<text text-anchor="middle" x="101" y="-13.4" font-family="Times New Roman,serif" font-size="14.00">KEY</text>
</g>
<!-- d7e32201&#45;&gt;d7e32203 -->
<g id="edge8" class="edge"><title>d7e32201&#45;&gt;d7e32203</title>
<path fill="none" stroke="black" d="M75.3023,-55.5048C77.9774,-51.6006 80.8903,-47.3492 83.7625,-43.1574"/>
<polygon fill="black" stroke="black" points="86.7465,-44.9945 89.5116,-34.7669 80.972,-41.0379 86.7465,-44.9945"/>
</g>
</g>
</svg>
